<?xml version="1.0" encoding="utf-8" standalone="no"?>
<!DOCTYPE svg PUBLIC "-//W3C//DTD SVG 1.1//EN"
  "http://www.w3.org/Graphics/SVG/1.1/DTD/svg11.dtd">
<!-- Created with matplotlib (https://matplotlib.org/) -->
<svg height="345.6pt" version="1.1" viewBox="0 0 460.8 345.6" width="460.8pt" xmlns="http://www.w3.org/2000/svg" xmlns:xlink="http://www.w3.org/1999/xlink">
 <defs>
  <style type="text/css">
*{stroke-linecap:butt;stroke-linejoin:round;}
  </style>
 </defs>
 <g id="figure_1">
  <g id="patch_1">
   <path d="M 0 345.6 
L 460.8 345.6 
L 460.8 0 
L 0 0 
z
" style="fill:#ffffff;"/>
  </g>
  <g id="axes_1">
   <g id="patch_2">
    <path d="M 57.6 307.584 
L 414.72 307.584 
L 414.72 41.472 
L 57.6 41.472 
z
" style="fill:#ffffff;"/>
   </g>
   <g id="matplotlib.axis_1">
    <g id="xtick_1">
     <g id="line2d_1">
      <defs>
       <path d="M 0 0 
L 0 3.5 
" id="m40e75eb09c" style="stroke:#000000;stroke-width:0.8;"/>
      </defs>
      <g>
       <use style="stroke:#000000;stroke-width:0.8;" x="73.832727" xlink:href="#m40e75eb09c" y="307.584"/>
      </g>
     </g>
     <g id="text_1">
      <!-- −3 -->
      <defs>
       <path d="M 10.59375 35.5 
L 73.1875 35.5 
L 73.1875 27.203125 
L 10.59375 27.203125 
z
" id="DejaVuSans-8722"/>
       <path d="M 40.578125 39.3125 
Q 47.65625 37.796875 51.625 33 
Q 55.609375 28.21875 55.609375 21.1875 
Q 55.609375 10.40625 48.1875 4.484375 
Q 40.765625 -1.421875 27.09375 -1.421875 
Q 22.515625 -1.421875 17.65625 -0.515625 
Q 12.796875 0.390625 7.625 2.203125 
L 7.625 11.71875 
Q 11.71875 9.328125 16.59375 8.109375 
Q 21.484375 6.890625 26.8125 6.890625 
Q 36.078125 6.890625 40.9375 10.546875 
Q 45.796875 14.203125 45.796875 21.1875 
Q 45.796875 27.640625 41.28125 31.265625 
Q 36.765625 34.90625 28.71875 34.90625 
L 20.21875 34.90625 
L 20.21875 43.015625 
L 29.109375 43.015625 
Q 36.375 43.015625 40.234375 45.921875 
Q 44.09375 48.828125 44.09375 54.296875 
Q 44.09375 59.90625 40.109375 62.90625 
Q 36.140625 65.921875 28.71875 65.921875 
Q 24.65625 65.921875 20.015625 65.03125 
Q 15.375 64.15625 9.8125 62.3125 
L 9.8125 71.09375 
Q 15.4375 72.65625 20.34375 73.4375 
Q 25.25 74.21875 29.59375 74.21875 
Q 40.828125 74.21875 47.359375 69.109375 
Q 53.90625 64.015625 53.90625 55.328125 
Q 53.90625 49.265625 50.4375 45.09375 
Q 46.96875 40.921875 40.578125 39.3125 
z
" id="DejaVuSans-51"/>
      </defs>
      <g transform="translate(66.461634 322.182437)scale(0.1 -0.1)">
       <use xlink:href="#DejaVuSans-8722"/>
       <use x="83.789062" xlink:href="#DejaVuSans-51"/>
      </g>
     </g>
    </g>
    <g id="xtick_2">
     <g id="line2d_2">
      <g>
       <use style="stroke:#000000;stroke-width:0.8;" x="127.941818" xlink:href="#m40e75eb09c" y="307.584"/>
      </g>
     </g>
     <g id="text_2">
      <!-- −2 -->
      <defs>
       <path d="M 19.1875 8.296875 
L 53.609375 8.296875 
L 53.609375 0 
L 7.328125 0 
L 7.328125 8.296875 
Q 12.9375 14.109375 22.625 23.890625 
Q 32.328125 33.6875 34.8125 36.53125 
Q 39.546875 41.84375 41.421875 45.53125 
Q 43.3125 49.21875 43.3125 52.78125 
Q 43.3125 58.59375 39.234375 62.25 
Q 35.15625 65.921875 28.609375 65.921875 
Q 23.96875 65.921875 18.8125 64.3125 
Q 13.671875 62.703125 7.8125 59.421875 
L 7.8125 69.390625 
Q 13.765625 71.78125 18.9375 73 
Q 24.125 74.21875 28.421875 74.21875 
Q 39.75 74.21875 46.484375 68.546875 
Q 53.21875 62.890625 53.21875 53.421875 
Q 53.21875 48.921875 51.53125 44.890625 
Q 49.859375 40.875 45.40625 35.40625 
Q 44.1875 33.984375 37.640625 27.21875 
Q 31.109375 20.453125 19.1875 8.296875 
z
" id="DejaVuSans-50"/>
      </defs>
      <g transform="translate(120.570724 322.182437)scale(0.1 -0.1)">
       <use xlink:href="#DejaVuSans-8722"/>
       <use x="83.789062" xlink:href="#DejaVuSans-50"/>
      </g>
     </g>
    </g>
    <g id="xtick_3">
     <g id="line2d_3">
      <g>
       <use style="stroke:#000000;stroke-width:0.8;" x="182.050909" xlink:href="#m40e75eb09c" y="307.584"/>
      </g>
     </g>
     <g id="text_3">
      <!-- −1 -->
      <defs>
       <path d="M 12.40625 8.296875 
L 28.515625 8.296875 
L 28.515625 63.921875 
L 10.984375 60.40625 
L 10.984375 69.390625 
L 28.421875 72.90625 
L 38.28125 72.90625 
L 38.28125 8.296875 
L 54.390625 8.296875 
L 54.390625 0 
L 12.40625 0 
z
" id="DejaVuSans-49"/>
      </defs>
      <g transform="translate(174.679815 322.182437)scale(0.1 -0.1)">
       <use xlink:href="#DejaVuSans-8722"/>
       <use x="83.789062" xlink:href="#DejaVuSans-49"/>
      </g>
     </g>
    </g>
    <g id="xtick_4">
     <g id="line2d_4">
      <g>
       <use style="stroke:#000000;stroke-width:0.8;" x="236.16" xlink:href="#m40e75eb09c" y="307.584"/>
      </g>
     </g>
     <g id="text_4">
      <!-- 0 -->
      <defs>
       <path d="M 31.78125 66.40625 
Q 24.171875 66.40625 20.328125 58.90625 
Q 16.5 51.421875 16.5 36.375 
Q 16.5 21.390625 20.328125 13.890625 
Q 24.171875 6.390625 31.78125 6.390625 
Q 39.453125 6.390625 43.28125 13.890625 
Q 47.125 21.390625 47.125 36.375 
Q 47.125 51.421875 43.28125 58.90625 
Q 39.453125 66.40625 31.78125 66.40625 
z
M 31.78125 74.21875 
Q 44.046875 74.21875 50.515625 64.515625 
Q 56.984375 54.828125 56.984375 36.375 
Q 56.984375 17.96875 50.515625 8.265625 
Q 44.046875 -1.421875 31.78125 -1.421875 
Q 19.53125 -1.421875 13.0625 8.265625 
Q 6.59375 17.96875 6.59375 36.375 
Q 6.59375 54.828125 13.0625 64.515625 
Q 19.53125 74.21875 31.78125 74.21875 
z
" id="DejaVuSans-48"/>
      </defs>
      <g transform="translate(232.97875 322.182437)scale(0.1 -0.1)">
       <use xlink:href="#DejaVuSans-48"/>
      </g>
     </g>
    </g>
    <g id="xtick_5">
     <g id="line2d_5">
      <g>
       <use style="stroke:#000000;stroke-width:0.8;" x="290.269091" xlink:href="#m40e75eb09c" y="307.584"/>
      </g>
     </g>
     <g id="text_5">
      <!-- 1 -->
      <g transform="translate(287.087841 322.182437)scale(0.1 -0.1)">
       <use xlink:href="#DejaVuSans-49"/>
      </g>
     </g>
    </g>
    <g id="xtick_6">
     <g id="line2d_6">
      <g>
       <use style="stroke:#000000;stroke-width:0.8;" x="344.378182" xlink:href="#m40e75eb09c" y="307.584"/>
      </g>
     </g>
     <g id="text_6">
      <!-- 2 -->
      <g transform="translate(341.196932 322.182437)scale(0.1 -0.1)">
       <use xlink:href="#DejaVuSans-50"/>
      </g>
     </g>
    </g>
    <g id="xtick_7">
     <g id="line2d_7">
      <g>
       <use style="stroke:#000000;stroke-width:0.8;" x="398.487273" xlink:href="#m40e75eb09c" y="307.584"/>
      </g>
     </g>
     <g id="text_7">
      <!-- 3 -->
      <g transform="translate(395.306023 322.182437)scale(0.1 -0.1)">
       <use xlink:href="#DejaVuSans-51"/>
      </g>
     </g>
    </g>
   </g>
   <g id="matplotlib.axis_2">
    <g id="ytick_1">
     <g id="line2d_8">
      <defs>
       <path d="M 0 0 
L -3.5 0 
" id="m60361471cb" style="stroke:#000000;stroke-width:0.8;"/>
      </defs>
      <g>
       <use style="stroke:#000000;stroke-width:0.8;" x="57.6" xlink:href="#m60361471cb" y="295.603437"/>
      </g>
     </g>
     <g id="text_8">
      <!-- 0 -->
      <g transform="translate(44.2375 299.402656)scale(0.1 -0.1)">
       <use xlink:href="#DejaVuSans-48"/>
      </g>
     </g>
    </g>
    <g id="ytick_2">
     <g id="line2d_9">
      <g>
       <use style="stroke:#000000;stroke-width:0.8;" x="57.6" xlink:href="#m60361471cb" y="256.570754"/>
      </g>
     </g>
     <g id="text_9">
      <!-- 50 -->
      <defs>
       <path d="M 10.796875 72.90625 
L 49.515625 72.90625 
L 49.515625 64.59375 
L 19.828125 64.59375 
L 19.828125 46.734375 
Q 21.96875 47.46875 24.109375 47.828125 
Q 26.265625 48.1875 28.421875 48.1875 
Q 40.625 48.1875 47.75 41.5 
Q 54.890625 34.8125 54.890625 23.390625 
Q 54.890625 11.625 47.5625 5.09375 
Q 40.234375 -1.421875 26.90625 -1.421875 
Q 22.3125 -1.421875 17.546875 -0.640625 
Q 12.796875 0.140625 7.71875 1.703125 
L 7.71875 11.625 
Q 12.109375 9.234375 16.796875 8.0625 
Q 21.484375 6.890625 26.703125 6.890625 
Q 35.15625 6.890625 40.078125 11.328125 
Q 45.015625 15.765625 45.015625 23.390625 
Q 45.015625 31 40.078125 35.4375 
Q 35.15625 39.890625 26.703125 39.890625 
Q 22.75 39.890625 18.8125 39.015625 
Q 14.890625 38.140625 10.796875 36.28125 
z
" id="DejaVuSans-53"/>
      </defs>
      <g transform="translate(37.875 260.369972)scale(0.1 -0.1)">
       <use xlink:href="#DejaVuSans-53"/>
       <use x="63.623047" xlink:href="#DejaVuSans-48"/>
      </g>
     </g>
    </g>
    <g id="ytick_3">
     <g id="line2d_10">
      <g>
       <use style="stroke:#000000;stroke-width:0.8;" x="57.6" xlink:href="#m60361471cb" y="217.53807"/>
      </g>
     </g>
     <g id="text_10">
      <!-- 100 -->
      <g transform="translate(31.5125 221.337288)scale(0.1 -0.1)">
       <use xlink:href="#DejaVuSans-49"/>
       <use x="63.623047" xlink:href="#DejaVuSans-48"/>
       <use x="127.246094" xlink:href="#DejaVuSans-48"/>
      </g>
     </g>
    </g>
    <g id="ytick_4">
     <g id="line2d_11">
      <g>
       <use style="stroke:#000000;stroke-width:0.8;" x="57.6" xlink:href="#m60361471cb" y="178.505386"/>
      </g>
     </g>
     <g id="text_11">
      <!-- 150 -->
      <g transform="translate(31.5125 182.304605)scale(0.1 -0.1)">
       <use xlink:href="#DejaVuSans-49"/>
       <use x="63.623047" xlink:href="#DejaVuSans-53"/>
       <use x="127.246094" xlink:href="#DejaVuSans-48"/>
      </g>
     </g>
    </g>
    <g id="ytick_5">
     <g id="line2d_12">
      <g>
       <use style="stroke:#000000;stroke-width:0.8;" x="57.6" xlink:href="#m60361471cb" y="139.472702"/>
      </g>
     </g>
     <g id="text_12">
      <!-- 200 -->
      <g transform="translate(31.5125 143.271921)scale(0.1 -0.1)">
       <use xlink:href="#DejaVuSans-50"/>
       <use x="63.623047" xlink:href="#DejaVuSans-48"/>
       <use x="127.246094" xlink:href="#DejaVuSans-48"/>
      </g>
     </g>
    </g>
    <g id="ytick_6">
     <g id="line2d_13">
      <g>
       <use style="stroke:#000000;stroke-width:0.8;" x="57.6" xlink:href="#m60361471cb" y="100.440018"/>
      </g>
     </g>
     <g id="text_13">
      <!-- 250 -->
      <g transform="translate(31.5125 104.239237)scale(0.1 -0.1)">
       <use xlink:href="#DejaVuSans-50"/>
       <use x="63.623047" xlink:href="#DejaVuSans-53"/>
       <use x="127.246094" xlink:href="#DejaVuSans-48"/>
      </g>
     </g>
    </g>
    <g id="ytick_7">
     <g id="line2d_14">
      <g>
       <use style="stroke:#000000;stroke-width:0.8;" x="57.6" xlink:href="#m60361471cb" y="61.407334"/>
      </g>
     </g>
     <g id="text_14">
      <!-- 300 -->
      <g transform="translate(31.5125 65.206553)scale(0.1 -0.1)">
       <use xlink:href="#DejaVuSans-51"/>
       <use x="63.623047" xlink:href="#DejaVuSans-48"/>
       <use x="127.246094" xlink:href="#DejaVuSans-48"/>
      </g>
     </g>
    </g>
   </g>
   <g id="line2d_15">
    <path clip-path="url(#p25a5331157)" d="M 73.832727 123.869763 
L 74.467128 116.15579 
L 74.942928 113.111414 
L 75.260129 112.416428 
L 75.418729 112.472258 
L 75.577329 112.797358 
L 75.894529 114.254157 
L 76.37033 118.440913 
L 76.84613 124.984395 
L 77.480531 137.233169 
L 78.273532 157.808838 
L 79.225133 189.233696 
L 80.493934 239.829957 
L 81.762736 295.177776 
L 83.983138 199.170978 
L 85.093339 159.490641 
L 86.04494 133.013299 
L 86.837941 117.39368 
L 87.472342 109.568953 
L 87.948142 106.565521 
L 88.265343 105.956814 
L 88.423943 106.073312 
L 88.741143 107.148492 
L 89.058343 109.342374 
L 89.534144 114.70519 
L 90.168545 125.614626 
L 90.802945 140.592203 
L 91.595946 164.508727 
L 92.706147 206.096724 
L 94.292149 276.358918 
L 94.609349 291.173086 
L 94.76795 292.601631 
L 96.988352 193.311368 
L 98.098553 152.620079 
L 99.050154 125.713727 
L 99.684555 112.66859 
L 100.318955 103.930018 
L 100.794756 100.340628 
L 101.111956 99.393044 
L 101.270556 99.356383 
L 101.429157 99.611701 
L 101.746357 100.99734 
L 102.063557 103.543738 
L 102.539358 109.509089 
L 103.173758 121.345374 
L 103.966759 141.98694 
L 104.91836 174.322822 
L 106.028562 220.299982 
L 107.614563 294.993009 
L 108.248964 265.520075 
L 109.993566 186.511441 
L 111.103767 145.287698 
L 111.896768 122.291596 
L 112.689769 105.693739 
L 113.324169 97.465754 
L 113.79997 94.388945 
L 114.11717 93.841209 
L 114.27577 94.021036 
L 114.592971 95.287976 
L 114.910171 97.759205 
L 115.385971 103.694039 
L 116.020372 115.642493 
L 116.654773 131.947694 
L 117.447774 157.872421 
L 118.557975 202.762353 
L 120.143977 278.213684 
L 120.461177 294.064185 
L 120.778377 281.257481 
L 122.840179 183.675769 
L 123.950381 140.927777 
L 124.901982 113.02156 
L 125.536382 99.738088 
L 126.170783 91.113782 
L 126.646583 87.840421 
L 126.963784 87.210929 
L 127.122384 87.3648 
L 127.439584 88.609727 
L 127.756785 91.098683 
L 128.232585 97.133684 
L 128.866986 109.348837 
L 129.501387 126.063946 
L 130.294387 152.681642 
L 131.404589 198.816135 
L 132.99059 276.385072 
L 133.307791 292.677664 
L 133.466391 290.364244 
L 135.528193 189.018595 
L 136.638394 143.83732 
L 137.589995 113.806427 
L 138.382996 96.214595 
L 139.017397 87.521562 
L 139.493197 84.296845 
L 139.810397 83.747374 
L 139.968998 83.955382 
L 140.286198 85.336432 
L 140.603398 87.997899 
L 141.079199 94.35741 
L 141.7136 107.120262 
L 142.348 124.50108 
L 143.141001 152.089639 
L 144.251202 199.768326 
L 145.837204 279.684889 
L 146.154404 294.769603 
L 148.374807 182.49338 
L 149.485008 136.402391 
L 150.436609 105.922543 
L 151.071009 91.150144 
L 151.70541 81.261064 
L 152.181211 77.204096 
L 152.498411 76.136353 
L 152.657011 76.097241 
L 152.815611 76.388438 
L 153.132812 77.960163 
L 153.450012 80.84331 
L 153.925812 87.589316 
L 154.560213 100.956734 
L 155.353214 124.229599 
L 156.304815 160.605595 
L 157.415016 212.165118 
L 159.001018 295.488 
L 161.538621 167.722486 
L 162.648822 124.658878 
L 163.441823 101.606509 
L 164.076223 88.512329 
L 164.552024 82.04012 
L 165.027824 78.547603 
L 165.345025 77.903334 
L 165.503625 78.089425 
L 165.820825 79.477908 
L 166.138025 82.21522 
L 166.613826 88.815873 
L 167.248227 102.13244 
L 167.882627 120.319071 
L 168.675628 149.236747 
L 169.785829 199.274574 
L 171.371831 283.205781 
L 171.530431 291.993941 
L 171.689031 290.40562 
L 173.909434 172.546806 
L 175.019635 124.259573 
L 175.971236 92.421932 
L 176.605637 77.064545 
L 177.240037 66.870933 
L 177.715838 62.777808 
L 178.033038 61.779341 
L 178.191638 61.803035 
L 178.350238 62.175822 
L 178.667439 63.966908 
L 178.984639 67.143774 
L 179.46044 74.467346 
L 180.09484 88.851589 
L 180.887841 113.764634 
L 181.839442 152.582474 
L 182.949643 207.501493 
L 184.535645 295.035038 
L 186.756047 173.871921 
L 187.866249 124.538627 
L 188.81785 92.163048 
L 189.45225 76.628574 
L 190.086651 66.39523 
L 190.562451 62.355929 
L 190.879652 61.429957 
L 191.038252 61.500147 
L 191.196852 61.925907 
L 191.514052 63.841248 
L 191.989853 69.348821 
L 192.465654 77.949045 
L 193.100054 94.019934 
L 193.893055 120.940706 
L 194.844656 161.887889 
L 196.113457 227.39703 
L 197.382259 291.699186 
L 199.444061 178.451121 
L 200.554262 128.148273 
L 201.505863 94.845667 
L 202.140264 78.674599 
L 202.774664 67.809028 
L 203.250465 63.307648 
L 203.567665 62.08271 
L 203.726265 62.006761 
L 203.884866 62.28887 
L 204.202066 63.925107 
L 204.519266 66.981634 
L 204.995067 74.186645 
L 205.629468 88.520008 
L 206.422468 113.51927 
L 207.374069 152.610505 
L 208.484271 207.988098 
L 210.070272 293.874469 
L 212.132074 180.194124 
L 213.242276 129.549614 
L 214.193877 95.953957 
L 214.828277 79.607753 
L 215.462678 68.595864 
L 215.938478 64.009639 
L 216.255679 62.742117 
L 216.414279 62.64946 
L 216.572879 62.918077 
L 216.890079 64.53743 
L 217.20728 67.591229 
L 217.68308 74.820291 
L 218.317481 89.241365 
L 219.110482 114.44425 
L 220.062083 153.920927 
L 221.172284 209.937693 
L 222.599686 291.217229 
L 222.758286 290.700104 
L 224.978688 167.030413 
L 226.088889 116.83081 
L 227.04049 84.031437 
L 227.674891 68.401249 
L 228.309292 58.230223 
L 228.785092 54.342864 
L 229.102292 53.568 
L 229.260893 53.728499 
L 229.578093 55.144651 
L 229.895293 58.013557 
L 230.371094 65.001896 
L 231.005495 79.175309 
L 231.639895 98.579278 
L 232.432896 129.466965 
L 233.543097 182.936856 
L 235.129099 272.614744 
L 235.446299 291.411538 
L 235.604899 290.380874 
L 237.666702 173.871554 
L 238.776903 122.191772 
L 239.728504 87.984721 
L 240.362904 71.363337 
L 240.997305 60.172004 
L 241.473106 55.507307 
L 241.790306 54.211222 
L 241.948906 54.11077 
L 242.107506 54.375623 
L 242.424707 55.99863 
L 242.741907 59.069455 
L 243.217708 66.345016 
L 243.852108 80.857275 
L 244.645109 106.200106 
L 245.59671 145.846815 
L 246.706911 202.013829 
L 248.292913 292.623592 
L 248.451513 289.303223 
L 250.513315 175.256883 
L 251.623516 125.348937 
L 252.416517 97.482545 
L 253.209518 77.323826 
L 253.843919 67.265346 
L 254.319719 63.429083 
L 254.63692 62.668652 
L 254.79552 62.829741 
L 255.11272 64.232618 
L 255.429921 67.067435 
L 255.905721 73.961756 
L 256.540122 87.921296 
L 257.174522 107.000018 
L 257.967523 137.311481 
L 259.077724 189.641302 
L 260.663726 277.024393 
L 260.980926 295.275777 
L 264.15293 131.493486 
L 265.104531 97.633659 
L 265.897532 77.7002 
L 266.531932 67.741054 
L 267.007733 63.93279 
L 267.324933 63.169421 
L 267.483533 63.322708 
L 267.800734 64.697621 
L 268.117934 67.488454 
L 268.593735 74.288145 
L 269.228135 88.071883 
L 269.862536 106.924266 
L 270.655537 136.893395 
L 271.765738 188.662857 
L 273.35174 275.170031 
L 273.66894 293.246476 
L 273.82754 288.914869 
L 275.889342 177.547331 
L 276.999543 128.693273 
L 277.951144 96.786952 
L 278.585545 81.586076 
L 279.219946 71.692951 
L 279.695746 67.906719 
L 280.012947 67.145664 
L 280.171547 67.296582 
L 280.488747 68.660068 
L 280.805948 71.4311 
L 281.281748 78.186999 
L 281.916149 91.890423 
L 282.550549 110.644315 
L 283.34355 140.477476 
L 284.453751 192.064181 
L 286.039753 278.415884 
L 286.356953 294.72018 
L 288.577356 173.998849 
L 289.687557 124.722123 
L 290.639158 92.302626 
L 291.273559 76.68604 
L 291.907959 66.323861 
L 292.38376 62.154929 
L 292.70096 61.125973 
L 292.85956 61.139552 
L 293.018161 61.50523 
L 293.335361 63.289847 
L 293.652561 66.468403 
L 294.128362 73.804013 
L 294.762762 88.20807 
L 295.555763 113.122815 
L 296.507364 151.860203 
L 297.776166 214.928977 
L 299.203567 294.369222 
L 299.520767 278.886252 
L 301.423969 177.576114 
L 302.534171 129.375917 
L 303.327171 102.46706 
L 304.120172 82.991711 
L 304.754573 73.25814 
L 305.230373 69.527997 
L 305.547574 68.771155 
L 305.706174 68.91375 
L 306.023374 70.239087 
L 306.340575 72.942624 
L 306.816375 79.541043 
L 307.450776 92.928517 
L 308.085177 111.247149 
L 308.878177 140.377986 
L 309.988379 190.725953 
L 311.57438 274.959515 
L 311.891581 292.583326 
L 312.050181 289.80076 
L 314.111983 180.864677 
L 315.222184 132.732025 
L 316.173785 100.985179 
L 316.808186 85.626107 
L 317.442586 75.352652 
L 317.918387 71.133978 
L 318.235587 70.015238 
L 318.394188 69.966832 
L 318.552788 70.259129 
L 318.869988 71.86291 
L 319.187188 74.815592 
L 319.662989 81.72968 
L 320.29739 95.423762 
L 321.09039 119.233157 
L 322.041991 156.374421 
L 323.310793 216.996366 
L 324.738194 293.526052 
L 324.896794 289.014211 
L 326.958597 182.416672 
L 328.068798 135.612323 
L 329.020399 104.924141 
L 329.654799 90.192476 
L 330.2892 80.461698 
L 330.765001 76.584568 
L 331.082201 75.659039 
L 331.240801 75.69632 
L 331.399401 76.066803 
L 331.716602 77.803854 
L 332.033802 80.858152 
L 332.509603 87.863573 
L 333.144003 101.562886 
L 333.937004 125.19079 
L 334.888605 161.848095 
L 336.157406 221.422438 
L 337.584808 294.850498 
L 339.64661 189.708359 
L 340.756811 142.811468 
L 341.708412 111.539259 
L 342.501413 93.070045 
L 343.135814 83.766805 
L 343.611614 80.130245 
L 343.928815 79.324792 
L 344.087415 79.409692 
L 344.246015 79.8194 
L 344.563215 81.609473 
L 345.039016 86.69437 
L 345.514816 94.590186 
L 346.149217 109.291492 
L 346.942218 133.842972 
L 347.893819 171.0872 
L 349.16262 230.529024 
L 350.431422 295.354423 
L 352.493224 192.752432 
L 353.603425 146.999552 
L 354.555026 116.47608 
L 355.348027 98.426643 
L 355.982427 89.309532 
L 356.458228 85.720433 
L 356.775428 84.901822 
L 356.934029 84.966635 
L 357.092629 85.347257 
L 357.409829 87.052279 
L 357.88563 91.943242 
L 358.36143 99.567691 
L 358.995831 113.793125 
L 359.788832 137.583702 
L 360.740433 173.712612 
L 362.009234 231.435188 
L 363.278035 294.944921 
L 363.912436 264.223107 
L 365.657038 182.607627 
L 366.767239 140.629598 
L 367.56024 117.500971 
L 368.19464 103.781261 
L 368.829041 94.660188 
L 369.304842 90.963742 
L 369.622042 90.024251 
L 369.780642 90.014035 
L 369.939242 90.310033 
L 370.256443 91.817514 
L 370.573643 94.535844 
L 371.049444 100.842255 
L 371.683844 113.2614 
L 372.476845 134.777537 
L 373.428446 168.268248 
L 374.697247 222.869433 
L 376.124649 291.813535 
L 376.283249 291.57937 
L 378.345051 195.209384 
L 379.455252 152.578258 
L 380.406853 124.330531 
L 381.199854 107.78417 
L 381.834255 99.563431 
L 382.310056 96.450909 
L 382.627256 95.852396 
L 382.785856 95.997341 
L 383.103056 97.173327 
L 383.420257 99.522597 
L 383.896057 105.209816 
L 384.530458 116.694284 
L 385.164859 132.369218 
L 385.957859 157.261727 
L 387.068061 200.263127 
L 388.654062 272.29532 
L 389.129863 294.962924 
L 389.764263 266.140966 
L 391.508865 189.464278 
L 392.619066 149.969681 
L 393.412067 128.145999 
L 394.046468 115.140339 
L 394.680869 106.415695 
L 395.156669 102.799831 
L 395.47387 101.809352 
L 395.63247 101.7422 
L 395.79107 101.960375 
L 396.10827 103.249982 
L 396.425471 105.668557 
L 396.901271 111.375921 
L 397.535672 122.731315 
L 398.328673 142.531972 
L 398.487273 147.181872 
L 398.487273 147.181872 
" style="fill:none;stroke:#0000ff;stroke-linecap:square;stroke-width:1.5;"/>
   </g>
   <g id="line2d_16">
    <path clip-path="url(#p25a5331157)" d="M 182.050909 307.584 
L 182.050909 41.472 
" style="fill:none;stroke:#000000;stroke-dasharray:5.55,2.4;stroke-dashoffset:0;stroke-width:1.5;"/>
   </g>
   <g id="line2d_17">
    <path clip-path="url(#p25a5331157)" d="M 236.16 307.584 
L 236.16 41.472 
" style="fill:none;stroke:#000000;stroke-dasharray:5.55,2.4;stroke-dashoffset:0;stroke-width:1.5;"/>
   </g>
   <g id="line2d_18">
    <path clip-path="url(#p25a5331157)" d="M 276.741818 307.584 
L 276.741818 41.472 
" style="fill:none;stroke:#000000;stroke-dasharray:5.55,2.4;stroke-dashoffset:0;stroke-width:1.5;"/>
   </g>
   <g id="patch_3">
    <path d="M 57.6 307.584 
L 57.6 41.472 
" style="fill:none;stroke:#000000;stroke-linecap:square;stroke-linejoin:miter;stroke-width:0.8;"/>
   </g>
   <g id="patch_4">
    <path d="M 414.72 307.584 
L 414.72 41.472 
" style="fill:none;stroke:#000000;stroke-linecap:square;stroke-linejoin:miter;stroke-width:0.8;"/>
   </g>
   <g id="patch_5">
    <path d="M 57.6 307.584 
L 414.72 307.584 
" style="fill:none;stroke:#000000;stroke-linecap:square;stroke-linejoin:miter;stroke-width:0.8;"/>
   </g>
   <g id="patch_6">
    <path d="M 57.6 41.472 
L 414.72 41.472 
" style="fill:none;stroke:#000000;stroke-linecap:square;stroke-linejoin:miter;stroke-width:0.8;"/>
   </g>
   <g id="text_15">
    <!-- t = -1.0 -->
    <defs>
     <path d="M 18.3125 70.21875 
L 18.3125 54.6875 
L 36.8125 54.6875 
L 36.8125 47.703125 
L 18.3125 47.703125 
L 18.3125 18.015625 
Q 18.3125 11.328125 20.140625 9.421875 
Q 21.96875 7.515625 27.59375 7.515625 
L 36.8125 7.515625 
L 36.8125 0 
L 27.59375 0 
Q 17.1875 0 13.234375 3.875 
Q 9.28125 7.765625 9.28125 18.015625 
L 9.28125 47.703125 
L 2.6875 47.703125 
L 2.6875 54.6875 
L 9.28125 54.6875 
L 9.28125 70.21875 
z
" id="DejaVuSans-116"/>
     <path id="DejaVuSans-32"/>
     <path d="M 10.59375 45.40625 
L 73.1875 45.40625 
L 73.1875 37.203125 
L 10.59375 37.203125 
z
M 10.59375 25.484375 
L 73.1875 25.484375 
L 73.1875 17.1875 
L 10.59375 17.1875 
z
" id="DejaVuSans-61"/>
     <path d="M 4.890625 31.390625 
L 31.203125 31.390625 
L 31.203125 23.390625 
L 4.890625 23.390625 
z
" id="DejaVuSans-45"/>
     <path d="M 10.6875 12.40625 
L 21 12.40625 
L 21 0 
L 10.6875 0 
z
" id="DejaVuSans-46"/>
    </defs>
    <g transform="translate(183.133091 284.405625)scale(0.1 -0.1)">
     <use xlink:href="#DejaVuSans-116"/>
     <use x="39.208984" xlink:href="#DejaVuSans-32"/>
     <use x="70.996094" xlink:href="#DejaVuSans-61"/>
     <use x="154.785156" xlink:href="#DejaVuSans-32"/>
     <use x="186.572266" xlink:href="#DejaVuSans-45"/>
     <use x="222.65625" xlink:href="#DejaVuSans-49"/>
     <use x="286.279297" xlink:href="#DejaVuSans-46"/>
     <use x="318.066406" xlink:href="#DejaVuSans-48"/>
    </g>
    <!-- a = 1.0 -->
    <defs>
     <path d="M 34.28125 27.484375 
Q 23.390625 27.484375 19.1875 25 
Q 14.984375 22.515625 14.984375 16.5 
Q 14.984375 11.71875 18.140625 8.90625 
Q 21.296875 6.109375 26.703125 6.109375 
Q 34.1875 6.109375 38.703125 11.40625 
Q 43.21875 16.703125 43.21875 25.484375 
L 43.21875 27.484375 
z
M 52.203125 31.203125 
L 52.203125 0 
L 43.21875 0 
L 43.21875 8.296875 
Q 40.140625 3.328125 35.546875 0.953125 
Q 30.953125 -1.421875 24.3125 -1.421875 
Q 15.921875 -1.421875 10.953125 3.296875 
Q 6 8.015625 6 15.921875 
Q 6 25.140625 12.171875 29.828125 
Q 18.359375 34.515625 30.609375 34.515625 
L 43.21875 34.515625 
L 43.21875 35.40625 
Q 43.21875 41.609375 39.140625 45 
Q 35.0625 48.390625 27.6875 48.390625 
Q 23 48.390625 18.546875 47.265625 
Q 14.109375 46.140625 10.015625 43.890625 
L 10.015625 52.203125 
Q 14.9375 54.109375 19.578125 55.046875 
Q 24.21875 56 28.609375 56 
Q 40.484375 56 46.34375 49.84375 
Q 52.203125 43.703125 52.203125 31.203125 
z
" id="DejaVuSans-97"/>
    </defs>
    <g transform="translate(183.133091 295.603437)scale(0.1 -0.1)">
     <use xlink:href="#DejaVuSans-97"/>
     <use x="61.279297" xlink:href="#DejaVuSans-32"/>
     <use x="93.066406" xlink:href="#DejaVuSans-61"/>
     <use x="176.855469" xlink:href="#DejaVuSans-32"/>
     <use x="208.642578" xlink:href="#DejaVuSans-49"/>
     <use x="272.265625" xlink:href="#DejaVuSans-46"/>
     <use x="304.052734" xlink:href="#DejaVuSans-48"/>
    </g>
   </g>
   <g id="text_16">
    <!-- t = 0.0 -->
    <g transform="translate(237.242182 284.405625)scale(0.1 -0.1)">
     <use xlink:href="#DejaVuSans-116"/>
     <use x="39.208984" xlink:href="#DejaVuSans-32"/>
     <use x="70.996094" xlink:href="#DejaVuSans-61"/>
     <use x="154.785156" xlink:href="#DejaVuSans-32"/>
     <use x="186.572266" xlink:href="#DejaVuSans-48"/>
     <use x="250.195312" xlink:href="#DejaVuSans-46"/>
     <use x="281.982422" xlink:href="#DejaVuSans-48"/>
    </g>
    <!-- a = 3.0 -->
    <g transform="translate(237.242182 295.603437)scale(0.1 -0.1)">
     <use xlink:href="#DejaVuSans-97"/>
     <use x="61.279297" xlink:href="#DejaVuSans-32"/>
     <use x="93.066406" xlink:href="#DejaVuSans-61"/>
     <use x="176.855469" xlink:href="#DejaVuSans-32"/>
     <use x="208.642578" xlink:href="#DejaVuSans-51"/>
     <use x="272.265625" xlink:href="#DejaVuSans-46"/>
     <use x="304.052734" xlink:href="#DejaVuSans-48"/>
    </g>
   </g>
   <g id="text_17">
    <!-- t = 0.75 -->
    <defs>
     <path d="M 8.203125 72.90625 
L 55.078125 72.90625 
L 55.078125 68.703125 
L 28.609375 0 
L 18.3125 0 
L 43.21875 64.59375 
L 8.203125 64.59375 
z
" id="DejaVuSans-55"/>
    </defs>
    <g transform="translate(277.824 284.405625)scale(0.1 -0.1)">
     <use xlink:href="#DejaVuSans-116"/>
     <use x="39.208984" xlink:href="#DejaVuSans-32"/>
     <use x="70.996094" xlink:href="#DejaVuSans-61"/>
     <use x="154.785156" xlink:href="#DejaVuSans-32"/>
     <use x="186.572266" xlink:href="#DejaVuSans-48"/>
     <use x="250.195312" xlink:href="#DejaVuSans-46"/>
     <use x="281.982422" xlink:href="#DejaVuSans-55"/>
     <use x="345.605469" xlink:href="#DejaVuSans-53"/>
    </g>
    <!-- a = 1.0 -->
    <g transform="translate(277.824 295.603437)scale(0.1 -0.1)">
     <use xlink:href="#DejaVuSans-97"/>
     <use x="61.279297" xlink:href="#DejaVuSans-32"/>
     <use x="93.066406" xlink:href="#DejaVuSans-61"/>
     <use x="176.855469" xlink:href="#DejaVuSans-32"/>
     <use x="208.642578" xlink:href="#DejaVuSans-49"/>
     <use x="272.265625" xlink:href="#DejaVuSans-46"/>
     <use x="304.052734" xlink:href="#DejaVuSans-48"/>
    </g>
   </g>
   <g id="legend_1">
    <g id="patch_7">
     <path d="M 361.9825 64.150125 
L 407.72 64.150125 
Q 409.72 64.150125 409.72 62.150125 
L 409.72 48.472 
Q 409.72 46.472 407.72 46.472 
L 361.9825 46.472 
Q 359.9825 46.472 359.9825 48.472 
L 359.9825 62.150125 
Q 359.9825 64.150125 361.9825 64.150125 
z
" style="fill:#ffffff;opacity:0.8;stroke:#cccccc;stroke-linejoin:miter;"/>
    </g>
    <g id="line2d_19">
     <path d="M 363.9825 54.570438 
L 383.9825 54.570438 
" style="fill:none;stroke:#0000ff;stroke-linecap:square;stroke-width:1.5;"/>
    </g>
    <g id="line2d_20"/>
    <g id="text_18">
     <!-- ifft -->
     <defs>
      <path d="M 9.421875 54.6875 
L 18.40625 54.6875 
L 18.40625 0 
L 9.421875 0 
z
M 9.421875 75.984375 
L 18.40625 75.984375 
L 18.40625 64.59375 
L 9.421875 64.59375 
z
" id="DejaVuSans-105"/>
      <path d="M 37.109375 75.984375 
L 37.109375 68.5 
L 28.515625 68.5 
Q 23.6875 68.5 21.796875 66.546875 
Q 19.921875 64.59375 19.921875 59.515625 
L 19.921875 54.6875 
L 34.71875 54.6875 
L 34.71875 47.703125 
L 19.921875 47.703125 
L 19.921875 0 
L 10.890625 0 
L 10.890625 47.703125 
L 2.296875 47.703125 
L 2.296875 54.6875 
L 10.890625 54.6875 
L 10.890625 58.5 
Q 10.890625 67.625 15.140625 71.796875 
Q 19.390625 75.984375 28.609375 75.984375 
z
" id="DejaVuSans-102"/>
     </defs>
     <g transform="translate(391.9825 58.070438)scale(0.1 -0.1)">
      <use xlink:href="#DejaVuSans-105"/>
      <use x="27.783203" xlink:href="#DejaVuSans-102"/>
      <use x="62.988281" xlink:href="#DejaVuSans-102"/>
      <use x="98.177734" xlink:href="#DejaVuSans-116"/>
     </g>
    </g>
   </g>
  </g>
 </g>
 <defs>
  <clipPath id="p25a5331157">
   <rect height="266.112" width="357.12" x="57.6" y="41.472"/>
  </clipPath>
 </defs>
</svg>
