<?xml version="1.0" encoding="utf-8"?>
<svg xmlns="http://www.w3.org/2000/svg" xmlns:xlink="http://www.w3.org/1999/xlink" width="600" height="400" viewBox="0 0 2400 1600">
<defs>
  <clipPath id="clip2700">
    <rect x="0" y="0" width="2400" height="1600"/>
  </clipPath>
</defs>
<polygon clip-path="url(#clip2700)" points="
0,1600 2400,1600 2400,0 0,0 
  " fill="#ffffff" fill-rule="evenodd" fill-opacity="1"/>
<defs>
  <clipPath id="clip2701">
    <rect x="480" y="0" width="1681" height="1600"/>
  </clipPath>
</defs>
<polygon clip-path="url(#clip2700)" points="
140.517,1487.47 2352.76,1487.47 2352.76,47.2441 140.517,47.2441 
  " fill="#ffffff" fill-rule="evenodd" fill-opacity="1"/>
<defs>
  <clipPath id="clip2702">
    <rect x="140" y="47" width="2213" height="1441"/>
  </clipPath>
</defs>
<polyline clip-path="url(#clip2702)" style="stroke:#000000; stroke-width:2; stroke-opacity:0.1; fill:none" points="
  203.127,1487.47 203.127,47.2441 
  "/>
<polyline clip-path="url(#clip2702)" style="stroke:#000000; stroke-width:2; stroke-opacity:0.1; fill:none" points="
  550.964,1487.47 550.964,47.2441 
  "/>
<polyline clip-path="url(#clip2702)" style="stroke:#000000; stroke-width:2; stroke-opacity:0.1; fill:none" points="
  898.8,1487.47 898.8,47.2441 
  "/>
<polyline clip-path="url(#clip2702)" style="stroke:#000000; stroke-width:2; stroke-opacity:0.1; fill:none" points="
  1246.64,1487.47 1246.64,47.2441 
  "/>
<polyline clip-path="url(#clip2702)" style="stroke:#000000; stroke-width:2; stroke-opacity:0.1; fill:none" points="
  1594.47,1487.47 1594.47,47.2441 
  "/>
<polyline clip-path="url(#clip2702)" style="stroke:#000000; stroke-width:2; stroke-opacity:0.1; fill:none" points="
  1942.31,1487.47 1942.31,47.2441 
  "/>
<polyline clip-path="url(#clip2702)" style="stroke:#000000; stroke-width:2; stroke-opacity:0.1; fill:none" points="
  2290.15,1487.47 2290.15,47.2441 
  "/>
<polyline clip-path="url(#clip2702)" style="stroke:#000000; stroke-width:2; stroke-opacity:0.1; fill:none" points="
  140.517,1446.72 2352.76,1446.72 
  "/>
<polyline clip-path="url(#clip2702)" style="stroke:#000000; stroke-width:2; stroke-opacity:0.1; fill:none" points="
  140.517,1027.59 2352.76,1027.59 
  "/>
<polyline clip-path="url(#clip2702)" style="stroke:#000000; stroke-width:2; stroke-opacity:0.1; fill:none" points="
  140.517,608.456 2352.76,608.456 
  "/>
<polyline clip-path="url(#clip2702)" style="stroke:#000000; stroke-width:2; stroke-opacity:0.1; fill:none" points="
  140.517,189.323 2352.76,189.323 
  "/>
<polyline clip-path="url(#clip2700)" style="stroke:#000000; stroke-width:4; stroke-opacity:1; fill:none" points="
  140.517,1487.47 2352.76,1487.47 
  "/>
<polyline clip-path="url(#clip2700)" style="stroke:#000000; stroke-width:4; stroke-opacity:1; fill:none" points="
  140.517,1487.47 140.517,47.2441 
  "/>
<polyline clip-path="url(#clip2700)" style="stroke:#000000; stroke-width:4; stroke-opacity:1; fill:none" points="
  203.127,1487.47 203.127,1465.87 
  "/>
<polyline clip-path="url(#clip2700)" style="stroke:#000000; stroke-width:4; stroke-opacity:1; fill:none" points="
  550.964,1487.47 550.964,1465.87 
  "/>
<polyline clip-path="url(#clip2700)" style="stroke:#000000; stroke-width:4; stroke-opacity:1; fill:none" points="
  898.8,1487.47 898.8,1465.87 
  "/>
<polyline clip-path="url(#clip2700)" style="stroke:#000000; stroke-width:4; stroke-opacity:1; fill:none" points="
  1246.64,1487.47 1246.64,1465.87 
  "/>
<polyline clip-path="url(#clip2700)" style="stroke:#000000; stroke-width:4; stroke-opacity:1; fill:none" points="
  1594.47,1487.47 1594.47,1465.87 
  "/>
<polyline clip-path="url(#clip2700)" style="stroke:#000000; stroke-width:4; stroke-opacity:1; fill:none" points="
  1942.31,1487.47 1942.31,1465.87 
  "/>
<polyline clip-path="url(#clip2700)" style="stroke:#000000; stroke-width:4; stroke-opacity:1; fill:none" points="
  2290.15,1487.47 2290.15,1465.87 
  "/>
<polyline clip-path="url(#clip2700)" style="stroke:#000000; stroke-width:4; stroke-opacity:1; fill:none" points="
  140.517,1446.72 173.7,1446.72 
  "/>
<polyline clip-path="url(#clip2700)" style="stroke:#000000; stroke-width:4; stroke-opacity:1; fill:none" points="
  140.517,1027.59 173.7,1027.59 
  "/>
<polyline clip-path="url(#clip2700)" style="stroke:#000000; stroke-width:4; stroke-opacity:1; fill:none" points="
  140.517,608.456 173.7,608.456 
  "/>
<polyline clip-path="url(#clip2700)" style="stroke:#000000; stroke-width:4; stroke-opacity:1; fill:none" points="
  140.517,189.323 173.7,189.323 
  "/>
<g clip-path="url(#clip2700)">
<text style="fill:#000000; fill-opacity:1; font-family:Arial,Helvetica Neue,Helvetica,sans-serif; font-size:48px; text-anchor:middle;" transform="rotate(0, 203.127, 1541.47)" x="203.127" y="1541.47">-3</text>
</g>
<g clip-path="url(#clip2700)">
<text style="fill:#000000; fill-opacity:1; font-family:Arial,Helvetica Neue,Helvetica,sans-serif; font-size:48px; text-anchor:middle;" transform="rotate(0, 550.964, 1541.47)" x="550.964" y="1541.47">-2</text>
</g>
<g clip-path="url(#clip2700)">
<text style="fill:#000000; fill-opacity:1; font-family:Arial,Helvetica Neue,Helvetica,sans-serif; font-size:48px; text-anchor:middle;" transform="rotate(0, 898.8, 1541.47)" x="898.8" y="1541.47">-1</text>
</g>
<g clip-path="url(#clip2700)">
<text style="fill:#000000; fill-opacity:1; font-family:Arial,Helvetica Neue,Helvetica,sans-serif; font-size:48px; text-anchor:middle;" transform="rotate(0, 1246.64, 1541.47)" x="1246.64" y="1541.47">0</text>
</g>
<g clip-path="url(#clip2700)">
<text style="fill:#000000; fill-opacity:1; font-family:Arial,Helvetica Neue,Helvetica,sans-serif; font-size:48px; text-anchor:middle;" transform="rotate(0, 1594.47, 1541.47)" x="1594.47" y="1541.47">1</text>
</g>
<g clip-path="url(#clip2700)">
<text style="fill:#000000; fill-opacity:1; font-family:Arial,Helvetica Neue,Helvetica,sans-serif; font-size:48px; text-anchor:middle;" transform="rotate(0, 1942.31, 1541.47)" x="1942.31" y="1541.47">2</text>
</g>
<g clip-path="url(#clip2700)">
<text style="fill:#000000; fill-opacity:1; font-family:Arial,Helvetica Neue,Helvetica,sans-serif; font-size:48px; text-anchor:middle;" transform="rotate(0, 2290.15, 1541.47)" x="2290.15" y="1541.47">3</text>
</g>
<g clip-path="url(#clip2700)">
<text style="fill:#000000; fill-opacity:1; font-family:Arial,Helvetica Neue,Helvetica,sans-serif; font-size:48px; text-anchor:end;" transform="rotate(0, 116.517, 1464.22)" x="116.517" y="1464.22">0</text>
</g>
<g clip-path="url(#clip2700)">
<text style="fill:#000000; fill-opacity:1; font-family:Arial,Helvetica Neue,Helvetica,sans-serif; font-size:48px; text-anchor:end;" transform="rotate(0, 116.517, 1045.09)" x="116.517" y="1045.09">5</text>
</g>
<g clip-path="url(#clip2700)">
<text style="fill:#000000; fill-opacity:1; font-family:Arial,Helvetica Neue,Helvetica,sans-serif; font-size:48px; text-anchor:end;" transform="rotate(0, 116.517, 625.956)" x="116.517" y="625.956">10</text>
</g>
<g clip-path="url(#clip2700)">
<text style="fill:#000000; fill-opacity:1; font-family:Arial,Helvetica Neue,Helvetica,sans-serif; font-size:48px; text-anchor:end;" transform="rotate(0, 116.517, 206.823)" x="116.517" y="206.823">15</text>
</g>
<polyline clip-path="url(#clip2702)" style="stroke:#009af9; stroke-width:4; stroke-opacity:1; fill:none" points="
  203.127,1394.42 203.807,1394.4 204.487,1394.39 205.166,1394.41 205.846,1394.45 206.525,1394.51 207.205,1394.59 207.884,1394.7 208.564,1394.82 209.244,1394.97 
  209.923,1395.14 210.603,1395.33 211.282,1395.54 211.962,1395.77 212.642,1396.02 213.321,1396.3 214.001,1396.59 214.68,1396.91 215.36,1397.25 216.04,1397.61 
  216.719,1397.99 217.399,1398.4 218.078,1398.82 218.758,1399.26 219.437,1399.73 220.117,1400.21 220.797,1400.72 221.476,1401.24 222.156,1401.79 222.835,1402.36 
  223.515,1402.94 224.195,1403.55 224.874,1404.17 225.554,1404.82 226.233,1405.48 226.913,1406.16 227.593,1406.86 228.272,1407.58 228.952,1408.32 229.631,1409.07 
  230.311,1409.84 230.99,1410.63 231.67,1411.44 232.35,1412.26 233.029,1413.1 233.709,1413.96 234.388,1414.83 235.068,1415.72 235.748,1416.62 236.427,1417.54 
  237.107,1418.47 237.786,1419.42 238.466,1420.38 239.146,1421.35 239.825,1422.34 240.505,1423.34 241.184,1424.36 241.864,1425.38 242.544,1426.42 243.223,1427.47 
  243.903,1428.53 244.582,1429.6 245.262,1430.68 245.941,1431.77 246.621,1432.87 247.301,1433.98 247.98,1435.1 248.66,1436.22 249.339,1437.35 250.019,1438.49 
  250.699,1439.64 251.378,1440.8 252.058,1441.95 252.737,1443.12 253.417,1444.29 254.097,1445.46 254.776,1446.64 255.456,1445.62 256.135,1444.43 256.815,1443.24 
  257.494,1442.05 258.174,1440.86 258.854,1439.67 259.533,1438.47 260.213,1437.28 260.892,1436.08 261.572,1434.89 262.252,1433.7 262.931,1432.51 263.611,1431.32 
  264.29,1430.13 264.97,1428.95 265.65,1427.77 266.329,1426.6 267.009,1425.43 267.688,1424.26 268.368,1423.1 269.047,1421.95 269.727,1420.8 270.407,1419.66 
  271.086,1418.53 271.766,1417.41 272.445,1416.29 273.125,1415.18 273.805,1414.09 274.484,1413 275.164,1411.92 275.843,1410.85 276.523,1409.8 277.203,1408.76 
  277.882,1407.73 278.562,1406.71 279.241,1405.7 279.921,1404.71 280.6,1403.74 281.28,1402.77 281.96,1401.83 282.639,1400.89 283.319,1399.98 283.998,1399.08 
  284.678,1398.19 285.358,1397.33 286.037,1396.48 286.717,1395.65 287.396,1394.84 288.076,1394.04 288.756,1393.27 289.435,1392.51 290.115,1391.78 290.794,1391.06 
  291.474,1390.36 292.154,1389.69 292.833,1389.04 293.513,1388.41 294.192,1387.8 294.872,1387.21 295.551,1386.64 296.231,1386.1 296.911,1385.58 297.59,1385.09 
  298.27,1384.62 298.949,1384.17 299.629,1383.74 300.309,1383.34 300.988,1382.97 301.668,1382.62 302.347,1382.29 303.027,1381.99 303.707,1381.72 304.386,1381.47 
  305.066,1381.25 305.745,1381.05 306.425,1380.88 307.104,1380.74 307.784,1380.62 308.464,1380.53 309.143,1380.47 309.823,1380.43 310.502,1380.42 311.182,1380.44 
  311.862,1380.48 312.541,1380.55 313.221,1380.65 313.9,1380.78 314.58,1380.93 315.26,1381.11 315.939,1381.32 316.619,1381.55 317.298,1381.82 317.978,1382.11 
  318.657,1382.43 319.337,1382.77 320.017,1383.14 320.696,1383.54 321.376,1383.97 322.055,1384.42 322.735,1384.9 323.415,1385.41 324.094,1385.94 324.774,1386.5 
  325.453,1387.09 326.133,1387.7 326.813,1388.34 327.492,1389.01 328.172,1389.7 328.851,1390.42 329.531,1391.16 330.211,1391.92 330.89,1392.72 331.57,1393.53 
  332.249,1394.37 332.929,1395.24 333.608,1396.13 334.288,1397.04 334.968,1397.97 335.647,1398.93 336.327,1399.91 337.006,1400.92 337.686,1401.94 338.366,1402.99 
  339.045,1404.06 339.725,1405.15 340.404,1406.26 341.084,1407.39 341.764,1408.54 342.443,1409.71 343.123,1410.89 343.802,1412.1 344.482,1413.33 345.161,1414.57 
  345.841,1415.83 346.521,1417.1 347.2,1418.4 347.88,1419.7 348.559,1421.03 349.239,1422.37 349.919,1423.72 350.598,1425.08 351.278,1426.46 351.957,1427.86 
  352.637,1429.26 353.317,1430.68 353.996,1432.11 354.676,1433.54 355.355,1434.99 356.035,1436.45 356.714,1437.92 357.394,1439.39 358.074,1440.88 358.753,1442.37 
  359.433,1443.87 360.112,1445.37 360.792,1446.56 361.472,1445.05 362.151,1443.53 362.831,1442.01 363.51,1440.49 364.19,1438.96 364.87,1437.43 365.549,1435.9 
  366.229,1434.37 366.908,1432.84 367.588,1431.31 368.267,1429.78 368.947,1428.25 369.627,1426.72 370.306,1425.2 370.986,1423.68 371.665,1422.17 372.345,1420.66 
  373.025,1419.16 373.704,1417.66 374.384,1416.17 375.063,1414.69 375.743,1413.21 376.423,1411.75 377.102,1410.29 377.782,1408.85 378.461,1407.41 379.141,1405.99 
  379.821,1404.57 380.5,1403.17 381.18,1401.79 381.859,1400.42 382.539,1399.06 383.218,1397.71 383.898,1396.39 384.578,1395.07 385.257,1393.78 385.937,1392.5 
  386.616,1391.24 387.296,1390 387.976,1388.78 388.655,1387.57 389.335,1386.39 390.014,1385.23 390.694,1384.09 391.374,1382.97 392.053,1381.87 392.733,1380.8 
  393.412,1379.75 394.092,1378.72 394.771,1377.72 395.451,1376.74 396.131,1375.79 396.81,1374.86 397.49,1373.96 398.169,1373.09 398.849,1372.24 399.529,1371.42 
  400.208,1370.63 400.888,1369.87 401.567,1369.13 402.247,1368.43 402.927,1367.75 403.606,1367.11 404.286,1366.49 404.965,1365.91 405.645,1365.36 406.324,1364.84 
  407.004,1364.35 407.684,1363.89 408.363,1363.46 409.043,1363.07 409.722,1362.71 410.402,1362.39 411.082,1362.09 411.761,1361.83 412.441,1361.61 413.12,1361.41 
  413.8,1361.26 414.48,1361.13 415.159,1361.05 415.839,1360.99 416.518,1360.97 417.198,1360.99 417.877,1361.04 418.557,1361.13 419.237,1361.25 419.916,1361.41 
  420.596,1361.6 421.275,1361.83 421.955,1362.09 422.635,1362.39 423.314,1362.73 423.994,1363.1 424.673,1363.5 425.353,1363.94 426.033,1364.42 426.712,1364.93 
  427.392,1365.48 428.071,1366.06 428.751,1366.68 429.431,1367.33 430.11,1368.02 430.79,1368.74 431.469,1369.5 432.149,1370.29 432.828,1371.12 433.508,1371.97 
  434.188,1372.87 434.867,1373.79 435.547,1374.75 436.226,1375.74 436.906,1376.77 437.586,1377.82 438.265,1378.91 438.945,1380.03 439.624,1381.19 440.304,1382.37 
  440.984,1383.58 441.663,1384.82 442.343,1386.1 443.022,1387.4 443.702,1388.73 444.381,1390.09 445.061,1391.48 445.741,1392.89 446.42,1394.34 447.1,1395.81 
  447.779,1397.3 448.459,1398.82 449.139,1400.37 449.818,1401.94 450.498,1403.53 451.177,1405.15 451.857,1406.79 452.537,1408.46 453.216,1410.14 453.896,1411.85 
  454.575,1413.57 455.255,1415.32 455.934,1417.09 456.614,1418.87 457.294,1420.67 457.973,1422.49 458.653,1424.33 459.332,1426.18 460.012,1428.05 460.692,1429.93 
  461.371,1431.83 462.051,1433.73 462.73,1435.66 463.41,1437.59 464.09,1439.53 464.769,1441.49 465.449,1443.45 466.128,1445.42 466.808,1446.04 467.487,1444.06 
  468.167,1442.06 468.847,1440.07 469.526,1438.06 470.206,1436.06 470.885,1434.05 471.565,1432.03 472.245,1430.02 472.924,1428 473.604,1425.99 474.283,1423.98 
  474.963,1421.96 475.643,1419.96 476.322,1417.95 477.002,1415.95 477.681,1413.95 478.361,1411.96 479.041,1409.98 479.72,1408 480.4,1406.03 481.079,1404.07 
  481.759,1402.12 482.438,1400.19 483.118,1398.26 483.798,1396.34 484.477,1394.44 485.157,1392.56 485.836,1390.68 486.516,1388.83 487.196,1386.99 487.875,1385.17 
  488.555,1383.36 489.234,1381.58 489.914,1379.81 490.594,1378.07 491.273,1376.34 491.953,1374.64 492.632,1372.97 493.312,1371.31 493.991,1369.68 494.671,1368.07 
  495.351,1366.5 496.03,1364.94 496.71,1363.42 497.389,1361.92 498.069,1360.45 498.749,1359.01 499.428,1357.6 500.108,1356.23 500.787,1354.88 501.467,1353.57 
  502.147,1352.29 502.826,1351.04 503.506,1349.82 504.185,1348.65 504.865,1347.5 505.544,1346.4 506.224,1345.32 506.904,1344.29 507.583,1343.3 508.263,1342.34 
  508.942,1341.42 509.622,1340.54 510.302,1339.7 510.981,1338.9 511.661,1338.14 512.34,1337.43 513.02,1336.75 513.7,1336.12 514.379,1335.53 515.059,1334.98 
  515.738,1334.47 516.418,1334.01 517.097,1333.6 517.777,1333.23 518.457,1332.9 519.136,1332.62 519.816,1332.38 520.495,1332.19 521.175,1332.04 521.855,1331.94 
  522.534,1331.89 523.214,1331.89 523.893,1331.93 524.573,1332.02 525.253,1332.15 525.932,1332.33 526.612,1332.56 527.291,1332.84 527.971,1333.16 528.651,1333.54 
  529.33,1333.96 530.01,1334.42 530.689,1334.94 531.369,1335.5 532.048,1336.11 532.728,1336.77 533.408,1337.48 534.087,1338.23 534.767,1339.03 535.446,1339.88 
  536.126,1340.77 536.806,1341.71 537.485,1342.7 538.165,1343.74 538.844,1344.82 539.524,1345.94 540.204,1347.12 540.883,1348.34 541.563,1349.6 542.242,1350.91 
  542.922,1352.26 543.601,1353.66 544.281,1355.1 544.961,1356.58 545.64,1358.11 546.32,1359.68 546.999,1361.29 547.679,1362.94 548.359,1364.64 549.038,1366.37 
  549.718,1368.15 550.397,1369.96 551.077,1371.82 551.757,1373.71 552.436,1375.64 553.116,1377.61 553.795,1379.61 554.475,1381.65 555.154,1383.73 555.834,1385.84 
  556.514,1387.98 557.193,1390.16 557.873,1392.37 558.552,1394.61 559.232,1396.88 559.912,1399.18 560.591,1401.51 561.271,1403.87 561.95,1406.26 562.63,1408.67 
  563.31,1411.11 563.989,1413.58 564.669,1416.07 565.348,1418.58 566.028,1421.12 566.707,1423.68 567.387,1426.26 568.067,1428.86 568.746,1431.47 569.426,1434.11 
  570.105,1436.76 570.785,1439.43 571.465,1442.11 572.144,1444.81 572.824,1445.93 573.503,1443.2 574.183,1440.47 574.863,1437.73 575.542,1434.98 576.222,1432.22 
  576.901,1429.45 577.581,1426.68 578.261,1423.91 578.94,1421.13 579.62,1418.35 580.299,1415.57 580.979,1412.79 581.658,1410 582.338,1407.23 583.018,1404.45 
  583.697,1401.68 584.377,1398.91 585.056,1396.15 585.736,1393.4 586.416,1390.66 587.095,1387.93 587.775,1385.2 588.454,1382.5 589.134,1379.8 589.814,1377.12 
  590.493,1374.45 591.173,1371.8 591.852,1369.17 592.532,1366.56 593.211,1363.97 593.891,1361.4 594.571,1358.85 595.25,1356.32 595.93,1353.82 596.609,1351.35 
  597.289,1348.9 597.969,1346.48 598.648,1344.09 599.328,1341.73 600.007,1339.4 600.687,1337.1 601.367,1334.84 602.046,1332.61 602.726,1330.41 603.405,1328.25 
  604.085,1326.13 604.764,1324.05 605.444,1322.01 606.124,1320.01 606.803,1318.05 607.483,1316.13 608.162,1314.25 608.842,1312.42 609.522,1310.64 610.201,1308.9 
  610.881,1307.2 611.56,1305.56 612.24,1303.96 612.92,1302.42 613.599,1300.92 614.279,1299.48 614.958,1298.09 615.638,1296.75 616.317,1295.47 616.997,1294.24 
  617.677,1293.06 618.356,1291.94 619.036,1290.88 619.715,1289.88 620.395,1288.93 621.075,1288.04 621.754,1287.22 622.434,1286.45 623.113,1285.74 623.793,1285.1 
  624.473,1284.51 625.152,1283.99 625.832,1283.53 626.511,1283.14 627.191,1282.81 627.871,1282.54 628.55,1282.34 629.23,1282.2 629.909,1282.13 630.589,1282.12 
  631.268,1282.19 631.948,1282.31 632.628,1282.51 633.307,1282.77 633.987,1283.1 634.666,1283.49 635.346,1283.96 636.026,1284.49 636.705,1285.09 637.385,1285.76 
  638.064,1286.5 638.744,1287.3 639.424,1288.18 640.103,1289.12 640.783,1290.13 641.462,1291.21 642.142,1292.36 642.821,1293.57 643.501,1294.86 644.181,1296.21 
  644.86,1297.63 645.54,1299.12 646.219,1300.67 646.899,1302.29 647.579,1303.98 648.258,1305.74 648.938,1307.56 649.617,1309.45 650.297,1311.41 650.977,1313.43 
  651.656,1315.51 652.336,1317.66 653.015,1319.87 653.695,1322.15 654.374,1324.49 655.054,1326.89 655.734,1329.35 656.413,1331.88 657.093,1334.46 657.772,1337.11 
  658.452,1339.81 659.132,1342.57 659.811,1345.39 660.491,1348.27 661.17,1351.2 661.85,1354.19 662.53,1357.23 663.209,1360.33 663.889,1363.48 664.568,1366.68 
  665.248,1369.93 665.927,1373.23 666.607,1376.59 667.287,1379.98 667.966,1383.43 668.646,1386.92 669.325,1390.46 670.005,1394.04 670.685,1397.66 671.364,1401.33 
  672.044,1405.03 672.723,1408.78 673.403,1412.56 674.083,1416.38 674.762,1420.23 675.442,1424.12 676.121,1428.05 676.801,1432 677.481,1435.98 678.16,1440 
  678.84,1444.04 679.519,1445.34 680.199,1441.25 680.878,1437.13 681.558,1432.99 682.238,1428.83 682.917,1424.66 683.597,1420.46 684.276,1416.25 684.956,1412.02 
  685.636,1407.78 686.315,1403.53 686.995,1399.27 687.674,1395 688.354,1390.72 689.034,1386.44 689.713,1382.15 690.393,1377.86 691.072,1373.57 691.752,1369.28 
  692.431,1364.99 693.111,1360.71 693.791,1356.43 694.47,1352.16 695.15,1347.9 695.829,1343.65 696.509,1339.41 697.189,1335.19 697.868,1330.98 698.548,1326.79 
  699.227,1322.62 699.907,1318.47 700.587,1314.34 701.266,1310.23 701.946,1306.15 702.625,1302.1 703.305,1298.08 703.984,1294.09 704.664,1290.13 705.344,1286.2 
  706.023,1282.31 706.703,1278.46 707.382,1274.65 708.062,1270.88 708.742,1267.15 709.421,1263.46 710.101,1259.82 710.78,1256.23 711.46,1252.69 712.14,1249.2 
  712.819,1245.76 713.499,1242.38 714.178,1239.05 714.858,1235.78 715.538,1232.57 716.217,1229.42 716.897,1226.33 717.576,1223.31 718.256,1220.35 718.935,1217.46 
  719.615,1214.63 720.295,1211.88 720.974,1209.2 721.654,1206.59 722.333,1204.05 723.013,1201.6 723.693,1199.21 724.372,1196.91 725.052,1194.69 725.731,1192.55 
  726.411,1190.5 727.091,1188.52 727.77,1186.64 728.45,1184.84 729.129,1183.13 729.809,1181.51 730.488,1179.98 731.168,1178.54 731.848,1177.2 732.527,1175.95 
  733.207,1174.8 733.886,1173.75 734.566,1172.79 735.246,1171.93 735.925,1171.18 736.605,1170.52 737.284,1169.97 737.964,1169.52 738.644,1169.18 739.323,1168.94 
  740.003,1168.81 740.682,1168.79 741.362,1168.87 742.041,1169.06 742.721,1169.37 743.401,1169.78 744.08,1170.31 744.76,1170.95 745.439,1171.7 746.119,1172.57 
  746.799,1173.55 747.478,1174.65 748.158,1175.86 748.837,1177.19 749.517,1178.64 750.197,1180.2 750.876,1181.88 751.556,1183.68 752.235,1185.6 752.915,1187.64 
  753.594,1189.8 754.274,1192.07 754.954,1194.47 755.633,1196.99 756.313,1199.63 756.992,1202.39 757.672,1205.27 758.352,1208.28 759.031,1211.4 759.711,1214.65 
  760.39,1218.01 761.07,1221.5 761.75,1225.11 762.429,1228.84 763.109,1232.7 763.788,1236.67 764.468,1240.77 765.148,1244.98 765.827,1249.32 766.507,1253.78 
  767.186,1258.35 767.866,1263.05 768.545,1267.86 769.225,1272.8 769.905,1277.85 770.584,1283.03 771.264,1288.31 771.943,1293.72 772.623,1299.24 773.303,1304.88 
  773.982,1310.64 774.662,1316.51 775.341,1322.49 776.021,1328.58 776.701,1334.79 777.38,1341.11 778.06,1347.54 778.739,1354.08 779.419,1360.74 780.098,1367.49 
  780.778,1374.36 781.458,1381.33 782.137,1388.41 782.817,1395.59 783.496,1402.88 784.176,1410.26 784.856,1417.75 785.535,1425.34 786.215,1433.02 786.894,1440.81 
  787.574,1444.75 788.254,1436.78 788.933,1428.71 789.613,1420.55 790.292,1412.3 790.972,1403.95 791.651,1395.52 792.331,1387.01 793.011,1378.4 793.69,1369.72 
  794.37,1360.95 795.049,1352.1 795.729,1343.17 796.409,1334.16 797.088,1325.08 797.768,1315.92 798.447,1306.69 799.127,1297.39 799.807,1288.02 800.486,1278.58 
  801.166,1269.08 801.845,1259.51 802.525,1249.88 803.204,1240.18 803.884,1230.43 804.564,1220.62 805.243,1210.76 805.923,1200.84 806.602,1190.87 807.282,1180.85 
  807.962,1170.79 808.641,1160.67 809.321,1150.51 810,1140.32 810.68,1130.08 811.36,1119.8 812.039,1109.49 812.719,1099.14 813.398,1088.76 814.078,1078.35 
  814.758,1067.91 815.437,1057.45 816.117,1046.96 816.796,1036.45 817.476,1025.92 818.155,1015.37 818.835,1004.81 819.515,994.229 820.194,983.641 820.874,973.042 
  821.553,962.437 822.233,951.826 822.913,941.212 823.592,930.597 824.272,919.984 824.951,909.373 825.631,898.768 826.311,888.17 826.99,877.582 827.67,867.005 
  828.349,856.442 829.029,845.896 829.708,835.367 830.388,824.858 831.068,814.372 831.747,803.909 832.427,793.474 833.106,783.067 833.786,772.69 834.466,762.347 
  835.145,752.038 835.825,741.766 836.504,731.533 837.184,721.341 837.864,711.192 838.543,701.088 839.223,691.031 839.902,681.023 840.582,671.066 841.261,661.163 
  841.941,651.315 842.621,641.523 843.3,631.791 843.98,622.12 844.659,612.512 845.339,602.968 846.019,593.492 846.698,584.084 847.378,574.746 848.057,565.481 
  848.737,556.29 849.417,547.175 850.096,538.138 850.776,529.18 851.455,520.304 852.135,511.511 852.814,502.803 853.494,494.182 854.174,485.649 854.853,477.205 
  855.533,468.854 856.212,460.595 856.892,452.432 857.572,444.365 858.251,436.396 858.931,428.526 859.61,420.758 860.29,413.092 860.97,405.53 861.649,398.073 
  862.329,390.724 863.008,383.483 863.688,376.351 864.368,369.33 865.047,362.422 865.727,355.628 866.406,348.948 867.086,342.385 867.765,335.939 868.445,329.611 
  869.125,323.403 869.804,317.317 870.484,311.352 871.163,305.51 871.843,299.792 872.523,294.2 873.202,288.734 873.882,283.394 874.561,278.183 875.241,273.101 
  875.921,268.149 876.6,263.328 877.28,258.638 877.959,254.08 878.639,249.656 879.318,245.365 879.998,241.209 880.678,237.189 881.357,233.304 882.037,229.556 
  882.716,225.945 883.396,222.471 884.076,219.136 884.755,215.94 885.435,212.882 886.114,209.965 886.794,207.187 887.474,204.55 888.153,202.054 888.833,199.698 
  889.512,197.484 890.192,195.412 890.871,193.482 891.551,191.694 892.231,190.048 892.91,188.544 893.59,187.183 894.269,185.964 894.949,184.889 895.629,183.956 
  896.308,183.165 896.988,182.517 897.667,182.012 898.347,181.649 899.027,181.429 899.706,181.351 900.386,181.415 901.065,181.621 901.745,181.968 902.424,182.457 
  903.104,183.087 903.784,183.857 904.463,184.768 905.143,185.819 905.822,187.01 906.502,188.34 907.182,189.809 907.861,191.416 908.541,193.161 909.22,195.043 
  909.9,197.061 910.58,199.216 911.259,201.507 911.939,203.932 912.618,206.492 913.298,209.185 913.978,212.011 914.657,214.969 915.337,218.059 916.016,221.279 
  916.696,224.629 917.375,228.108 918.055,231.716 918.735,235.45 919.414,239.312 920.094,243.298 920.773,247.41 921.453,251.645 922.133,256.002 922.812,260.482 
  923.492,265.082 924.171,269.802 924.851,274.641 925.531,279.597 926.21,284.67 926.89,289.858 927.569,295.161 928.249,300.576 928.928,306.104 929.608,311.743 
  930.288,317.491 930.967,323.349 931.647,329.313 932.326,335.383 933.006,341.559 933.686,347.837 934.365,354.219 935.045,360.701 935.724,367.283 936.404,373.963 
  937.084,380.741 937.763,387.615 938.443,394.582 939.122,401.643 939.802,408.796 940.481,416.039 941.161,423.371 941.841,430.791 942.52,438.297 943.2,445.888 
  943.879,453.562 944.559,461.318 945.239,469.154 945.918,477.07 946.598,485.063 947.277,493.132 947.957,501.276 948.637,509.493 949.316,517.782 949.996,526.141 
  950.675,534.569 951.355,543.064 952.034,551.625 952.714,560.25 953.394,568.938 954.073,577.687 954.753,586.496 955.432,595.363 956.112,604.287 956.792,613.265 
  957.471,622.298 958.151,631.383 958.83,640.518 959.51,649.702 960.19,658.934 960.869,668.212 961.549,677.535 962.228,686.9 962.908,696.307 963.588,705.754 
  964.267,715.24 964.947,724.762 965.626,734.319 966.306,743.911 966.985,753.535 967.665,763.189 968.345,772.873 969.024,782.585 969.704,792.323 970.383,802.086 
  971.063,811.872 971.743,821.681 972.422,831.509 973.102,841.356 973.781,851.221 974.461,861.102 975.141,870.997 975.82,880.905 976.5,890.825 977.179,900.754 
  977.859,910.693 978.538,920.638 979.218,930.59 979.898,940.545 980.577,950.504 981.257,960.464 981.936,970.424 982.616,980.383 983.296,990.339 983.975,1000.29 
  984.655,1010.24 985.334,1020.18 986.014,1030.11 986.694,1040.03 987.373,1049.94 988.053,1059.84 988.732,1069.73 989.412,1079.6 990.091,1089.45 990.771,1099.29 
  991.451,1109.11 992.13,1118.91 992.81,1128.69 993.489,1138.44 994.169,1148.17 994.849,1157.88 995.528,1167.56 996.208,1177.21 996.887,1186.83 997.567,1196.42 
  998.247,1205.99 998.926,1215.52 999.606,1225.01 1000.29,1234.47 1000.96,1243.9 1001.64,1253.29 1002.32,1262.64 1003,1271.95 1003.68,1281.22 1004.36,1290.45 
  1005.04,1299.63 1005.72,1308.78 1006.4,1317.87 1007.08,1326.92 1007.76,1335.93 1008.44,1344.89 1009.12,1353.79 1009.8,1362.65 1010.48,1371.46 1011.16,1380.21 
  1011.84,1388.91 1012.52,1397.56 1013.2,1406.15 1013.88,1414.69 1014.56,1423.16 1015.24,1431.59 1015.92,1439.95 1016.6,1445.19 1017.28,1436.95 1017.95,1428.78 
  1018.63,1420.66 1019.31,1412.61 1019.99,1404.62 1020.67,1396.7 1021.35,1388.84 1022.03,1381.05 1022.71,1373.33 1023.39,1365.68 1024.07,1358.1 1024.75,1350.58 
  1025.43,1343.14 1026.11,1335.78 1026.79,1328.48 1027.47,1321.26 1028.15,1314.11 1028.83,1307.04 1029.51,1300.04 1030.19,1293.13 1030.87,1286.28 1031.55,1279.52 
  1032.23,1272.84 1032.91,1266.23 1033.59,1259.71 1034.26,1253.27 1034.94,1246.91 1035.62,1240.63 1036.3,1234.44 1036.98,1228.33 1037.66,1222.3 1038.34,1216.36 
  1039.02,1210.51 1039.7,1204.74 1040.38,1199.06 1041.06,1193.47 1041.74,1187.97 1042.42,1182.55 1043.1,1177.23 1043.78,1172 1044.46,1166.85 1045.14,1161.8 
  1045.82,1156.84 1046.5,1151.98 1047.18,1147.2 1047.86,1142.53 1048.54,1137.94 1049.22,1133.45 1049.9,1129.06 1050.57,1124.76 1051.25,1120.56 1051.93,1116.46 
  1052.61,1112.45 1053.29,1108.54 1053.97,1104.73 1054.65,1101.02 1055.33,1097.41 1056.01,1093.9 1056.69,1090.49 1057.37,1087.18 1058.05,1083.98 1058.73,1080.87 
  1059.41,1077.87 1060.09,1074.97 1060.77,1072.17 1061.45,1069.48 1062.13,1066.89 1062.81,1064.4 1063.49,1062.02 1064.17,1059.75 1064.85,1057.58 1065.53,1055.52 
  1066.21,1053.56 1066.89,1051.71 1067.56,1049.97 1068.24,1048.34 1068.92,1046.81 1069.6,1045.39 1070.28,1044.08 1070.96,1042.88 1071.64,1041.79 1072.32,1040.81 
  1073,1039.93 1073.68,1039.17 1074.36,1038.52 1075.04,1037.98 1075.72,1037.54 1076.4,1037.22 1077.08,1037.02 1077.76,1036.92 1078.44,1036.93 1079.12,1037.06 
  1079.8,1037.3 1080.48,1037.65 1081.16,1038.11 1081.84,1038.69 1082.52,1039.38 1083.2,1040.18 1083.87,1041.1 1084.55,1042.13 1085.23,1043.27 1085.91,1044.53 
  1086.59,1045.9 1087.27,1047.38 1087.95,1048.98 1088.63,1050.69 1089.31,1052.52 1089.99,1054.46 1090.67,1056.51 1091.35,1058.68 1092.03,1060.97 1092.71,1063.36 
  1093.39,1065.88 1094.07,1068.5 1094.75,1071.24 1095.43,1074.1 1096.11,1077.07 1096.79,1080.15 1097.47,1083.35 1098.15,1086.66 1098.83,1090.08 1099.51,1093.62 
  1100.18,1097.27 1100.86,1101.04 1101.54,1104.92 1102.22,1108.91 1102.9,1113.02 1103.58,1117.24 1104.26,1121.57 1104.94,1126.01 1105.62,1130.56 1106.3,1135.23 
  1106.98,1140.01 1107.66,1144.9 1108.34,1149.9 1109.02,1155.01 1109.7,1160.24 1110.38,1165.57 1111.06,1171.01 1111.74,1176.56 1112.42,1182.22 1113.1,1187.99 
  1113.78,1193.87 1114.46,1199.85 1115.14,1205.94 1115.82,1212.14 1116.5,1218.45 1117.17,1224.86 1117.85,1231.37 1118.53,1237.99 1119.21,1244.71 1119.89,1251.54 
  1120.57,1258.47 1121.25,1265.5 1121.93,1272.64 1122.61,1279.87 1123.29,1287.21 1123.97,1294.64 1124.65,1302.17 1125.33,1309.8 1126.01,1317.53 1126.69,1325.36 
  1127.37,1333.28 1128.05,1341.29 1128.73,1349.4 1129.41,1357.6 1130.09,1365.9 1130.77,1374.29 1131.45,1382.76 1132.13,1391.33 1132.81,1399.99 1133.48,1408.73 
  1134.16,1417.56 1134.84,1426.47 1135.52,1435.47 1136.2,1444.56 1136.88,1439.72 1137.56,1430.47 1138.24,1421.15 1138.92,1411.74 1139.6,1402.25 1140.28,1392.69 
  1140.96,1383.05 1141.64,1373.34 1142.32,1363.56 1143,1353.7 1143.68,1343.77 1144.36,1333.78 1145.04,1323.71 1145.72,1313.58 1146.4,1303.38 1147.08,1293.12 
  1147.76,1282.8 1148.44,1272.42 1149.12,1261.97 1149.79,1251.47 1150.47,1240.91 1151.15,1230.3 1151.83,1219.63 1152.51,1208.91 1153.19,1198.14 1153.87,1187.32 
  1154.55,1176.45 1155.23,1165.54 1155.91,1154.58 1156.59,1143.58 1157.27,1132.54 1157.95,1121.46 1158.63,1110.34 1159.31,1099.19 1159.99,1088 1160.67,1076.78 
  1161.35,1065.53 1162.03,1054.26 1162.71,1042.95 1163.39,1031.62 1164.07,1020.27 1164.75,1008.89 1165.43,997.496 1166.11,986.083 1166.78,974.655 1167.46,963.213 
  1168.14,951.76 1168.82,940.296 1169.5,928.824 1170.18,917.347 1170.86,905.865 1171.54,894.381 1172.22,882.898 1172.9,871.416 1173.58,859.938 1174.26,848.467 
  1174.94,837.003 1175.62,825.55 1176.3,814.109 1176.98,802.682 1177.66,791.272 1178.34,779.88 1179.02,768.509 1179.7,757.161 1180.38,745.838 1181.06,734.542 
  1181.74,723.275 1182.42,712.039 1183.09,700.837 1183.77,689.67 1184.45,678.542 1185.13,667.453 1185.81,656.406 1186.49,645.404 1187.17,634.448 1187.85,623.541 
  1188.53,612.685 1189.21,601.882 1189.89,591.134 1190.57,580.443 1191.25,569.812 1191.93,559.243 1192.61,548.738 1193.29,538.299 1193.97,527.928 1194.65,517.628 
  1195.33,507.4 1196.01,497.248 1196.69,487.172 1197.37,477.175 1198.05,467.26 1198.73,457.429 1199.4,447.682 1200.08,438.024 1200.76,428.456 1201.44,418.979 
  1202.12,409.597 1202.8,400.31 1203.48,391.122 1204.16,382.035 1204.84,373.05 1205.52,364.169 1206.2,355.395 1206.88,346.729 1207.56,338.174 1208.24,329.731 
  1208.92,321.403 1209.6,313.191 1210.28,305.098 1210.96,297.125 1211.64,289.275 1212.32,281.549 1213,273.948 1213.68,266.476 1214.36,259.134 1215.04,251.923 
  1215.72,244.845 1216.39,237.903 1217.07,231.098 1217.75,224.431 1218.43,217.905 1219.11,211.521 1219.79,205.28 1220.47,199.185 1221.15,193.237 1221.83,187.438 
  1222.51,181.788 1223.19,176.29 1223.87,170.946 1224.55,165.756 1225.23,160.722 1225.91,155.846 1226.59,151.129 1227.27,146.572 1227.95,142.176 1228.63,137.944 
  1229.31,133.875 1229.99,129.972 1230.67,126.236 1231.35,122.667 1232.03,119.268 1232.7,116.038 1233.38,112.979 1234.06,110.093 1234.74,107.379 1235.42,104.84 
  1236.1,102.475 1236.78,100.286 1237.46,98.2742 1238.14,96.4396 1238.82,94.7833 1239.5,93.3059 1240.18,92.0083 1240.86,90.8909 1241.54,89.9545 1242.22,89.1997 
  1242.9,88.6268 1243.58,88.2365 1244.26,88.0292 1244.94,88.0053 1245.62,88.1652 1246.3,88.5092 1246.98,89.0375 1247.66,89.7504 1248.34,90.6482 1249.01,91.7309 
  1249.69,92.9987 1250.37,94.4517 1251.05,96.0899 1251.73,97.9132 1252.41,99.9215 1253.09,102.115 1253.77,104.493 1254.45,107.056 1255.13,109.803 1255.81,112.735 
  1256.49,115.85 1257.17,119.148 1257.85,122.63 1258.53,126.294 1259.21,130.14 1259.89,134.168 1260.57,138.376 1261.25,142.765 1261.93,147.333 1262.61,152.08 
  1263.29,157.005 1263.97,162.107 1264.65,167.385 1265.33,172.839 1266,178.467 1266.68,184.268 1267.36,190.242 1268.04,196.387 1268.72,202.703 1269.4,209.187 
  1270.08,215.839 1270.76,222.657 1271.44,229.64 1272.12,236.788 1272.8,244.097 1273.48,251.567 1274.16,259.197 1274.84,266.985 1275.52,274.928 1276.2,283.027 
  1276.88,291.278 1277.56,299.681 1278.24,308.233 1278.92,316.933 1279.6,325.779 1280.28,334.769 1280.96,343.901 1281.64,353.173 1282.31,362.583 1282.99,372.13 
  1283.67,381.81 1284.35,391.623 1285.03,401.566 1285.71,411.636 1286.39,421.831 1287.07,432.15 1287.75,442.59 1288.43,453.148 1289.11,463.823 1289.79,474.611 
  1290.47,485.511 1291.15,496.52 1291.83,507.635 1292.51,518.855 1293.19,530.175 1293.87,541.595 1294.55,553.111 1295.23,564.72 1295.91,576.42 1296.59,588.209 
  1297.27,600.083 1297.95,612.039 1298.62,624.076 1299.3,636.19 1299.98,648.378 1300.66,660.638 1301.34,672.966 1302.02,685.36 1302.7,697.817 1303.38,710.333 
  1304.06,722.907 1304.74,735.534 1305.42,748.212 1306.1,760.939 1306.78,773.71 1307.46,786.523 1308.14,799.374 1308.82,812.262 1309.5,825.182 1310.18,838.131 
  1310.86,851.107 1311.54,864.106 1312.22,877.125 1312.9,890.161 1313.58,903.211 1314.26,916.272 1314.94,929.34 1315.61,942.412 1316.29,955.486 1316.97,968.557 
  1317.65,981.623 1318.33,994.681 1319.01,1007.73 1319.69,1020.76 1320.37,1033.77 1321.05,1046.76 1321.73,1059.73 1322.41,1072.67 1323.09,1085.58 1323.77,1098.45 
  1324.45,1111.29 1325.13,1124.09 1325.81,1136.84 1326.49,1149.55 1327.17,1162.21 1327.85,1174.81 1328.53,1187.36 1329.21,1199.85 1329.89,1212.28 1330.57,1224.64 
  1331.25,1236.93 1331.92,1249.15 1332.6,1261.3 1333.28,1273.37 1333.96,1285.36 1334.64,1297.27 1335.32,1309.08 1336,1320.81 1336.68,1332.45 1337.36,1343.99 
  1338.04,1355.44 1338.72,1366.78 1339.4,1378.02 1340.08,1389.15 1340.76,1400.17 1341.44,1411.08 1342.12,1421.88 1342.8,1432.56 1343.48,1443.11 1344.16,1439.89 
  1344.84,1429.58 1345.52,1419.4 1346.2,1409.35 1346.88,1399.44 1347.56,1389.65 1348.23,1380.01 1348.91,1370.51 1349.59,1361.15 1350.27,1351.93 1350.95,1342.86 
  1351.63,1333.95 1352.31,1325.18 1352.99,1316.57 1353.67,1308.11 1354.35,1299.81 1355.03,1291.67 1355.71,1283.7 1356.39,1275.89 1357.07,1268.24 1357.75,1260.77 
  1358.43,1253.46 1359.11,1246.32 1359.79,1239.36 1360.47,1232.58 1361.15,1225.97 1361.83,1219.53 1362.51,1213.28 1363.19,1207.21 1363.87,1201.32 1364.55,1195.62 
  1365.22,1190.1 1365.9,1184.77 1366.58,1179.63 1367.26,1174.67 1367.94,1169.91 1368.62,1165.34 1369.3,1160.96 1369.98,1156.77 1370.66,1152.78 1371.34,1148.98 
  1372.02,1145.38 1372.7,1141.98 1373.38,1138.77 1374.06,1135.76 1374.74,1132.95 1375.42,1130.34 1376.1,1127.93 1376.78,1125.73 1377.46,1123.72 1378.14,1121.91 
  1378.82,1120.3 1379.5,1118.9 1380.18,1117.69 1380.86,1116.69 1381.53,1115.89 1382.21,1115.3 1382.89,1114.9 1383.57,1114.7 1384.25,1114.71 1384.93,1114.92 
  1385.61,1115.33 1386.29,1115.94 1386.97,1116.75 1387.65,1117.76 1388.33,1118.97 1389.01,1120.37 1389.69,1121.98 1390.37,1123.78 1391.05,1125.78 1391.73,1127.98 
  1392.41,1130.37 1393.09,1132.95 1393.77,1135.73 1394.45,1138.7 1395.13,1141.86 1395.81,1145.21 1396.49,1148.75 1397.17,1152.47 1397.84,1156.38 1398.52,1160.48 
  1399.2,1164.76 1399.88,1169.23 1400.56,1173.87 1401.24,1178.69 1401.92,1183.69 1402.6,1188.87 1403.28,1194.22 1403.96,1199.74 1404.64,1205.44 1405.32,1211.3 
  1406,1217.33 1406.68,1223.52 1407.36,1229.88 1408.04,1236.4 1408.72,1243.08 1409.4,1249.91 1410.08,1256.9 1410.76,1264.05 1411.44,1271.34 1412.12,1278.78 
  1412.8,1286.37 1413.48,1294.1 1414.16,1301.97 1414.83,1309.98 1415.51,1318.13 1416.19,1326.41 1416.87,1334.82 1417.55,1343.36 1418.23,1352.02 1418.91,1360.81 
  1419.59,1369.72 1420.27,1378.75 1420.95,1387.89 1421.63,1397.15 1422.31,1406.52 1422.99,1415.99 1423.67,1425.56 1424.35,1435.24 1425.03,1445.02 1425.71,1438.55 
  1426.39,1428.59 1427.07,1418.54 1427.75,1408.4 1428.43,1398.18 1429.11,1387.88 1429.79,1377.5 1430.47,1367.04 1431.14,1356.52 1431.82,1345.93 1432.5,1335.27 
  1433.18,1324.55 1433.86,1313.78 1434.54,1302.95 1435.22,1292.06 1435.9,1281.13 1436.58,1270.15 1437.26,1259.13 1437.94,1248.08 1438.62,1236.98 1439.3,1225.85 
  1439.98,1214.7 1440.66,1203.52 1441.34,1192.31 1442.02,1181.09 1442.7,1169.85 1443.38,1158.6 1444.06,1147.33 1444.74,1136.07 1445.42,1124.8 1446.1,1113.52 
  1446.78,1102.26 1447.45,1091 1448.13,1079.75 1448.81,1068.51 1449.49,1057.29 1450.17,1046.09 1450.85,1034.92 1451.53,1023.77 1452.21,1012.64 1452.89,1001.56 
  1453.57,990.505 1454.25,979.493 1454.93,968.522 1455.61,957.598 1456.29,946.721 1456.97,935.897 1457.65,925.127 1458.33,914.415 1459.01,903.764 1459.69,893.177 
  1460.37,882.657 1461.05,872.207 1461.73,861.83 1462.41,851.528 1463.09,841.305 1463.77,831.164 1464.44,821.107 1465.12,811.137 1465.8,801.257 1466.48,791.471 
  1467.16,781.779 1467.84,772.186 1468.52,762.694 1469.2,753.305 1469.88,744.022 1470.56,734.848 1471.24,725.785 1471.92,716.836 1472.6,708.003 1473.28,699.288 
  1473.96,690.695 1474.64,682.225 1475.32,673.88 1476,665.663 1476.68,657.576 1477.36,649.622 1478.04,641.801 1478.72,634.118 1479.4,626.572 1480.08,619.168 
  1480.75,611.905 1481.43,604.788 1482.11,597.816 1482.79,590.992 1483.47,584.319 1484.15,577.797 1484.83,571.428 1485.51,565.214 1486.19,559.157 1486.87,553.257 
  1487.55,547.518 1488.23,541.939 1488.91,536.522 1489.59,531.27 1490.27,526.182 1490.95,521.26 1491.63,516.506 1492.31,511.921 1492.99,507.505 1493.67,503.26 
  1494.35,499.187 1495.03,495.286 1495.71,491.559 1496.39,488.006 1497.06,484.628 1497.74,481.426 1498.42,478.4 1499.1,475.552 1499.78,472.881 1500.46,470.388 
  1501.14,468.074 1501.82,465.939 1502.5,463.983 1503.18,462.207 1503.86,460.611 1504.54,459.195 1505.22,457.959 1505.9,456.904 1506.58,456.028 1507.26,455.334 
  1507.94,454.819 1508.62,454.484 1509.3,454.33 1509.98,454.355 1510.66,454.559 1511.34,454.943 1512.02,455.505 1512.7,456.245 1513.38,457.164 1514.05,458.259 
  1514.73,459.531 1515.41,460.979 1516.09,462.602 1516.77,464.399 1517.45,466.371 1518.13,468.515 1518.81,470.831 1519.49,473.318 1520.17,475.975 1520.85,478.801 
  1521.53,481.795 1522.21,484.956 1522.89,488.282 1523.57,491.772 1524.25,495.426 1524.93,499.242 1525.61,503.217 1526.29,507.352 1526.97,511.645 1527.65,516.093 
  1528.33,520.696 1529.01,525.452 1529.69,530.359 1530.36,535.416 1531.04,540.621 1531.72,545.972 1532.4,551.468 1533.08,557.106 1533.76,562.886 1534.44,568.804 
  1535.12,574.859 1535.8,581.049 1536.48,587.372 1537.16,593.827 1537.84,600.41 1538.52,607.12 1539.2,613.955 1539.88,620.913 1540.56,627.991 1541.24,635.187 
  1541.92,642.499 1542.6,649.925 1543.28,657.463 1543.96,665.109 1544.64,672.863 1545.32,680.721 1546,688.68 1546.67,696.74 1547.35,704.896 1548.03,713.148 
  1548.71,721.491 1549.39,729.924 1550.07,738.445 1550.75,747.05 1551.43,755.737 1552.11,764.504 1552.79,773.347 1553.47,782.266 1554.15,791.255 1554.83,800.314 
  1555.51,809.44 1556.19,818.629 1556.87,827.879 1557.55,837.188 1558.23,846.553 1558.91,855.971 1559.59,865.44 1560.27,874.956 1560.95,884.517 1561.63,894.121 
  1562.31,903.764 1562.99,913.444 1563.66,923.159 1564.34,932.905 1565.02,942.68 1565.7,952.481 1566.38,962.305 1567.06,972.15 1567.74,982.013 1568.42,991.892 
  1569.1,1001.78 1569.78,1011.68 1570.46,1021.59 1571.14,1031.5 1571.82,1041.42 1572.5,1051.33 1573.18,1061.24 1573.86,1071.15 1574.54,1081.04 1575.22,1090.93 
  1575.9,1100.8 1576.58,1110.65 1577.26,1120.49 1577.94,1130.3 1578.62,1140.09 1579.3,1149.86 1579.97,1159.59 1580.65,1169.3 1581.33,1178.96 1582.01,1188.6 
  1582.69,1198.19 1583.37,1207.74 1584.05,1217.25 1584.73,1226.72 1585.41,1236.13 1586.09,1245.5 1586.77,1254.81 1587.45,1264.07 1588.13,1273.26 1588.81,1282.41 
  1589.49,1291.48 1590.17,1300.5 1590.85,1309.45 1591.53,1318.33 1592.21,1327.14 1592.89,1335.88 1593.57,1344.55 1594.25,1353.14 1594.93,1361.65 1595.61,1370.08 
  1596.28,1378.43 1596.96,1386.7 1597.64,1394.88 1598.32,1402.97 1599,1410.98 1599.68,1418.9 1600.36,1426.72 1601.04,1434.45 1601.72,1442.09 1602.4,1443.81 
  1603.08,1436.37 1603.76,1429.03 1604.44,1421.79 1605.12,1414.65 1605.8,1407.62 1606.48,1400.69 1607.16,1393.86 1607.84,1387.15 1608.52,1380.54 1609.2,1374.04 
  1609.88,1367.66 1610.56,1361.38 1611.24,1355.22 1611.92,1349.17 1612.6,1343.24 1613.27,1337.43 1613.95,1331.72 1614.63,1326.14 1615.31,1320.68 1615.99,1315.33 
  1616.67,1310.11 1617.35,1305 1618.03,1300.02 1618.71,1295.15 1619.39,1290.41 1620.07,1285.8 1620.75,1281.3 1621.43,1276.93 1622.11,1272.68 1622.79,1268.55 
  1623.47,1264.55 1624.15,1260.68 1624.83,1256.93 1625.51,1253.3 1626.19,1249.8 1626.87,1246.42 1627.55,1243.17 1628.23,1240.05 1628.91,1237.05 1629.58,1234.17 
  1630.26,1231.42 1630.94,1228.79 1631.62,1226.29 1632.3,1223.91 1632.98,1221.66 1633.66,1219.52 1634.34,1217.52 1635.02,1215.63 1635.7,1213.87 1636.38,1212.23 
  1637.06,1210.71 1637.74,1209.31 1638.42,1208.03 1639.1,1206.87 1639.78,1205.82 1640.46,1204.9 1641.14,1204.09 1641.82,1203.4 1642.5,1202.83 1643.18,1202.37 
  1643.86,1202.02 1644.54,1201.79 1645.22,1201.67 1645.89,1201.66 1646.57,1201.76 1647.25,1201.97 1647.93,1202.29 1648.61,1202.72 1649.29,1203.25 1649.97,1203.88 
  1650.65,1204.62 1651.33,1205.46 1652.01,1206.41 1652.69,1207.45 1653.37,1208.59 1654.05,1209.83 1654.73,1211.16 1655.41,1212.59 1656.09,1214.11 1656.77,1215.72 
  1657.45,1217.42 1658.13,1219.21 1658.81,1221.09 1659.49,1223.06 1660.17,1225.1 1660.85,1227.23 1661.53,1229.45 1662.21,1231.74 1662.88,1234.11 1663.56,1236.55 
  1664.24,1239.07 1664.92,1241.67 1665.6,1244.33 1666.28,1247.06 1666.96,1249.87 1667.64,1252.73 1668.32,1255.67 1669,1258.66 1669.68,1261.72 1670.36,1264.84 
  1671.04,1268.01 1671.72,1271.24 1672.4,1274.52 1673.08,1277.86 1673.76,1281.25 1674.44,1284.68 1675.12,1288.16 1675.8,1291.69 1676.48,1295.26 1677.16,1298.87 
  1677.84,1302.52 1678.52,1306.21 1679.19,1309.94 1679.87,1313.7 1680.55,1317.49 1681.23,1321.31 1681.91,1325.16 1682.59,1329.04 1683.27,1332.94 1683.95,1336.87 
  1684.63,1340.81 1685.31,1344.78 1685.99,1348.77 1686.67,1352.77 1687.35,1356.78 1688.03,1360.81 1688.71,1364.85 1689.39,1368.89 1690.07,1372.95 1690.75,1377.01 
  1691.43,1381.07 1692.11,1385.13 1692.79,1389.2 1693.47,1393.26 1694.15,1397.32 1694.83,1401.38 1695.5,1405.43 1696.18,1409.47 1696.86,1413.5 1697.54,1417.52 
  1698.22,1421.52 1698.9,1425.51 1699.58,1429.49 1700.26,1433.44 1700.94,1437.38 1701.62,1441.3 1702.3,1445.19 1702.98,1444.38 1703.66,1440.54 1704.34,1436.72 
  1705.02,1432.93 1705.7,1429.17 1706.38,1425.44 1707.06,1421.75 1707.74,1418.08 1708.42,1414.46 1709.1,1410.87 1709.78,1407.31 1710.46,1403.8 1711.14,1400.33 
  1711.82,1396.89 1712.49,1393.51 1713.17,1390.16 1713.85,1386.86 1714.53,1383.61 1715.21,1380.4 1715.89,1377.24 1716.57,1374.13 1717.25,1371.07 1717.93,1368.06 
  1718.61,1365.11 1719.29,1362.2 1719.97,1359.35 1720.65,1356.56 1721.33,1353.82 1722.01,1351.14 1722.69,1348.52 1723.37,1345.95 1724.05,1343.44 1724.73,1341 
  1725.41,1338.61 1726.09,1336.28 1726.77,1334.02 1727.45,1331.82 1728.13,1329.68 1728.8,1327.6 1729.48,1325.59 1730.16,1323.64 1730.84,1321.76 1731.52,1319.94 
  1732.2,1318.18 1732.88,1316.5 1733.56,1314.88 1734.24,1313.32 1734.92,1311.83 1735.6,1310.41 1736.28,1309.06 1736.96,1307.77 1737.64,1306.55 1738.32,1305.4 
  1739,1304.32 1739.68,1303.31 1740.36,1302.36 1741.04,1301.48 1741.72,1300.67 1742.4,1299.92 1743.08,1299.25 1743.76,1298.64 1744.44,1298.1 1745.11,1297.63 
  1745.79,1297.22 1746.47,1296.89 1747.15,1296.62 1747.83,1296.41 1748.51,1296.27 1749.19,1296.2 1749.87,1296.19 1750.55,1296.25 1751.23,1296.38 1751.91,1296.57 
  1752.59,1296.82 1753.27,1297.14 1753.95,1297.52 1754.63,1297.96 1755.31,1298.47 1755.99,1299.03 1756.67,1299.66 1757.35,1300.35 1758.03,1301.1 1758.71,1301.9 
  1759.39,1302.77 1760.07,1303.69 1760.75,1304.68 1761.43,1305.71 1762.1,1306.81 1762.78,1307.96 1763.46,1309.16 1764.14,1310.42 1764.82,1311.73 1765.5,1313.09 
  1766.18,1314.5 1766.86,1315.96 1767.54,1317.47 1768.22,1319.03 1768.9,1320.64 1769.58,1322.3 1770.26,1323.99 1770.94,1325.74 1771.62,1327.53 1772.3,1329.36 
  1772.98,1331.23 1773.66,1333.14 1774.34,1335.1 1775.02,1337.09 1775.7,1339.12 1776.38,1341.18 1777.06,1343.28 1777.74,1345.42 1778.41,1347.59 1779.09,1349.79 
  1779.77,1352.02 1780.45,1354.29 1781.13,1356.58 1781.81,1358.9 1782.49,1361.24 1783.17,1363.61 1783.85,1366.01 1784.53,1368.43 1785.21,1370.87 1785.89,1373.34 
  1786.57,1375.82 1787.25,1378.32 1787.93,1380.84 1788.61,1383.38 1789.29,1385.93 1789.97,1388.49 1790.65,1391.07 1791.33,1393.66 1792.01,1396.26 1792.69,1398.87 
  1793.37,1401.49 1794.05,1404.12 1794.72,1406.75 1795.4,1409.39 1796.08,1412.03 1796.76,1414.67 1797.44,1417.32 1798.12,1419.97 1798.8,1422.61 1799.48,1425.25 
  1800.16,1427.89 1800.84,1430.53 1801.52,1433.16 1802.2,1435.79 1802.88,1438.4 1803.56,1441.01 1804.24,1443.61 1804.92,1446.2 1805.6,1444.66 1806.28,1442.1 
  1806.96,1439.54 1807.64,1437.01 1808.32,1434.49 1809,1431.98 1809.68,1429.5 1810.36,1427.03 1811.04,1424.58 1811.71,1422.15 1812.39,1419.74 1813.07,1417.36 
  1813.75,1415 1814.43,1412.66 1815.11,1410.35 1815.79,1408.06 1816.47,1405.8 1817.15,1403.57 1817.83,1401.37 1818.51,1399.19 1819.19,1397.05 1819.87,1394.94 
  1820.55,1392.85 1821.23,1390.81 1821.91,1388.79 1822.59,1386.81 1823.27,1384.86 1823.95,1382.94 1824.63,1381.07 1825.31,1379.23 1825.99,1377.42 1826.67,1375.66 
  1827.35,1373.93 1828.02,1372.24 1828.7,1370.59 1829.38,1368.98 1830.06,1367.41 1830.74,1365.88 1831.42,1364.39 1832.1,1362.94 1832.78,1361.54 1833.46,1360.18 
  1834.14,1358.86 1834.82,1357.58 1835.5,1356.35 1836.18,1355.16 1836.86,1354.02 1837.54,1352.92 1838.22,1351.87 1838.9,1350.86 1839.58,1349.9 1840.26,1348.98 
  1840.94,1348.11 1841.62,1347.28 1842.3,1346.5 1842.98,1345.77 1843.66,1345.08 1844.33,1344.44 1845.01,1343.84 1845.69,1343.29 1846.37,1342.79 1847.05,1342.34 
  1847.73,1341.93 1848.41,1341.57 1849.09,1341.25 1849.77,1340.99 1850.45,1340.76 1851.13,1340.59 1851.81,1340.46 1852.49,1340.37 1853.17,1340.34 1853.85,1340.34 
  1854.53,1340.4 1855.21,1340.49 1855.89,1340.64 1856.57,1340.83 1857.25,1341.06 1857.93,1341.34 1858.61,1341.66 1859.29,1342.02 1859.97,1342.43 1860.65,1342.88 
  1861.32,1343.37 1862,1343.91 1862.68,1344.49 1863.36,1345.11 1864.04,1345.77 1864.72,1346.47 1865.4,1347.21 1866.08,1347.99 1866.76,1348.8 1867.44,1349.66 
  1868.12,1350.56 1868.8,1351.49 1869.48,1352.46 1870.16,1353.46 1870.84,1354.51 1871.52,1355.58 1872.2,1356.69 1872.88,1357.84 1873.56,1359.02 1874.24,1360.23 
  1874.92,1361.47 1875.6,1362.75 1876.28,1364.06 1876.96,1365.39 1877.63,1366.76 1878.31,1368.15 1878.99,1369.57 1879.67,1371.02 1880.35,1372.5 1881.03,1374 
  1881.71,1375.53 1882.39,1377.08 1883.07,1378.65 1883.75,1380.25 1884.43,1381.87 1885.11,1383.51 1885.79,1385.17 1886.47,1386.85 1887.15,1388.55 1887.83,1390.27 
  1888.51,1392.01 1889.19,1393.76 1889.87,1395.53 1890.55,1397.31 1891.23,1399.11 1891.91,1400.92 1892.59,1402.74 1893.27,1404.57 1893.94,1406.42 1894.62,1408.27 
  1895.3,1410.14 1895.98,1412.01 1896.66,1413.89 1897.34,1415.78 1898.02,1417.67 1898.7,1419.57 1899.38,1421.47 1900.06,1423.37 1900.74,1425.28 1901.42,1427.19 
  1902.1,1429.1 1902.78,1431.01 1903.46,1432.92 1904.14,1434.83 1904.82,1436.74 1905.5,1438.64 1906.18,1440.54 1906.86,1442.43 1907.54,1444.32 1908.22,1446.21 
  1908.9,1445.36 1909.58,1443.49 1910.26,1441.63 1910.93,1439.78 1911.61,1437.94 1912.29,1436.11 1912.97,1434.29 1913.65,1432.49 1914.33,1430.69 1915.01,1428.91 
  1915.69,1427.15 1916.37,1425.4 1917.05,1423.66 1917.73,1421.95 1918.41,1420.24 1919.09,1418.56 1919.77,1416.9 1920.45,1415.25 1921.13,1413.62 1921.81,1412.02 
  1922.49,1410.43 1923.17,1408.87 1923.85,1407.33 1924.53,1405.81 1925.21,1404.31 1925.89,1402.84 1926.57,1401.39 1927.24,1399.96 1927.92,1398.57 1928.6,1397.19 
  1929.28,1395.85 1929.96,1394.53 1930.64,1393.23 1931.32,1391.97 1932,1390.73 1932.68,1389.52 1933.36,1388.34 1934.04,1387.19 1934.72,1386.07 1935.4,1384.98 
  1936.08,1383.91 1936.76,1382.88 1937.44,1381.88 1938.12,1380.92 1938.8,1379.98 1939.48,1379.07 1940.16,1378.2 1940.84,1377.36 1941.52,1376.55 1942.2,1375.78 
  1942.88,1375.04 1943.55,1374.33 1944.23,1373.65 1944.91,1373.01 1945.59,1372.4 1946.27,1371.83 1946.95,1371.28 1947.63,1370.78 1948.31,1370.31 1948.99,1369.87 
  1949.67,1369.46 1950.35,1369.09 1951.03,1368.76 1951.71,1368.46 1952.39,1368.19 1953.07,1367.96 1953.75,1367.76 1954.43,1367.59 1955.11,1367.46 1955.79,1367.37 
  1956.47,1367.31 1957.15,1367.28 1957.83,1367.29 1958.51,1367.33 1959.19,1367.4 1959.87,1367.51 1960.54,1367.65 1961.22,1367.82 1961.9,1368.02 1962.58,1368.26 
  1963.26,1368.53 1963.94,1368.84 1964.62,1369.17 1965.3,1369.54 1965.98,1369.94 1966.66,1370.37 1967.34,1370.83 1968.02,1371.32 1968.7,1371.84 1969.38,1372.39 
  1970.06,1372.97 1970.74,1373.58 1971.42,1374.22 1972.1,1374.89 1972.78,1375.58 1973.46,1376.31 1974.14,1377.06 1974.82,1377.83 1975.5,1378.64 1976.18,1379.47 
  1976.85,1380.32 1977.53,1381.2 1978.21,1382.11 1978.89,1383.03 1979.57,1383.99 1980.25,1384.96 1980.93,1385.96 1981.61,1386.98 1982.29,1388.03 1982.97,1389.09 
  1983.65,1390.17 1984.33,1391.28 1985.01,1392.4 1985.69,1393.55 1986.37,1394.71 1987.05,1395.89 1987.73,1397.08 1988.41,1398.3 1989.09,1399.53 1989.77,1400.77 
  1990.45,1402.03 1991.13,1403.31 1991.81,1404.6 1992.49,1405.9 1993.16,1407.22 1993.84,1408.54 1994.52,1409.88 1995.2,1411.23 1995.88,1412.59 1996.56,1413.96 
  1997.24,1415.34 1997.92,1416.73 1998.6,1418.12 1999.28,1419.53 1999.96,1420.94 2000.64,1422.35 2001.32,1423.77 2002,1425.2 2002.68,1426.63 2003.36,1428.06 
  2004.04,1429.5 2004.72,1430.93 2005.4,1432.37 2006.08,1433.81 2006.76,1435.26 2007.44,1436.7 2008.12,1438.14 2008.8,1439.58 2009.48,1441.01 2010.15,1442.45 
  2010.83,1443.88 2011.51,1445.31 2012.19,1446.71 2012.87,1445.3 2013.55,1443.88 2014.23,1442.48 2014.91,1441.08 2015.59,1439.68 2016.27,1438.3 2016.95,1436.92 
  2017.63,1435.55 2018.31,1434.2 2018.99,1432.85 2019.67,1431.51 2020.35,1430.18 2021.03,1428.87 2021.71,1427.56 2022.39,1426.27 2023.07,1425 2023.75,1423.73 
  2024.43,1422.48 2025.11,1421.25 2025.79,1420.03 2026.46,1418.82 2027.14,1417.63 2027.82,1416.46 2028.5,1415.3 2029.18,1414.17 2029.86,1413.05 2030.54,1411.94 
  2031.22,1410.86 2031.9,1409.79 2032.58,1408.75 2033.26,1407.72 2033.94,1406.71 2034.62,1405.73 2035.3,1404.76 2035.98,1403.82 2036.66,1402.9 2037.34,1401.99 
  2038.02,1401.12 2038.7,1400.26 2039.38,1399.42 2040.06,1398.61 2040.74,1397.82 2041.42,1397.06 2042.1,1396.32 2042.77,1395.6 2043.45,1394.9 2044.13,1394.24 
  2044.81,1393.59 2045.49,1392.97 2046.17,1392.37 2046.85,1391.8 2047.53,1391.26 2048.21,1390.74 2048.89,1390.24 2049.57,1389.77 2050.25,1389.33 2050.93,1388.91 
  2051.61,1388.52 2052.29,1388.15 2052.97,1387.81 2053.65,1387.5 2054.33,1387.21 2055.01,1386.95 2055.69,1386.71 2056.37,1386.5 2057.05,1386.32 2057.73,1386.16 
  2058.41,1386.03 2059.09,1385.93 2059.76,1385.85 2060.44,1385.8 2061.12,1385.77 2061.8,1385.77 2062.48,1385.79 2063.16,1385.84 2063.84,1385.92 2064.52,1386.02 
  2065.2,1386.14 2065.88,1386.3 2066.56,1386.47 2067.24,1386.67 2067.92,1386.9 2068.6,1387.15 2069.28,1387.43 2069.96,1387.73 2070.64,1388.05 2071.32,1388.39 
  2072,1388.76 2072.68,1389.16 2073.36,1389.57 2074.04,1390.01 2074.72,1390.48 2075.4,1390.96 2076.07,1391.47 2076.75,1391.99 2077.43,1392.54 2078.11,1393.11 
  2078.79,1393.7 2079.47,1394.31 2080.15,1394.94 2080.83,1395.59 2081.51,1396.26 2082.19,1396.95 2082.87,1397.66 2083.55,1398.39 2084.23,1399.13 2084.91,1399.9 
  2085.59,1400.67 2086.27,1401.47 2086.95,1402.28 2087.63,1403.11 2088.31,1403.96 2088.99,1404.82 2089.67,1405.69 2090.35,1406.58 2091.03,1407.48 2091.71,1408.4 
  2092.38,1409.33 2093.06,1410.27 2093.74,1411.23 2094.42,1412.19 2095.1,1413.17 2095.78,1414.16 2096.46,1415.16 2097.14,1416.17 2097.82,1417.19 2098.5,1418.22 
  2099.18,1419.25 2099.86,1420.3 2100.54,1421.35 2101.22,1422.41 2101.9,1423.48 2102.58,1424.55 2103.26,1425.63 2103.94,1426.71 2104.62,1427.8 2105.3,1428.9 
  2105.98,1429.99 2106.66,1431.09 2107.34,1432.2 2108.02,1433.3 2108.7,1434.41 2109.37,1435.52 2110.05,1436.63 2110.73,1437.75 2111.41,1438.86 2112.09,1439.97 
  2112.77,1441.08 2113.45,1442.19 2114.13,1443.3 2114.81,1444.41 2115.49,1445.51 2116.17,1446.61 2116.85,1445.74 2117.53,1444.64 2118.21,1443.56 2118.89,1442.47 
  2119.57,1441.39 2120.25,1440.32 2120.93,1439.26 2121.61,1438.2 2122.29,1437.14 2122.97,1436.1 2123.65,1435.06 2124.33,1434.03 2125.01,1433.01 2125.68,1432 
  2126.36,1431 2127.04,1430.01 2127.72,1429.03 2128.4,1428.05 2129.08,1427.09 2129.76,1426.15 2130.44,1425.21 2131.12,1424.28 2131.8,1423.37 2132.48,1422.47 
  2133.16,1421.58 2133.84,1420.71 2134.52,1419.85 2135.2,1419.01 2135.88,1418.18 2136.56,1417.36 2137.24,1416.56 2137.92,1415.77 2138.6,1415 2139.28,1414.25 
  2139.96,1413.51 2140.64,1412.79 2141.32,1412.08 2141.99,1411.39 2142.67,1410.72 2143.35,1410.07 2144.03,1409.43 2144.71,1408.81 2145.39,1408.21 2146.07,1407.63 
  2146.75,1407.06 2147.43,1406.52 2148.11,1405.99 2148.79,1405.48 2149.47,1404.99 2150.15,1404.52 2150.83,1404.07 2151.51,1403.64 2152.19,1403.23 2152.87,1402.83 
  2153.55,1402.46 2154.23,1402.11 2154.91,1401.77 2155.59,1401.46 2156.27,1401.17 2156.95,1400.89 2157.63,1400.64 2158.31,1400.41 2158.98,1400.2 2159.66,1400 
  2160.34,1399.83 2161.02,1399.68 2161.7,1399.55 2162.38,1399.44 2163.06,1399.35 2163.74,1399.28 2164.42,1399.23 2165.1,1399.2 2165.78,1399.19 2166.46,1399.2 
  2167.14,1399.23 2167.82,1399.28 2168.5,1399.34 2169.18,1399.43 2169.86,1399.54 2170.54,1399.67 2171.22,1399.82 2171.9,1399.99 2172.58,1400.17 2173.26,1400.38 
  2173.94,1400.6 2174.62,1400.84 2175.29,1401.11 2175.97,1401.38 2176.65,1401.68 2177.33,1402 2178.01,1402.33 2178.69,1402.68 2179.37,1403.05 2180.05,1403.44 
  2180.73,1403.84 2181.41,1404.26 2182.09,1404.7 2182.77,1405.15 2183.45,1405.62 2184.13,1406.1 2184.81,1406.6 2185.49,1407.12 2186.17,1407.65 2186.85,1408.19 
  2187.53,1408.75 2188.21,1409.33 2188.89,1409.91 2189.57,1410.52 2190.25,1411.13 2190.93,1411.76 2191.6,1412.4 2192.28,1413.05 2192.96,1413.72 2193.64,1414.39 
  2194.32,1415.08 2195,1415.78 2195.68,1416.49 2196.36,1417.21 2197.04,1417.94 2197.72,1418.68 2198.4,1419.43 2199.08,1420.19 2199.76,1420.96 2200.44,1421.74 
  2201.12,1422.52 2201.8,1423.31 2202.48,1424.11 2203.16,1424.92 2203.84,1425.73 2204.52,1426.55 2205.2,1427.38 2205.88,1428.21 2206.56,1429.05 2207.24,1429.89 
  2207.92,1430.73 2208.59,1431.58 2209.27,1432.44 2209.95,1433.3 2210.63,1434.16 2211.31,1435.02 2211.99,1435.88 2212.67,1436.75 2213.35,1437.62 2214.03,1438.49 
  2214.71,1439.36 2215.39,1440.23 2216.07,1441.1 2216.75,1441.97 2217.43,1442.84 2218.11,1443.71 2218.79,1444.57 2219.47,1445.44 2220.15,1446.3 2220.83,1446.28 
  2221.51,1445.42 2222.19,1444.57 2222.87,1443.72 2223.55,1442.87 2224.23,1442.03 2224.9,1441.19 2225.58,1440.35 2226.26,1439.53 2226.94,1438.7 2227.62,1437.89 
  2228.3,1437.08 2228.98,1436.27 2229.66,1435.47 2230.34,1434.68 2231.02,1433.9 2231.7,1433.13 2232.38,1432.36 2233.06,1431.6 2233.74,1430.85 2234.42,1430.11 
  2235.1,1429.38 2235.78,1428.66 2236.46,1427.94 2237.14,1427.24 2237.82,1426.55 2238.5,1425.87 2239.18,1425.2 2239.86,1424.54 2240.54,1423.89 2241.21,1423.25 
  2241.89,1422.63 2242.57,1422.02 2243.25,1421.42 2243.93,1420.83 2244.61,1420.25 2245.29,1419.69 2245.97,1419.14 2246.65,1418.6 2247.33,1418.08 2248.01,1417.57 
  2248.69,1417.08 2249.37,1416.59 2250.05,1416.13 2250.73,1415.67 2251.41,1415.24 2252.09,1414.81 2252.77,1414.4 2253.45,1414.01 2254.13,1413.63 2254.81,1413.26 
  2255.49,1412.91 2256.17,1412.58 2256.85,1412.26 2257.53,1411.95 2258.2,1411.67 2258.88,1411.39 2259.56,1411.14 2260.24,1410.9 2260.92,1410.67 2261.6,1410.46 
  2262.28,1410.27 2262.96,1410.09 2263.64,1409.93 2264.32,1409.78 2265,1409.65 2265.68,1409.53 2266.36,1409.44 2267.04,1409.35 2267.72,1409.29 2268.4,1409.24 
  2269.08,1409.2 2269.76,1409.18 2270.44,1409.18 2271.12,1409.19 2271.8,1409.22 2272.48,1409.26 2273.16,1409.32 2273.84,1409.4 2274.51,1409.49 2275.19,1409.59 
  2275.87,1409.71 2276.55,1409.85 2277.23,1410 2277.91,1410.17 2278.59,1410.35 2279.27,1410.54 2279.95,1410.75 2280.63,1410.98 2281.31,1411.22 2281.99,1411.47 
  2282.67,1411.74 2283.35,1412.02 2284.03,1412.31 2284.71,1412.62 2285.39,1412.94 2286.07,1413.28 2286.75,1413.62 2287.43,1413.98 2288.11,1414.36 2288.79,1414.74 
  2289.47,1415.14 2290.15,1415.55 
  "/>
<polygon clip-path="url(#clip2700)" points="
1989.93,251.724 2280.76,251.724 2280.76,130.764 1989.93,130.764 
  " fill="#ffffff" fill-rule="evenodd" fill-opacity="1"/>
<polyline clip-path="url(#clip2700)" style="stroke:#000000; stroke-width:4; stroke-opacity:1; fill:none" points="
  1989.93,251.724 2280.76,251.724 2280.76,130.764 1989.93,130.764 1989.93,251.724 
  "/>
<polyline clip-path="url(#clip2700)" style="stroke:#009af9; stroke-width:4; stroke-opacity:1; fill:none" points="
  2013.93,191.244 2157.93,191.244 
  "/>
<g clip-path="url(#clip2700)">
<text style="fill:#000000; fill-opacity:1; font-family:Arial,Helvetica Neue,Helvetica,sans-serif; font-size:48px; text-anchor:start;" transform="rotate(0, 2181.93, 208.744)" x="2181.93" y="208.744">y1</text>
</g>
</svg>
