<?xml version="1.0" encoding="utf-8" standalone="no"?>
<!DOCTYPE svg PUBLIC "-//W3C//DTD SVG 1.1//EN"
  "http://www.w3.org/Graphics/SVG/1.1/DTD/svg11.dtd">
<!-- Created with matplotlib (https://matplotlib.org/) -->
<svg height="345.6pt" version="1.1" viewBox="0 0 460.8 345.6" width="460.8pt" xmlns="http://www.w3.org/2000/svg" xmlns:xlink="http://www.w3.org/1999/xlink">
 <defs>
  <style type="text/css">
*{stroke-linecap:butt;stroke-linejoin:round;}
  </style>
 </defs>
 <g id="figure_1">
  <g id="patch_1">
   <path d="M 0 345.6 
L 460.8 345.6 
L 460.8 0 
L 0 0 
z
" style="fill:#ffffff;"/>
  </g>
  <g id="axes_1">
   <g id="patch_2">
    <path d="M 57.6 307.584 
L 414.72 307.584 
L 414.72 41.472 
L 57.6 41.472 
z
" style="fill:#ffffff;"/>
   </g>
   <g id="matplotlib.axis_1">
    <g id="xtick_1">
     <g id="line2d_1">
      <defs>
       <path d="M 0 0 
L 0 3.5 
" id="m7ef62c2473" style="stroke:#000000;stroke-width:0.8;"/>
      </defs>
      <g>
       <use style="stroke:#000000;stroke-width:0.8;" x="73.832727" xlink:href="#m7ef62c2473" y="307.584"/>
      </g>
     </g>
     <g id="text_1">
      <!-- −3 -->
      <defs>
       <path d="M 10.59375 35.5 
L 73.1875 35.5 
L 73.1875 27.203125 
L 10.59375 27.203125 
z
" id="DejaVuSans-8722"/>
       <path d="M 40.578125 39.3125 
Q 47.65625 37.796875 51.625 33 
Q 55.609375 28.21875 55.609375 21.1875 
Q 55.609375 10.40625 48.1875 4.484375 
Q 40.765625 -1.421875 27.09375 -1.421875 
Q 22.515625 -1.421875 17.65625 -0.515625 
Q 12.796875 0.390625 7.625 2.203125 
L 7.625 11.71875 
Q 11.71875 9.328125 16.59375 8.109375 
Q 21.484375 6.890625 26.8125 6.890625 
Q 36.078125 6.890625 40.9375 10.546875 
Q 45.796875 14.203125 45.796875 21.1875 
Q 45.796875 27.640625 41.28125 31.265625 
Q 36.765625 34.90625 28.71875 34.90625 
L 20.21875 34.90625 
L 20.21875 43.015625 
L 29.109375 43.015625 
Q 36.375 43.015625 40.234375 45.921875 
Q 44.09375 48.828125 44.09375 54.296875 
Q 44.09375 59.90625 40.109375 62.90625 
Q 36.140625 65.921875 28.71875 65.921875 
Q 24.65625 65.921875 20.015625 65.03125 
Q 15.375 64.15625 9.8125 62.3125 
L 9.8125 71.09375 
Q 15.4375 72.65625 20.34375 73.4375 
Q 25.25 74.21875 29.59375 74.21875 
Q 40.828125 74.21875 47.359375 69.109375 
Q 53.90625 64.015625 53.90625 55.328125 
Q 53.90625 49.265625 50.4375 45.09375 
Q 46.96875 40.921875 40.578125 39.3125 
z
" id="DejaVuSans-51"/>
      </defs>
      <g transform="translate(66.461634 322.182437)scale(0.1 -0.1)">
       <use xlink:href="#DejaVuSans-8722"/>
       <use x="83.789062" xlink:href="#DejaVuSans-51"/>
      </g>
     </g>
    </g>
    <g id="xtick_2">
     <g id="line2d_2">
      <g>
       <use style="stroke:#000000;stroke-width:0.8;" x="127.941818" xlink:href="#m7ef62c2473" y="307.584"/>
      </g>
     </g>
     <g id="text_2">
      <!-- −2 -->
      <defs>
       <path d="M 19.1875 8.296875 
L 53.609375 8.296875 
L 53.609375 0 
L 7.328125 0 
L 7.328125 8.296875 
Q 12.9375 14.109375 22.625 23.890625 
Q 32.328125 33.6875 34.8125 36.53125 
Q 39.546875 41.84375 41.421875 45.53125 
Q 43.3125 49.21875 43.3125 52.78125 
Q 43.3125 58.59375 39.234375 62.25 
Q 35.15625 65.921875 28.609375 65.921875 
Q 23.96875 65.921875 18.8125 64.3125 
Q 13.671875 62.703125 7.8125 59.421875 
L 7.8125 69.390625 
Q 13.765625 71.78125 18.9375 73 
Q 24.125 74.21875 28.421875 74.21875 
Q 39.75 74.21875 46.484375 68.546875 
Q 53.21875 62.890625 53.21875 53.421875 
Q 53.21875 48.921875 51.53125 44.890625 
Q 49.859375 40.875 45.40625 35.40625 
Q 44.1875 33.984375 37.640625 27.21875 
Q 31.109375 20.453125 19.1875 8.296875 
z
" id="DejaVuSans-50"/>
      </defs>
      <g transform="translate(120.570724 322.182437)scale(0.1 -0.1)">
       <use xlink:href="#DejaVuSans-8722"/>
       <use x="83.789062" xlink:href="#DejaVuSans-50"/>
      </g>
     </g>
    </g>
    <g id="xtick_3">
     <g id="line2d_3">
      <g>
       <use style="stroke:#000000;stroke-width:0.8;" x="182.050909" xlink:href="#m7ef62c2473" y="307.584"/>
      </g>
     </g>
     <g id="text_3">
      <!-- −1 -->
      <defs>
       <path d="M 12.40625 8.296875 
L 28.515625 8.296875 
L 28.515625 63.921875 
L 10.984375 60.40625 
L 10.984375 69.390625 
L 28.421875 72.90625 
L 38.28125 72.90625 
L 38.28125 8.296875 
L 54.390625 8.296875 
L 54.390625 0 
L 12.40625 0 
z
" id="DejaVuSans-49"/>
      </defs>
      <g transform="translate(174.679815 322.182437)scale(0.1 -0.1)">
       <use xlink:href="#DejaVuSans-8722"/>
       <use x="83.789062" xlink:href="#DejaVuSans-49"/>
      </g>
     </g>
    </g>
    <g id="xtick_4">
     <g id="line2d_4">
      <g>
       <use style="stroke:#000000;stroke-width:0.8;" x="236.16" xlink:href="#m7ef62c2473" y="307.584"/>
      </g>
     </g>
     <g id="text_4">
      <!-- 0 -->
      <defs>
       <path d="M 31.78125 66.40625 
Q 24.171875 66.40625 20.328125 58.90625 
Q 16.5 51.421875 16.5 36.375 
Q 16.5 21.390625 20.328125 13.890625 
Q 24.171875 6.390625 31.78125 6.390625 
Q 39.453125 6.390625 43.28125 13.890625 
Q 47.125 21.390625 47.125 36.375 
Q 47.125 51.421875 43.28125 58.90625 
Q 39.453125 66.40625 31.78125 66.40625 
z
M 31.78125 74.21875 
Q 44.046875 74.21875 50.515625 64.515625 
Q 56.984375 54.828125 56.984375 36.375 
Q 56.984375 17.96875 50.515625 8.265625 
Q 44.046875 -1.421875 31.78125 -1.421875 
Q 19.53125 -1.421875 13.0625 8.265625 
Q 6.59375 17.96875 6.59375 36.375 
Q 6.59375 54.828125 13.0625 64.515625 
Q 19.53125 74.21875 31.78125 74.21875 
z
" id="DejaVuSans-48"/>
      </defs>
      <g transform="translate(232.97875 322.182437)scale(0.1 -0.1)">
       <use xlink:href="#DejaVuSans-48"/>
      </g>
     </g>
    </g>
    <g id="xtick_5">
     <g id="line2d_5">
      <g>
       <use style="stroke:#000000;stroke-width:0.8;" x="290.269091" xlink:href="#m7ef62c2473" y="307.584"/>
      </g>
     </g>
     <g id="text_5">
      <!-- 1 -->
      <g transform="translate(287.087841 322.182437)scale(0.1 -0.1)">
       <use xlink:href="#DejaVuSans-49"/>
      </g>
     </g>
    </g>
    <g id="xtick_6">
     <g id="line2d_6">
      <g>
       <use style="stroke:#000000;stroke-width:0.8;" x="344.378182" xlink:href="#m7ef62c2473" y="307.584"/>
      </g>
     </g>
     <g id="text_6">
      <!-- 2 -->
      <g transform="translate(341.196932 322.182437)scale(0.1 -0.1)">
       <use xlink:href="#DejaVuSans-50"/>
      </g>
     </g>
    </g>
    <g id="xtick_7">
     <g id="line2d_7">
      <g>
       <use style="stroke:#000000;stroke-width:0.8;" x="398.487273" xlink:href="#m7ef62c2473" y="307.584"/>
      </g>
     </g>
     <g id="text_7">
      <!-- 3 -->
      <g transform="translate(395.306023 322.182437)scale(0.1 -0.1)">
       <use xlink:href="#DejaVuSans-51"/>
      </g>
     </g>
    </g>
   </g>
   <g id="matplotlib.axis_2">
    <g id="ytick_1">
     <g id="line2d_8">
      <defs>
       <path d="M 0 0 
L -3.5 0 
" id="mc556a04fa2" style="stroke:#000000;stroke-width:0.8;"/>
      </defs>
      <g>
       <use style="stroke:#000000;stroke-width:0.8;" x="57.6" xlink:href="#mc556a04fa2" y="295.497344"/>
      </g>
     </g>
     <g id="text_8">
      <!-- 0 -->
      <g transform="translate(44.2375 299.296563)scale(0.1 -0.1)">
       <use xlink:href="#DejaVuSans-48"/>
      </g>
     </g>
    </g>
    <g id="ytick_2">
     <g id="line2d_9">
      <g>
       <use style="stroke:#000000;stroke-width:0.8;" x="57.6" xlink:href="#mc556a04fa2" y="253.471804"/>
      </g>
     </g>
     <g id="text_9">
      <!-- 2 -->
      <g transform="translate(44.2375 257.271023)scale(0.1 -0.1)">
       <use xlink:href="#DejaVuSans-50"/>
      </g>
     </g>
    </g>
    <g id="ytick_3">
     <g id="line2d_10">
      <g>
       <use style="stroke:#000000;stroke-width:0.8;" x="57.6" xlink:href="#mc556a04fa2" y="211.446265"/>
      </g>
     </g>
     <g id="text_10">
      <!-- 4 -->
      <defs>
       <path d="M 37.796875 64.3125 
L 12.890625 25.390625 
L 37.796875 25.390625 
z
M 35.203125 72.90625 
L 47.609375 72.90625 
L 47.609375 25.390625 
L 58.015625 25.390625 
L 58.015625 17.1875 
L 47.609375 17.1875 
L 47.609375 0 
L 37.796875 0 
L 37.796875 17.1875 
L 4.890625 17.1875 
L 4.890625 26.703125 
z
" id="DejaVuSans-52"/>
      </defs>
      <g transform="translate(44.2375 215.245484)scale(0.1 -0.1)">
       <use xlink:href="#DejaVuSans-52"/>
      </g>
     </g>
    </g>
    <g id="ytick_4">
     <g id="line2d_11">
      <g>
       <use style="stroke:#000000;stroke-width:0.8;" x="57.6" xlink:href="#mc556a04fa2" y="169.420725"/>
      </g>
     </g>
     <g id="text_11">
      <!-- 6 -->
      <defs>
       <path d="M 33.015625 40.375 
Q 26.375 40.375 22.484375 35.828125 
Q 18.609375 31.296875 18.609375 23.390625 
Q 18.609375 15.53125 22.484375 10.953125 
Q 26.375 6.390625 33.015625 6.390625 
Q 39.65625 6.390625 43.53125 10.953125 
Q 47.40625 15.53125 47.40625 23.390625 
Q 47.40625 31.296875 43.53125 35.828125 
Q 39.65625 40.375 33.015625 40.375 
z
M 52.59375 71.296875 
L 52.59375 62.3125 
Q 48.875 64.0625 45.09375 64.984375 
Q 41.3125 65.921875 37.59375 65.921875 
Q 27.828125 65.921875 22.671875 59.328125 
Q 17.53125 52.734375 16.796875 39.40625 
Q 19.671875 43.65625 24.015625 45.921875 
Q 28.375 48.1875 33.59375 48.1875 
Q 44.578125 48.1875 50.953125 41.515625 
Q 57.328125 34.859375 57.328125 23.390625 
Q 57.328125 12.15625 50.6875 5.359375 
Q 44.046875 -1.421875 33.015625 -1.421875 
Q 20.359375 -1.421875 13.671875 8.265625 
Q 6.984375 17.96875 6.984375 36.375 
Q 6.984375 53.65625 15.1875 63.9375 
Q 23.390625 74.21875 37.203125 74.21875 
Q 40.921875 74.21875 44.703125 73.484375 
Q 48.484375 72.75 52.59375 71.296875 
z
" id="DejaVuSans-54"/>
      </defs>
      <g transform="translate(44.2375 173.219944)scale(0.1 -0.1)">
       <use xlink:href="#DejaVuSans-54"/>
      </g>
     </g>
    </g>
    <g id="ytick_5">
     <g id="line2d_12">
      <g>
       <use style="stroke:#000000;stroke-width:0.8;" x="57.6" xlink:href="#mc556a04fa2" y="127.395186"/>
      </g>
     </g>
     <g id="text_12">
      <!-- 8 -->
      <defs>
       <path d="M 31.78125 34.625 
Q 24.75 34.625 20.71875 30.859375 
Q 16.703125 27.09375 16.703125 20.515625 
Q 16.703125 13.921875 20.71875 10.15625 
Q 24.75 6.390625 31.78125 6.390625 
Q 38.8125 6.390625 42.859375 10.171875 
Q 46.921875 13.96875 46.921875 20.515625 
Q 46.921875 27.09375 42.890625 30.859375 
Q 38.875 34.625 31.78125 34.625 
z
M 21.921875 38.8125 
Q 15.578125 40.375 12.03125 44.71875 
Q 8.5 49.078125 8.5 55.328125 
Q 8.5 64.0625 14.71875 69.140625 
Q 20.953125 74.21875 31.78125 74.21875 
Q 42.671875 74.21875 48.875 69.140625 
Q 55.078125 64.0625 55.078125 55.328125 
Q 55.078125 49.078125 51.53125 44.71875 
Q 48 40.375 41.703125 38.8125 
Q 48.828125 37.15625 52.796875 32.3125 
Q 56.78125 27.484375 56.78125 20.515625 
Q 56.78125 9.90625 50.3125 4.234375 
Q 43.84375 -1.421875 31.78125 -1.421875 
Q 19.734375 -1.421875 13.25 4.234375 
Q 6.78125 9.90625 6.78125 20.515625 
Q 6.78125 27.484375 10.78125 32.3125 
Q 14.796875 37.15625 21.921875 38.8125 
z
M 18.3125 54.390625 
Q 18.3125 48.734375 21.84375 45.5625 
Q 25.390625 42.390625 31.78125 42.390625 
Q 38.140625 42.390625 41.71875 45.5625 
Q 45.3125 48.734375 45.3125 54.390625 
Q 45.3125 60.0625 41.71875 63.234375 
Q 38.140625 66.40625 31.78125 66.40625 
Q 25.390625 66.40625 21.84375 63.234375 
Q 18.3125 60.0625 18.3125 54.390625 
z
" id="DejaVuSans-56"/>
      </defs>
      <g transform="translate(44.2375 131.194405)scale(0.1 -0.1)">
       <use xlink:href="#DejaVuSans-56"/>
      </g>
     </g>
    </g>
    <g id="ytick_6">
     <g id="line2d_13">
      <g>
       <use style="stroke:#000000;stroke-width:0.8;" x="57.6" xlink:href="#mc556a04fa2" y="85.369646"/>
      </g>
     </g>
     <g id="text_13">
      <!-- 10 -->
      <g transform="translate(37.875 89.168865)scale(0.1 -0.1)">
       <use xlink:href="#DejaVuSans-49"/>
       <use x="63.623047" xlink:href="#DejaVuSans-48"/>
      </g>
     </g>
    </g>
    <g id="ytick_7">
     <g id="line2d_14">
      <g>
       <use style="stroke:#000000;stroke-width:0.8;" x="57.6" xlink:href="#mc556a04fa2" y="43.344107"/>
      </g>
     </g>
     <g id="text_14">
      <!-- 12 -->
      <g transform="translate(37.875 47.143326)scale(0.1 -0.1)">
       <use xlink:href="#DejaVuSans-49"/>
       <use x="63.623047" xlink:href="#DejaVuSans-50"/>
      </g>
     </g>
    </g>
   </g>
   <g id="line2d_15">
    <path clip-path="url(#p6ce653a720)" d="M 73.832727 268.604537 
L 75.418729 294.767113 
L 77.797731 253.90985 
L 79.066533 235.972818 
L 80.018134 225.53109 
L 80.811135 219.216224 
L 81.445535 215.884807 
L 81.921336 214.44075 
L 82.238536 213.991593 
L 82.555737 213.956953 
L 82.872937 214.337559 
L 83.190137 215.131969 
L 83.665938 217.090991 
L 84.300338 221.099727 
L 84.934739 226.629829 
L 85.72774 235.508835 
L 86.679341 248.665028 
L 87.948142 269.428609 
L 89.375544 295.194014 
L 89.851344 287.090799 
L 91.754546 254.373092 
L 92.864748 238.598018 
L 93.816349 228.036392 
L 94.609349 221.727476 
L 95.24375 218.476437 
L 95.719551 217.138701 
L 96.036751 216.782736 
L 96.353951 216.859232 
L 96.671152 217.368892 
L 96.988352 218.310156 
L 97.464152 220.52235 
L 98.098553 224.928227 
L 98.732954 230.91999 
L 99.525955 240.458887 
L 100.477556 254.511452 
L 101.746357 276.603496 
L 102.697958 294.708111 
L 102.856558 293.207631 
L 105.394161 245.670437 
L 106.662962 226.150173 
L 107.614563 214.772882 
L 108.407564 207.874384 
L 109.041965 204.215293 
L 109.517765 202.609759 
L 109.834966 202.093582 
L 110.152166 202.024448 
L 110.469366 202.402892 
L 110.786567 203.227101 
L 111.262367 205.28949 
L 111.896768 209.541284 
L 112.531168 215.426733 
L 113.324169 224.890756 
L 114.27577 238.919806 
L 115.544572 261.045885 
L 117.289174 294.61474 
L 117.447774 293.308659 
L 119.350976 258.749396 
L 120.461177 242.244158 
L 121.412778 231.334251 
L 122.205779 224.959519 
L 122.840179 221.813728 
L 123.31598 220.650272 
L 123.63318 220.456504 
L 123.950381 220.732115 
L 124.267581 221.477711 
L 124.743381 223.472678 
L 125.219182 226.5041 
L 125.853583 232.107424 
L 126.646583 241.474415 
L 127.598184 255.811351 
L 128.708386 276.016357 
L 129.659987 295.453951 
L 134.100791 205.484704 
L 135.052392 191.7698 
L 135.845393 183.034074 
L 136.479794 178.005976 
L 136.955594 175.444751 
L 137.431395 173.951345 
L 137.748595 173.556592 
L 137.907195 173.540144 
L 138.224396 173.868675 
L 138.541596 174.676722 
L 139.017397 176.776222 
L 139.493197 179.915486 
L 140.127598 185.648842 
L 140.920599 195.120346 
L 141.8722 209.434401 
L 143.141001 232.362181 
L 146.313004 294.840065 
L 147.581806 272.529248 
L 148.533407 258.9369 
L 149.326408 250.255713 
L 149.960808 245.290916 
L 150.436609 242.814421 
L 150.912409 241.457102 
L 151.22961 241.19053 
L 151.38821 241.251455 
L 151.70541 241.764756 
L 152.02261 242.802252 
L 152.498411 245.341972 
L 153.132812 250.54802 
L 153.767212 257.782846 
L 154.560213 269.538264 
L 155.511814 287.277115 
L 155.829015 293.979812 
L 155.987615 293.529015 
L 157.256416 262.865555 
L 159.318218 206.353666 
L 162.014421 133.321621 
L 163.283222 104.305079 
L 164.393424 83.544583 
L 165.345025 69.818048 
L 166.138025 61.500201 
L 166.772426 56.963875 
L 167.248227 54.808108 
L 167.724027 53.714542 
L 168.041228 53.568 
L 168.358428 53.879412 
L 168.675628 54.639863 
L 169.151429 56.598808 
L 169.785829 60.669835 
L 170.42023 66.295694 
L 171.213231 75.296439 
L 172.164832 88.565894 
L 173.433633 109.461651 
L 175.654036 150.685393 
L 178.191638 197.03954 
L 179.77764 222.179796 
L 181.205042 241.255362 
L 182.473843 255.297714 
L 183.742644 266.862804 
L 185.011446 276.444869 
L 186.597447 286.613429 
L 188.024849 295.072496 
L 188.183449 294.981262 
L 190.245251 282.057767 
L 191.989853 269.546132 
L 194.210255 251.725304 
L 196.589258 232.879855 
L 197.858059 224.58534 
L 198.80966 219.85631 
L 199.444061 217.615198 
L 199.919861 216.483616 
L 200.395662 215.86502 
L 200.712862 215.754528 
L 201.030063 215.896172 
L 201.347263 216.298004 
L 201.823063 217.403748 
L 202.298864 219.129834 
L 202.933265 222.418841 
L 203.567665 226.849438 
L 204.360666 233.983995 
L 205.312267 244.808712 
L 206.422468 260.31038 
L 207.69127 281.231831 
L 208.484271 295.343042 
L 211.339074 239.673821 
L 213.400876 201.709697 
L 214.828277 179.547631 
L 215.938478 165.612453 
L 216.890079 156.31794 
L 217.68308 150.559042 
L 218.317481 147.277565 
L 218.951882 145.168274 
L 219.427682 144.34058 
L 219.744883 144.138666 
L 220.062083 144.209165 
L 220.379283 144.544534 
L 220.855084 145.525459 
L 221.330884 147.050961 
L 221.965285 149.869545 
L 222.758286 154.520513 
L 223.709887 161.49215 
L 224.978688 172.557071 
L 227.04049 192.886437 
L 230.688294 228.840641 
L 237.032301 288.52999 
L 237.666702 295.235491 
L 239.094103 277.237759 
L 240.680105 254.236954 
L 242.583307 222.944113 
L 247.024112 147.96167 
L 248.134313 133.28136 
L 249.085914 123.451054 
L 249.878915 117.630541 
L 250.513315 114.735757 
L 250.989116 113.676636 
L 251.306316 113.525693 
L 251.623516 113.832325 
L 251.940717 114.606189 
L 252.416517 116.659764 
L 252.892318 119.800536 
L 253.526718 125.692912 
L 254.319719 135.780213 
L 255.11272 148.801978 
L 256.064321 168.046066 
L 257.333123 199.044953 
L 258.919124 244.1117 
L 260.663726 293.688865 
L 262.725528 234.162105 
L 263.99433 203.593344 
L 264.945931 185.344955 
L 265.738931 173.836226 
L 266.373332 167.314312 
L 266.849133 164.085251 
L 267.324933 162.331899 
L 267.642133 161.998724 
L 267.800734 162.085263 
L 268.117934 162.766847 
L 268.435134 164.127355 
L 268.910935 167.437216 
L 269.545336 174.189177 
L 270.179736 183.537749 
L 270.972737 198.679738 
L 271.924338 221.458281 
L 273.034539 253.396547 
L 274.303341 295.097477 
L 274.937741 273.737985 
L 278.268345 159.0399 
L 279.537146 122.92026 
L 280.647347 97.660536 
L 281.440348 83.918198 
L 282.233349 74.094176 
L 282.86775 69.176322 
L 283.34355 67.230762 
L 283.660751 66.763448 
L 283.819351 66.777267 
L 284.136551 67.2956 
L 284.453751 68.460386 
L 284.929552 71.392908 
L 285.563953 77.431307 
L 286.198353 85.752961 
L 286.991354 99.058516 
L 288.101555 122.251289 
L 289.528957 157.646822 
L 293.652561 263.473294 
L 294.762762 285.293417 
L 295.397163 295.4814 
L 296.190164 285.391719 
L 296.824565 279.505124 
L 297.458965 275.640696 
L 297.934766 274.074976 
L 298.251966 273.659666 
L 298.410566 273.638102 
L 298.727767 273.961435 
L 299.044967 274.763903 
L 299.520767 276.835742 
L 300.155168 281.129238 
L 300.789569 287.021588 
L 301.58257 294.657535 
L 302.692771 278.773444 
L 304.595973 247.506624 
L 306.499175 217.433904 
L 307.609376 203.170981 
L 308.402377 195.25773 
L 309.036778 190.536552 
L 309.671178 187.377219 
L 310.146979 186.083654 
L 310.464179 185.746275 
L 310.781379 185.832892 
L 311.09858 186.344208 
L 311.41578 187.278503 
L 311.891581 189.463379 
L 312.525981 193.798847 
L 313.318982 201.37365 
L 314.270583 213.288289 
L 315.380784 230.353865 
L 317.125386 261.43344 
L 319.028588 294.893831 
L 320.45599 272.169339 
L 321.407591 259.932429 
L 322.200592 252.00268 
L 322.834992 247.322038 
L 323.469393 244.215538 
L 323.945193 242.950983 
L 324.262394 242.621011 
L 324.579594 242.701459 
L 324.896794 243.189766 
L 325.213995 244.081135 
L 325.689795 246.158028 
L 326.324196 250.254664 
L 327.117197 257.353991 
L 328.068798 268.404584 
L 329.337599 286.435945 
L 329.972 294.599619 
L 333.302603 242.439104 
L 334.412805 228.782659 
L 335.364406 219.895183 
L 335.998806 215.661961 
L 336.633207 212.899094 
L 337.109007 211.83146 
L 337.426208 211.60704 
L 337.743408 211.774642 
L 338.060608 212.333678 
L 338.536409 213.899598 
L 339.012209 216.321371 
L 339.64661 220.830567 
L 340.439611 228.38405 
L 341.391212 239.917838 
L 342.660013 258.552305 
L 344.880416 295.488 
L 346.625018 267.863003 
L 347.735219 253.185123 
L 348.68682 243.28126 
L 349.479821 237.273966 
L 350.114221 234.079057 
L 350.590022 232.665463 
L 350.907222 232.199633 
L 351.224422 232.117133 
L 351.541623 232.417404 
L 351.858823 233.097816 
L 352.334624 234.820392 
L 352.969024 238.38704 
L 353.603425 243.325389 
L 354.396426 251.25059 
L 355.348027 262.95162 
L 356.775428 283.72383 
L 357.568429 294.803655 
L 360.106032 256.186738 
L 361.216233 242.365735 
L 362.167834 233.076053 
L 362.960835 227.489607 
L 363.595236 224.570781 
L 364.071036 223.329326 
L 364.388236 222.96203 
L 364.705437 222.965456 
L 365.022637 223.33945 
L 365.339837 224.081854 
L 365.815638 225.87663 
L 366.450039 229.504094 
L 367.084439 234.468116 
L 367.87744 242.386135 
L 368.987641 256.175082 
L 370.415043 277.172326 
L 371.525244 294.710858 
L 371.683844 293.767007 
L 373.745646 262.895803 
L 374.855848 249.201346 
L 375.807449 239.997244 
L 376.600449 234.448753 
L 377.23485 231.530493 
L 377.710651 230.269041 
L 378.027851 229.877814 
L 378.345051 229.848394 
L 378.662252 230.180335 
L 378.979452 230.87126 
L 379.455252 232.570844 
L 380.089653 236.037652 
L 380.724054 240.803088 
L 381.517055 248.422318 
L 382.627256 261.709631 
L 384.054657 281.955216 
L 384.847658 294.00438 
L 385.006258 294.559615 
L 387.226661 262.051359 
L 388.495462 246.789732 
L 389.447063 237.955686 
L 390.240064 232.650289 
L 390.874465 229.879808 
L 391.350265 228.700885 
L 391.667465 228.351046 
L 391.984666 228.35213 
L 392.301866 228.703785 
L 392.619066 229.403804 
L 393.094867 231.09765 
L 393.729268 234.522415 
L 394.363668 239.209755 
L 395.156669 246.687509 
L 396.26687 259.714174 
L 397.694272 279.568124 
L 398.487273 291.399083 
L 398.487273 291.399083 
" style="fill:none;stroke:#0000ff;stroke-linecap:square;stroke-width:1.5;"/>
   </g>
   <g id="line2d_16">
    <path clip-path="url(#p6ce653a720)" d="M 182.050909 307.584 
L 182.050909 41.472 
" style="fill:none;stroke:#000000;stroke-dasharray:5.55,2.4;stroke-dashoffset:0;stroke-width:1.5;"/>
   </g>
   <g id="line2d_17">
    <path clip-path="url(#p6ce653a720)" d="M 236.16 307.584 
L 236.16 41.472 
" style="fill:none;stroke:#000000;stroke-dasharray:5.55,2.4;stroke-dashoffset:0;stroke-width:1.5;"/>
   </g>
   <g id="line2d_18">
    <path clip-path="url(#p6ce653a720)" d="M 276.741818 307.584 
L 276.741818 41.472 
" style="fill:none;stroke:#000000;stroke-dasharray:5.55,2.4;stroke-dashoffset:0;stroke-width:1.5;"/>
   </g>
   <g id="patch_3">
    <path d="M 57.6 307.584 
L 57.6 41.472 
" style="fill:none;stroke:#000000;stroke-linecap:square;stroke-linejoin:miter;stroke-width:0.8;"/>
   </g>
   <g id="patch_4">
    <path d="M 414.72 307.584 
L 414.72 41.472 
" style="fill:none;stroke:#000000;stroke-linecap:square;stroke-linejoin:miter;stroke-width:0.8;"/>
   </g>
   <g id="patch_5">
    <path d="M 57.6 307.584 
L 414.72 307.584 
" style="fill:none;stroke:#000000;stroke-linecap:square;stroke-linejoin:miter;stroke-width:0.8;"/>
   </g>
   <g id="patch_6">
    <path d="M 57.6 41.472 
L 414.72 41.472 
" style="fill:none;stroke:#000000;stroke-linecap:square;stroke-linejoin:miter;stroke-width:0.8;"/>
   </g>
   <g id="text_15">
    <!-- t = -1.0 -->
    <defs>
     <path d="M 18.3125 70.21875 
L 18.3125 54.6875 
L 36.8125 54.6875 
L 36.8125 47.703125 
L 18.3125 47.703125 
L 18.3125 18.015625 
Q 18.3125 11.328125 20.140625 9.421875 
Q 21.96875 7.515625 27.59375 7.515625 
L 36.8125 7.515625 
L 36.8125 0 
L 27.59375 0 
Q 17.1875 0 13.234375 3.875 
Q 9.28125 7.765625 9.28125 18.015625 
L 9.28125 47.703125 
L 2.6875 47.703125 
L 2.6875 54.6875 
L 9.28125 54.6875 
L 9.28125 70.21875 
z
" id="DejaVuSans-116"/>
     <path id="DejaVuSans-32"/>
     <path d="M 10.59375 45.40625 
L 73.1875 45.40625 
L 73.1875 37.203125 
L 10.59375 37.203125 
z
M 10.59375 25.484375 
L 73.1875 25.484375 
L 73.1875 17.1875 
L 10.59375 17.1875 
z
" id="DejaVuSans-61"/>
     <path d="M 4.890625 31.390625 
L 31.203125 31.390625 
L 31.203125 23.390625 
L 4.890625 23.390625 
z
" id="DejaVuSans-45"/>
     <path d="M 10.6875 12.40625 
L 21 12.40625 
L 21 0 
L 10.6875 0 
z
" id="DejaVuSans-46"/>
    </defs>
    <g transform="translate(183.133091 284.299531)scale(0.1 -0.1)">
     <use xlink:href="#DejaVuSans-116"/>
     <use x="39.208984" xlink:href="#DejaVuSans-32"/>
     <use x="70.996094" xlink:href="#DejaVuSans-61"/>
     <use x="154.785156" xlink:href="#DejaVuSans-32"/>
     <use x="186.572266" xlink:href="#DejaVuSans-45"/>
     <use x="222.65625" xlink:href="#DejaVuSans-49"/>
     <use x="286.279297" xlink:href="#DejaVuSans-46"/>
     <use x="318.066406" xlink:href="#DejaVuSans-48"/>
    </g>
    <!-- a = 1.0 -->
    <defs>
     <path d="M 34.28125 27.484375 
Q 23.390625 27.484375 19.1875 25 
Q 14.984375 22.515625 14.984375 16.5 
Q 14.984375 11.71875 18.140625 8.90625 
Q 21.296875 6.109375 26.703125 6.109375 
Q 34.1875 6.109375 38.703125 11.40625 
Q 43.21875 16.703125 43.21875 25.484375 
L 43.21875 27.484375 
z
M 52.203125 31.203125 
L 52.203125 0 
L 43.21875 0 
L 43.21875 8.296875 
Q 40.140625 3.328125 35.546875 0.953125 
Q 30.953125 -1.421875 24.3125 -1.421875 
Q 15.921875 -1.421875 10.953125 3.296875 
Q 6 8.015625 6 15.921875 
Q 6 25.140625 12.171875 29.828125 
Q 18.359375 34.515625 30.609375 34.515625 
L 43.21875 34.515625 
L 43.21875 35.40625 
Q 43.21875 41.609375 39.140625 45 
Q 35.0625 48.390625 27.6875 48.390625 
Q 23 48.390625 18.546875 47.265625 
Q 14.109375 46.140625 10.015625 43.890625 
L 10.015625 52.203125 
Q 14.9375 54.109375 19.578125 55.046875 
Q 24.21875 56 28.609375 56 
Q 40.484375 56 46.34375 49.84375 
Q 52.203125 43.703125 52.203125 31.203125 
z
" id="DejaVuSans-97"/>
    </defs>
    <g transform="translate(183.133091 295.497344)scale(0.1 -0.1)">
     <use xlink:href="#DejaVuSans-97"/>
     <use x="61.279297" xlink:href="#DejaVuSans-32"/>
     <use x="93.066406" xlink:href="#DejaVuSans-61"/>
     <use x="176.855469" xlink:href="#DejaVuSans-32"/>
     <use x="208.642578" xlink:href="#DejaVuSans-49"/>
     <use x="272.265625" xlink:href="#DejaVuSans-46"/>
     <use x="304.052734" xlink:href="#DejaVuSans-48"/>
    </g>
   </g>
   <g id="text_16">
    <!-- t = 0.0 -->
    <g transform="translate(237.242182 284.299531)scale(0.1 -0.1)">
     <use xlink:href="#DejaVuSans-116"/>
     <use x="39.208984" xlink:href="#DejaVuSans-32"/>
     <use x="70.996094" xlink:href="#DejaVuSans-61"/>
     <use x="154.785156" xlink:href="#DejaVuSans-32"/>
     <use x="186.572266" xlink:href="#DejaVuSans-48"/>
     <use x="250.195312" xlink:href="#DejaVuSans-46"/>
     <use x="281.982422" xlink:href="#DejaVuSans-48"/>
    </g>
    <!-- a = 3.0 -->
    <g transform="translate(237.242182 295.497344)scale(0.1 -0.1)">
     <use xlink:href="#DejaVuSans-97"/>
     <use x="61.279297" xlink:href="#DejaVuSans-32"/>
     <use x="93.066406" xlink:href="#DejaVuSans-61"/>
     <use x="176.855469" xlink:href="#DejaVuSans-32"/>
     <use x="208.642578" xlink:href="#DejaVuSans-51"/>
     <use x="272.265625" xlink:href="#DejaVuSans-46"/>
     <use x="304.052734" xlink:href="#DejaVuSans-48"/>
    </g>
   </g>
   <g id="text_17">
    <!-- t = 0.75 -->
    <defs>
     <path d="M 8.203125 72.90625 
L 55.078125 72.90625 
L 55.078125 68.703125 
L 28.609375 0 
L 18.3125 0 
L 43.21875 64.59375 
L 8.203125 64.59375 
z
" id="DejaVuSans-55"/>
     <path d="M 10.796875 72.90625 
L 49.515625 72.90625 
L 49.515625 64.59375 
L 19.828125 64.59375 
L 19.828125 46.734375 
Q 21.96875 47.46875 24.109375 47.828125 
Q 26.265625 48.1875 28.421875 48.1875 
Q 40.625 48.1875 47.75 41.5 
Q 54.890625 34.8125 54.890625 23.390625 
Q 54.890625 11.625 47.5625 5.09375 
Q 40.234375 -1.421875 26.90625 -1.421875 
Q 22.3125 -1.421875 17.546875 -0.640625 
Q 12.796875 0.140625 7.71875 1.703125 
L 7.71875 11.625 
Q 12.109375 9.234375 16.796875 8.0625 
Q 21.484375 6.890625 26.703125 6.890625 
Q 35.15625 6.890625 40.078125 11.328125 
Q 45.015625 15.765625 45.015625 23.390625 
Q 45.015625 31 40.078125 35.4375 
Q 35.15625 39.890625 26.703125 39.890625 
Q 22.75 39.890625 18.8125 39.015625 
Q 14.890625 38.140625 10.796875 36.28125 
z
" id="DejaVuSans-53"/>
    </defs>
    <g transform="translate(277.824 284.299531)scale(0.1 -0.1)">
     <use xlink:href="#DejaVuSans-116"/>
     <use x="39.208984" xlink:href="#DejaVuSans-32"/>
     <use x="70.996094" xlink:href="#DejaVuSans-61"/>
     <use x="154.785156" xlink:href="#DejaVuSans-32"/>
     <use x="186.572266" xlink:href="#DejaVuSans-48"/>
     <use x="250.195312" xlink:href="#DejaVuSans-46"/>
     <use x="281.982422" xlink:href="#DejaVuSans-55"/>
     <use x="345.605469" xlink:href="#DejaVuSans-53"/>
    </g>
    <!-- a = 1.0 -->
    <g transform="translate(277.824 295.497344)scale(0.1 -0.1)">
     <use xlink:href="#DejaVuSans-97"/>
     <use x="61.279297" xlink:href="#DejaVuSans-32"/>
     <use x="93.066406" xlink:href="#DejaVuSans-61"/>
     <use x="176.855469" xlink:href="#DejaVuSans-32"/>
     <use x="208.642578" xlink:href="#DejaVuSans-49"/>
     <use x="272.265625" xlink:href="#DejaVuSans-46"/>
     <use x="304.052734" xlink:href="#DejaVuSans-48"/>
    </g>
   </g>
   <g id="legend_1">
    <g id="patch_7">
     <path d="M 361.9825 64.150125 
L 407.72 64.150125 
Q 409.72 64.150125 409.72 62.150125 
L 409.72 48.472 
Q 409.72 46.472 407.72 46.472 
L 361.9825 46.472 
Q 359.9825 46.472 359.9825 48.472 
L 359.9825 62.150125 
Q 359.9825 64.150125 361.9825 64.150125 
z
" style="fill:#ffffff;opacity:0.8;stroke:#cccccc;stroke-linejoin:miter;"/>
    </g>
    <g id="line2d_19">
     <path d="M 363.9825 54.570438 
L 383.9825 54.570438 
" style="fill:none;stroke:#0000ff;stroke-linecap:square;stroke-width:1.5;"/>
    </g>
    <g id="line2d_20"/>
    <g id="text_18">
     <!-- ifft -->
     <defs>
      <path d="M 9.421875 54.6875 
L 18.40625 54.6875 
L 18.40625 0 
L 9.421875 0 
z
M 9.421875 75.984375 
L 18.40625 75.984375 
L 18.40625 64.59375 
L 9.421875 64.59375 
z
" id="DejaVuSans-105"/>
      <path d="M 37.109375 75.984375 
L 37.109375 68.5 
L 28.515625 68.5 
Q 23.6875 68.5 21.796875 66.546875 
Q 19.921875 64.59375 19.921875 59.515625 
L 19.921875 54.6875 
L 34.71875 54.6875 
L 34.71875 47.703125 
L 19.921875 47.703125 
L 19.921875 0 
L 10.890625 0 
L 10.890625 47.703125 
L 2.296875 47.703125 
L 2.296875 54.6875 
L 10.890625 54.6875 
L 10.890625 58.5 
Q 10.890625 67.625 15.140625 71.796875 
Q 19.390625 75.984375 28.609375 75.984375 
z
" id="DejaVuSans-102"/>
     </defs>
     <g transform="translate(391.9825 58.070438)scale(0.1 -0.1)">
      <use xlink:href="#DejaVuSans-105"/>
      <use x="27.783203" xlink:href="#DejaVuSans-102"/>
      <use x="62.988281" xlink:href="#DejaVuSans-102"/>
      <use x="98.177734" xlink:href="#DejaVuSans-116"/>
     </g>
    </g>
   </g>
  </g>
 </g>
 <defs>
  <clipPath id="p6ce653a720">
   <rect height="266.112" width="357.12" x="57.6" y="41.472"/>
  </clipPath>
 </defs>
</svg>
