<?xml version="1.0" encoding="utf-8" standalone="no"?>
<!DOCTYPE svg PUBLIC "-//W3C//DTD SVG 1.1//EN"
  "http://www.w3.org/Graphics/SVG/1.1/DTD/svg11.dtd">
<!-- Created with matplotlib (https://matplotlib.org/) -->
<svg height="345.6pt" version="1.1" viewBox="0 0 460.8 345.6" width="460.8pt" xmlns="http://www.w3.org/2000/svg" xmlns:xlink="http://www.w3.org/1999/xlink">
 <defs>
  <style type="text/css">
*{stroke-linecap:butt;stroke-linejoin:round;}
  </style>
 </defs>
 <g id="figure_1">
  <g id="patch_1">
   <path d="M 0 345.6 
L 460.8 345.6 
L 460.8 0 
L 0 0 
z
" style="fill:#ffffff;"/>
  </g>
  <g id="axes_1">
   <g id="patch_2">
    <path d="M 57.6 307.584 
L 414.72 307.584 
L 414.72 41.472 
L 57.6 41.472 
z
" style="fill:#ffffff;"/>
   </g>
   <g id="matplotlib.axis_1">
    <g id="xtick_1">
     <g id="line2d_1">
      <defs>
       <path d="M 0 0 
L 0 3.5 
" id="m86c1d58d58" style="stroke:#000000;stroke-width:0.8;"/>
      </defs>
      <g>
       <use style="stroke:#000000;stroke-width:0.8;" x="73.832727" xlink:href="#m86c1d58d58" y="307.584"/>
      </g>
     </g>
     <g id="text_1">
      <!-- −3 -->
      <defs>
       <path d="M 10.59375 35.5 
L 73.1875 35.5 
L 73.1875 27.203125 
L 10.59375 27.203125 
z
" id="DejaVuSans-8722"/>
       <path d="M 40.578125 39.3125 
Q 47.65625 37.796875 51.625 33 
Q 55.609375 28.21875 55.609375 21.1875 
Q 55.609375 10.40625 48.1875 4.484375 
Q 40.765625 -1.421875 27.09375 -1.421875 
Q 22.515625 -1.421875 17.65625 -0.515625 
Q 12.796875 0.390625 7.625 2.203125 
L 7.625 11.71875 
Q 11.71875 9.328125 16.59375 8.109375 
Q 21.484375 6.890625 26.8125 6.890625 
Q 36.078125 6.890625 40.9375 10.546875 
Q 45.796875 14.203125 45.796875 21.1875 
Q 45.796875 27.640625 41.28125 31.265625 
Q 36.765625 34.90625 28.71875 34.90625 
L 20.21875 34.90625 
L 20.21875 43.015625 
L 29.109375 43.015625 
Q 36.375 43.015625 40.234375 45.921875 
Q 44.09375 48.828125 44.09375 54.296875 
Q 44.09375 59.90625 40.109375 62.90625 
Q 36.140625 65.921875 28.71875 65.921875 
Q 24.65625 65.921875 20.015625 65.03125 
Q 15.375 64.15625 9.8125 62.3125 
L 9.8125 71.09375 
Q 15.4375 72.65625 20.34375 73.4375 
Q 25.25 74.21875 29.59375 74.21875 
Q 40.828125 74.21875 47.359375 69.109375 
Q 53.90625 64.015625 53.90625 55.328125 
Q 53.90625 49.265625 50.4375 45.09375 
Q 46.96875 40.921875 40.578125 39.3125 
z
" id="DejaVuSans-51"/>
      </defs>
      <g transform="translate(66.461634 322.182437)scale(0.1 -0.1)">
       <use xlink:href="#DejaVuSans-8722"/>
       <use x="83.789062" xlink:href="#DejaVuSans-51"/>
      </g>
     </g>
    </g>
    <g id="xtick_2">
     <g id="line2d_2">
      <g>
       <use style="stroke:#000000;stroke-width:0.8;" x="127.941818" xlink:href="#m86c1d58d58" y="307.584"/>
      </g>
     </g>
     <g id="text_2">
      <!-- −2 -->
      <defs>
       <path d="M 19.1875 8.296875 
L 53.609375 8.296875 
L 53.609375 0 
L 7.328125 0 
L 7.328125 8.296875 
Q 12.9375 14.109375 22.625 23.890625 
Q 32.328125 33.6875 34.8125 36.53125 
Q 39.546875 41.84375 41.421875 45.53125 
Q 43.3125 49.21875 43.3125 52.78125 
Q 43.3125 58.59375 39.234375 62.25 
Q 35.15625 65.921875 28.609375 65.921875 
Q 23.96875 65.921875 18.8125 64.3125 
Q 13.671875 62.703125 7.8125 59.421875 
L 7.8125 69.390625 
Q 13.765625 71.78125 18.9375 73 
Q 24.125 74.21875 28.421875 74.21875 
Q 39.75 74.21875 46.484375 68.546875 
Q 53.21875 62.890625 53.21875 53.421875 
Q 53.21875 48.921875 51.53125 44.890625 
Q 49.859375 40.875 45.40625 35.40625 
Q 44.1875 33.984375 37.640625 27.21875 
Q 31.109375 20.453125 19.1875 8.296875 
z
" id="DejaVuSans-50"/>
      </defs>
      <g transform="translate(120.570724 322.182437)scale(0.1 -0.1)">
       <use xlink:href="#DejaVuSans-8722"/>
       <use x="83.789062" xlink:href="#DejaVuSans-50"/>
      </g>
     </g>
    </g>
    <g id="xtick_3">
     <g id="line2d_3">
      <g>
       <use style="stroke:#000000;stroke-width:0.8;" x="182.050909" xlink:href="#m86c1d58d58" y="307.584"/>
      </g>
     </g>
     <g id="text_3">
      <!-- −1 -->
      <defs>
       <path d="M 12.40625 8.296875 
L 28.515625 8.296875 
L 28.515625 63.921875 
L 10.984375 60.40625 
L 10.984375 69.390625 
L 28.421875 72.90625 
L 38.28125 72.90625 
L 38.28125 8.296875 
L 54.390625 8.296875 
L 54.390625 0 
L 12.40625 0 
z
" id="DejaVuSans-49"/>
      </defs>
      <g transform="translate(174.679815 322.182437)scale(0.1 -0.1)">
       <use xlink:href="#DejaVuSans-8722"/>
       <use x="83.789062" xlink:href="#DejaVuSans-49"/>
      </g>
     </g>
    </g>
    <g id="xtick_4">
     <g id="line2d_4">
      <g>
       <use style="stroke:#000000;stroke-width:0.8;" x="236.16" xlink:href="#m86c1d58d58" y="307.584"/>
      </g>
     </g>
     <g id="text_4">
      <!-- 0 -->
      <defs>
       <path d="M 31.78125 66.40625 
Q 24.171875 66.40625 20.328125 58.90625 
Q 16.5 51.421875 16.5 36.375 
Q 16.5 21.390625 20.328125 13.890625 
Q 24.171875 6.390625 31.78125 6.390625 
Q 39.453125 6.390625 43.28125 13.890625 
Q 47.125 21.390625 47.125 36.375 
Q 47.125 51.421875 43.28125 58.90625 
Q 39.453125 66.40625 31.78125 66.40625 
z
M 31.78125 74.21875 
Q 44.046875 74.21875 50.515625 64.515625 
Q 56.984375 54.828125 56.984375 36.375 
Q 56.984375 17.96875 50.515625 8.265625 
Q 44.046875 -1.421875 31.78125 -1.421875 
Q 19.53125 -1.421875 13.0625 8.265625 
Q 6.59375 17.96875 6.59375 36.375 
Q 6.59375 54.828125 13.0625 64.515625 
Q 19.53125 74.21875 31.78125 74.21875 
z
" id="DejaVuSans-48"/>
      </defs>
      <g transform="translate(232.97875 322.182437)scale(0.1 -0.1)">
       <use xlink:href="#DejaVuSans-48"/>
      </g>
     </g>
    </g>
    <g id="xtick_5">
     <g id="line2d_5">
      <g>
       <use style="stroke:#000000;stroke-width:0.8;" x="290.269091" xlink:href="#m86c1d58d58" y="307.584"/>
      </g>
     </g>
     <g id="text_5">
      <!-- 1 -->
      <g transform="translate(287.087841 322.182437)scale(0.1 -0.1)">
       <use xlink:href="#DejaVuSans-49"/>
      </g>
     </g>
    </g>
    <g id="xtick_6">
     <g id="line2d_6">
      <g>
       <use style="stroke:#000000;stroke-width:0.8;" x="344.378182" xlink:href="#m86c1d58d58" y="307.584"/>
      </g>
     </g>
     <g id="text_6">
      <!-- 2 -->
      <g transform="translate(341.196932 322.182437)scale(0.1 -0.1)">
       <use xlink:href="#DejaVuSans-50"/>
      </g>
     </g>
    </g>
    <g id="xtick_7">
     <g id="line2d_7">
      <g>
       <use style="stroke:#000000;stroke-width:0.8;" x="398.487273" xlink:href="#m86c1d58d58" y="307.584"/>
      </g>
     </g>
     <g id="text_7">
      <!-- 3 -->
      <g transform="translate(395.306023 322.182437)scale(0.1 -0.1)">
       <use xlink:href="#DejaVuSans-51"/>
      </g>
     </g>
    </g>
   </g>
   <g id="matplotlib.axis_2">
    <g id="ytick_1">
     <g id="line2d_8">
      <defs>
       <path d="M 0 0 
L -3.5 0 
" id="mdae8b874a3" style="stroke:#000000;stroke-width:0.8;"/>
      </defs>
      <g>
       <use style="stroke:#000000;stroke-width:0.8;" x="57.6" xlink:href="#mdae8b874a3" y="295.49384"/>
      </g>
     </g>
     <g id="text_8">
      <!-- 0 -->
      <g transform="translate(44.2375 299.293058)scale(0.1 -0.1)">
       <use xlink:href="#DejaVuSans-48"/>
      </g>
     </g>
    </g>
    <g id="ytick_2">
     <g id="line2d_9">
      <g>
       <use style="stroke:#000000;stroke-width:0.8;" x="57.6" xlink:href="#mdae8b874a3" y="245.39997"/>
      </g>
     </g>
     <g id="text_9">
      <!-- 2 -->
      <g transform="translate(44.2375 249.199189)scale(0.1 -0.1)">
       <use xlink:href="#DejaVuSans-50"/>
      </g>
     </g>
    </g>
    <g id="ytick_3">
     <g id="line2d_10">
      <g>
       <use style="stroke:#000000;stroke-width:0.8;" x="57.6" xlink:href="#mdae8b874a3" y="195.306101"/>
      </g>
     </g>
     <g id="text_10">
      <!-- 4 -->
      <defs>
       <path d="M 37.796875 64.3125 
L 12.890625 25.390625 
L 37.796875 25.390625 
z
M 35.203125 72.90625 
L 47.609375 72.90625 
L 47.609375 25.390625 
L 58.015625 25.390625 
L 58.015625 17.1875 
L 47.609375 17.1875 
L 47.609375 0 
L 37.796875 0 
L 37.796875 17.1875 
L 4.890625 17.1875 
L 4.890625 26.703125 
z
" id="DejaVuSans-52"/>
      </defs>
      <g transform="translate(44.2375 199.10532)scale(0.1 -0.1)">
       <use xlink:href="#DejaVuSans-52"/>
      </g>
     </g>
    </g>
    <g id="ytick_4">
     <g id="line2d_11">
      <g>
       <use style="stroke:#000000;stroke-width:0.8;" x="57.6" xlink:href="#mdae8b874a3" y="145.212231"/>
      </g>
     </g>
     <g id="text_11">
      <!-- 6 -->
      <defs>
       <path d="M 33.015625 40.375 
Q 26.375 40.375 22.484375 35.828125 
Q 18.609375 31.296875 18.609375 23.390625 
Q 18.609375 15.53125 22.484375 10.953125 
Q 26.375 6.390625 33.015625 6.390625 
Q 39.65625 6.390625 43.53125 10.953125 
Q 47.40625 15.53125 47.40625 23.390625 
Q 47.40625 31.296875 43.53125 35.828125 
Q 39.65625 40.375 33.015625 40.375 
z
M 52.59375 71.296875 
L 52.59375 62.3125 
Q 48.875 64.0625 45.09375 64.984375 
Q 41.3125 65.921875 37.59375 65.921875 
Q 27.828125 65.921875 22.671875 59.328125 
Q 17.53125 52.734375 16.796875 39.40625 
Q 19.671875 43.65625 24.015625 45.921875 
Q 28.375 48.1875 33.59375 48.1875 
Q 44.578125 48.1875 50.953125 41.515625 
Q 57.328125 34.859375 57.328125 23.390625 
Q 57.328125 12.15625 50.6875 5.359375 
Q 44.046875 -1.421875 33.015625 -1.421875 
Q 20.359375 -1.421875 13.671875 8.265625 
Q 6.984375 17.96875 6.984375 36.375 
Q 6.984375 53.65625 15.1875 63.9375 
Q 23.390625 74.21875 37.203125 74.21875 
Q 40.921875 74.21875 44.703125 73.484375 
Q 48.484375 72.75 52.59375 71.296875 
z
" id="DejaVuSans-54"/>
      </defs>
      <g transform="translate(44.2375 149.01145)scale(0.1 -0.1)">
       <use xlink:href="#DejaVuSans-54"/>
      </g>
     </g>
    </g>
    <g id="ytick_5">
     <g id="line2d_12">
      <g>
       <use style="stroke:#000000;stroke-width:0.8;" x="57.6" xlink:href="#mdae8b874a3" y="95.118362"/>
      </g>
     </g>
     <g id="text_12">
      <!-- 8 -->
      <defs>
       <path d="M 31.78125 34.625 
Q 24.75 34.625 20.71875 30.859375 
Q 16.703125 27.09375 16.703125 20.515625 
Q 16.703125 13.921875 20.71875 10.15625 
Q 24.75 6.390625 31.78125 6.390625 
Q 38.8125 6.390625 42.859375 10.171875 
Q 46.921875 13.96875 46.921875 20.515625 
Q 46.921875 27.09375 42.890625 30.859375 
Q 38.875 34.625 31.78125 34.625 
z
M 21.921875 38.8125 
Q 15.578125 40.375 12.03125 44.71875 
Q 8.5 49.078125 8.5 55.328125 
Q 8.5 64.0625 14.71875 69.140625 
Q 20.953125 74.21875 31.78125 74.21875 
Q 42.671875 74.21875 48.875 69.140625 
Q 55.078125 64.0625 55.078125 55.328125 
Q 55.078125 49.078125 51.53125 44.71875 
Q 48 40.375 41.703125 38.8125 
Q 48.828125 37.15625 52.796875 32.3125 
Q 56.78125 27.484375 56.78125 20.515625 
Q 56.78125 9.90625 50.3125 4.234375 
Q 43.84375 -1.421875 31.78125 -1.421875 
Q 19.734375 -1.421875 13.25 4.234375 
Q 6.78125 9.90625 6.78125 20.515625 
Q 6.78125 27.484375 10.78125 32.3125 
Q 14.796875 37.15625 21.921875 38.8125 
z
M 18.3125 54.390625 
Q 18.3125 48.734375 21.84375 45.5625 
Q 25.390625 42.390625 31.78125 42.390625 
Q 38.140625 42.390625 41.71875 45.5625 
Q 45.3125 48.734375 45.3125 54.390625 
Q 45.3125 60.0625 41.71875 63.234375 
Q 38.140625 66.40625 31.78125 66.40625 
Q 25.390625 66.40625 21.84375 63.234375 
Q 18.3125 60.0625 18.3125 54.390625 
z
" id="DejaVuSans-56"/>
      </defs>
      <g transform="translate(44.2375 98.917581)scale(0.1 -0.1)">
       <use xlink:href="#DejaVuSans-56"/>
      </g>
     </g>
    </g>
    <g id="ytick_6">
     <g id="line2d_13">
      <g>
       <use style="stroke:#000000;stroke-width:0.8;" x="57.6" xlink:href="#mdae8b874a3" y="45.024493"/>
      </g>
     </g>
     <g id="text_13">
      <!-- 10 -->
      <g transform="translate(37.875 48.823711)scale(0.1 -0.1)">
       <use xlink:href="#DejaVuSans-49"/>
       <use x="63.623047" xlink:href="#DejaVuSans-48"/>
      </g>
     </g>
    </g>
   </g>
   <g id="line2d_14">
    <path clip-path="url(#p6a7165f7da)" d="M 73.832727 258.529843 
L 74.467128 257.381265 
L 74.942928 256.982108 
L 75.260129 256.939828 
L 75.577329 257.07754 
L 76.05313 257.620991 
L 76.52893 258.564628 
L 77.163331 260.429906 
L 77.956332 263.689748 
L 78.907933 268.83884 
L 80.018134 276.277954 
L 81.604136 288.751467 
L 82.397136 295.398124 
L 83.190137 288.934287 
L 84.934739 275.255059 
L 86.04494 267.978166 
L 86.996541 263.047488 
L 87.789542 260.040695 
L 88.423943 258.432796 
L 88.899743 257.717985 
L 89.375544 257.436452 
L 89.692744 257.492671 
L 90.009944 257.744896 
L 90.485745 258.489824 
L 90.961545 259.669862 
L 91.595946 261.902557 
L 92.388947 265.699926 
L 93.340548 271.595105 
L 94.450749 280.015235 
L 96.036751 294.013334 
L 96.195351 295.488 
L 99.367354 266.92452 
L 100.477556 258.844395 
L 101.429157 253.366492 
L 102.222157 250.017304 
L 102.856558 248.215028 
L 103.332359 247.402198 
L 103.808159 247.063904 
L 104.12536 247.105103 
L 104.44256 247.360354 
L 104.91836 248.142989 
L 105.394161 249.399259 
L 106.028562 251.790203 
L 106.821562 255.867998 
L 107.773163 262.201494 
L 108.883365 271.234048 
L 110.469366 286.184362 
L 111.420967 295.343413 
L 113.482769 275.909345 
L 114.592971 267.200551 
L 115.544572 261.290834 
L 116.337573 257.692517 
L 116.971973 255.781061 
L 117.447774 254.946306 
L 117.764974 254.683868 
L 118.082174 254.660452 
L 118.399375 254.878011 
L 118.716575 255.337349 
L 119.192376 256.478586 
L 119.826776 258.833328 
L 120.461177 262.110905 
L 121.254178 267.429356 
L 122.205779 275.421196 
L 123.47458 288.293734 
L 124.108981 295.427745 
L 125.219182 282.444959 
L 127.756785 253.081475 
L 129.025586 240.882963 
L 129.977187 233.648246 
L 130.770188 229.149476 
L 131.404589 226.663713 
L 131.880389 225.487724 
L 132.35619 224.921037 
L 132.67339 224.887152 
L 132.99059 225.130273 
L 133.307791 225.65052 
L 133.783591 226.947476 
L 134.417992 229.624105 
L 135.052392 233.34394 
L 135.845393 239.363524 
L 136.796994 248.371301 
L 138.065796 262.785211 
L 140.127598 289.361969 
L 140.603398 295.415786 
L 142.348 274.216416 
L 143.458201 263.128874 
L 144.409802 255.831409 
L 145.044203 252.31749 
L 145.678604 250.002288 
L 146.154404 249.10038 
L 146.471605 248.910924 
L 146.788805 249.057577 
L 147.106005 249.544348 
L 147.581806 250.917208 
L 148.057606 253.062242 
L 148.692007 257.111339 
L 149.485008 264.026639 
L 150.436609 274.866386 
L 151.54681 290.581166 
L 151.86401 295.401242 
L 153.450012 267.895009 
L 157.256416 200.010706 
L 158.366617 184.561923 
L 159.318218 174.375474 
L 159.952619 169.4459 
L 160.58702 166.169422 
L 161.06282 164.866885 
L 161.38002 164.570956 
L 161.538621 164.598452 
L 161.855821 165.009521 
L 162.173021 165.900953 
L 162.648822 168.149568 
L 163.124622 171.49992 
L 163.759023 177.680258 
L 164.552024 188.118744 
L 165.503625 204.464926 
L 166.613826 228.372606 
L 167.882627 261.133537 
L 168.992829 293.455895 
L 169.151429 292.705798 
L 174.861035 120.806684 
L 175.971236 95.861318 
L 176.922837 78.63682 
L 177.715838 67.54727 
L 178.508839 59.614341 
L 179.143239 55.613702 
L 179.61904 53.997915 
L 179.93624 53.580017 
L 180.09484 53.568 
L 180.412041 53.9353 
L 180.729241 54.819735 
L 181.205042 57.10011 
L 181.680842 60.496938 
L 182.315243 66.694438 
L 183.108244 76.95978 
L 184.059845 92.611821 
L 185.170046 114.768215 
L 186.597447 147.88032 
L 189.29365 216.978575 
L 191.514052 271.579978 
L 192.624254 295.239063 
L 193.893055 271.192059 
L 195.003256 253.669159 
L 196.113457 239.570682 
L 197.065058 230.162148 
L 198.016659 223.067192 
L 198.80966 218.753159 
L 199.602661 215.707819 
L 200.237062 214.051092 
L 200.871462 212.967434 
L 201.505863 212.341294 
L 202.140264 212.055441 
L 202.933265 212.000081 
L 204.836467 212.032315 
L 205.470867 211.764704 
L 206.105268 211.231488 
L 206.739669 210.378439 
L 207.374069 209.167651 
L 208.16707 207.121263 
L 209.118671 203.887906 
L 210.228872 199.1539 
L 211.814874 191.157508 
L 214.035276 179.912705 
L 214.986877 176.121162 
L 215.779878 173.873047 
L 216.255679 173.030002 
L 216.731479 172.627844 
L 217.04868 172.628425 
L 217.36588 172.859801 
L 217.68308 173.334845 
L 218.158881 174.530667 
L 218.634681 176.339528 
L 219.269082 179.761426 
L 219.903483 184.395704 
L 220.696484 191.962582 
L 221.648085 203.701918 
L 222.599686 218.325342 
L 223.709887 238.86074 
L 224.978688 266.422253 
L 226.088889 293.452194 
L 226.247489 293.4982 
L 228.943692 221.530453 
L 231.164095 164.557347 
L 232.591496 133.375913 
L 233.701697 113.723046 
L 234.653298 100.802878 
L 235.446299 93.143749 
L 236.0807 89.195324 
L 236.5565 87.5554 
L 236.873701 87.104287 
L 237.032301 87.073221 
L 237.349501 87.402123 
L 237.666702 88.25394 
L 238.142502 90.512545 
L 238.618303 93.942543 
L 239.252703 100.312518 
L 240.045704 111.078668 
L 240.997305 127.882748 
L 242.107506 152.326982 
L 243.376308 185.620953 
L 245.12091 238.028476 
L 246.865511 293.981865 
L 247.024112 291.909051 
L 249.403114 219.116666 
L 250.830516 181.706012 
L 251.940717 157.522866 
L 252.892318 140.855665 
L 253.685319 130.104896 
L 254.478319 122.359419 
L 255.11272 118.382789 
L 255.588521 116.706024 
L 255.905721 116.208811 
L 256.064321 116.145459 
L 256.222921 116.204978 
L 256.540122 116.690186 
L 256.857322 117.658643 
L 257.333123 120.001273 
L 257.967523 124.737401 
L 258.601924 131.233145 
L 259.394925 141.659267 
L 260.346526 157.216061 
L 261.615327 182.285823 
L 263.201329 218.652215 
L 266.373332 293.781893 
L 268.276534 250.416023 
L 269.703936 222.819947 
L 270.814137 205.202656 
L 271.765738 193.13576 
L 272.558739 185.35002 
L 273.35174 179.682476 
L 273.98614 176.680439 
L 274.461941 175.314776 
L 274.779141 174.820224 
L 275.096341 174.653207 
L 275.413542 174.808299 
L 275.730742 175.279234 
L 276.206543 176.562166 
L 276.682343 178.512618 
L 277.316744 182.098237 
L 278.109745 188.047367 
L 279.061346 197.101227 
L 280.171547 209.874457 
L 281.598948 228.906542 
L 284.136551 266.327918 
L 286.039753 294.065862 
L 286.198353 294.712744 
L 287.942955 272.061253 
L 289.370357 256.331708 
L 290.639158 244.869293 
L 291.749359 236.924328 
L 292.70096 231.687109 
L 293.493961 228.414473 
L 294.286962 226.100016 
L 294.921363 224.90696 
L 295.397163 224.376988 
L 295.872964 224.143946 
L 296.348764 224.192312 
L 296.824565 224.505525 
L 297.300365 225.066144 
L 297.934766 226.167045 
L 298.727767 228.0484 
L 299.679368 230.929368 
L 300.948169 235.574679 
L 302.851371 243.548021 
L 306.181975 257.56239 
L 307.767976 263.237381 
L 309.036778 267.031167 
L 310.146979 269.738842 
L 311.25718 271.853888 
L 312.208781 273.199023 
L 313.160382 274.129808 
L 313.953383 274.608477 
L 314.746384 274.838909 
L 315.539384 274.84521 
L 316.490985 274.59497 
L 317.442586 274.111254 
L 318.711388 273.195176 
L 320.77319 271.353627 
L 323.152193 269.286085 
L 324.579594 268.351898 
L 325.689795 267.879406 
L 326.641396 267.685738 
L 327.592997 267.706087 
L 328.544598 267.950996 
L 329.496199 268.423845 
L 330.6064 269.258329 
L 331.716602 270.380411 
L 332.985403 271.977343 
L 334.571405 274.356273 
L 336.950407 278.412053 
L 340.281011 284.078272 
L 341.867012 286.372128 
L 343.294414 288.054538 
L 344.563215 289.187428 
L 345.673417 289.874992 
L 346.625018 290.233601 
L 347.576619 290.382937 
L 348.52822 290.333393 
L 349.638421 290.04676 
L 350.907222 289.462498 
L 352.493224 288.448308 
L 357.727029 284.805345 
L 358.995831 284.292971 
L 360.106032 284.068553 
L 361.216233 284.078956 
L 362.326434 284.336547 
L 363.436635 284.841231 
L 364.546837 285.580506 
L 365.815638 286.681018 
L 367.40164 288.360417 
L 370.097843 291.616158 
L 372.476845 294.374351 
L 373.587046 295.469142 
L 374.221447 294.973578 
L 375.490248 294.091851 
L 376.600449 293.574143 
L 377.710651 293.310415 
L 378.820852 293.304448 
L 379.931053 293.547736 
L 381.041254 294.019936 
L 382.310056 294.79948 
L 383.261657 295.470522 
L 385.482059 293.539751 
L 388.336862 291.105219 
L 389.764263 290.160394 
L 391.033065 289.572694 
L 392.143266 289.290044 
L 393.253467 289.242565 
L 394.363668 289.436192 
L 395.47387 289.864778 
L 396.742671 290.61883 
L 398.170072 291.750287 
L 398.487273 292.03456 
L 398.487273 292.03456 
" style="fill:none;stroke:#ff0000;stroke-linecap:square;stroke-width:1.5;"/>
   </g>
   <g id="line2d_15">
    <path clip-path="url(#p6a7165f7da)" d="M 182.050909 307.584 
L 182.050909 41.472 
" style="fill:none;stroke:#000000;stroke-dasharray:5.55,2.4;stroke-dashoffset:0;stroke-width:1.5;"/>
   </g>
   <g id="line2d_16">
    <path clip-path="url(#p6a7165f7da)" d="M 236.16 307.584 
L 236.16 41.472 
" style="fill:none;stroke:#000000;stroke-dasharray:5.55,2.4;stroke-dashoffset:0;stroke-width:1.5;"/>
   </g>
   <g id="line2d_17">
    <path clip-path="url(#p6a7165f7da)" d="M 276.741818 307.584 
L 276.741818 41.472 
" style="fill:none;stroke:#000000;stroke-dasharray:5.55,2.4;stroke-dashoffset:0;stroke-width:1.5;"/>
   </g>
   <g id="patch_3">
    <path d="M 57.6 307.584 
L 57.6 41.472 
" style="fill:none;stroke:#000000;stroke-linecap:square;stroke-linejoin:miter;stroke-width:0.8;"/>
   </g>
   <g id="patch_4">
    <path d="M 414.72 307.584 
L 414.72 41.472 
" style="fill:none;stroke:#000000;stroke-linecap:square;stroke-linejoin:miter;stroke-width:0.8;"/>
   </g>
   <g id="patch_5">
    <path d="M 57.6 307.584 
L 414.72 307.584 
" style="fill:none;stroke:#000000;stroke-linecap:square;stroke-linejoin:miter;stroke-width:0.8;"/>
   </g>
   <g id="patch_6">
    <path d="M 57.6 41.472 
L 414.72 41.472 
" style="fill:none;stroke:#000000;stroke-linecap:square;stroke-linejoin:miter;stroke-width:0.8;"/>
   </g>
   <g id="text_14">
    <!-- t = -1.0 -->
    <defs>
     <path d="M 18.3125 70.21875 
L 18.3125 54.6875 
L 36.8125 54.6875 
L 36.8125 47.703125 
L 18.3125 47.703125 
L 18.3125 18.015625 
Q 18.3125 11.328125 20.140625 9.421875 
Q 21.96875 7.515625 27.59375 7.515625 
L 36.8125 7.515625 
L 36.8125 0 
L 27.59375 0 
Q 17.1875 0 13.234375 3.875 
Q 9.28125 7.765625 9.28125 18.015625 
L 9.28125 47.703125 
L 2.6875 47.703125 
L 2.6875 54.6875 
L 9.28125 54.6875 
L 9.28125 70.21875 
z
" id="DejaVuSans-116"/>
     <path id="DejaVuSans-32"/>
     <path d="M 10.59375 45.40625 
L 73.1875 45.40625 
L 73.1875 37.203125 
L 10.59375 37.203125 
z
M 10.59375 25.484375 
L 73.1875 25.484375 
L 73.1875 17.1875 
L 10.59375 17.1875 
z
" id="DejaVuSans-61"/>
     <path d="M 4.890625 31.390625 
L 31.203125 31.390625 
L 31.203125 23.390625 
L 4.890625 23.390625 
z
" id="DejaVuSans-45"/>
     <path d="M 10.6875 12.40625 
L 21 12.40625 
L 21 0 
L 10.6875 0 
z
" id="DejaVuSans-46"/>
    </defs>
    <g transform="translate(183.133091 284.296027)scale(0.1 -0.1)">
     <use xlink:href="#DejaVuSans-116"/>
     <use x="39.208984" xlink:href="#DejaVuSans-32"/>
     <use x="70.996094" xlink:href="#DejaVuSans-61"/>
     <use x="154.785156" xlink:href="#DejaVuSans-32"/>
     <use x="186.572266" xlink:href="#DejaVuSans-45"/>
     <use x="222.65625" xlink:href="#DejaVuSans-49"/>
     <use x="286.279297" xlink:href="#DejaVuSans-46"/>
     <use x="318.066406" xlink:href="#DejaVuSans-48"/>
    </g>
    <!-- a = 1.0 -->
    <defs>
     <path d="M 34.28125 27.484375 
Q 23.390625 27.484375 19.1875 25 
Q 14.984375 22.515625 14.984375 16.5 
Q 14.984375 11.71875 18.140625 8.90625 
Q 21.296875 6.109375 26.703125 6.109375 
Q 34.1875 6.109375 38.703125 11.40625 
Q 43.21875 16.703125 43.21875 25.484375 
L 43.21875 27.484375 
z
M 52.203125 31.203125 
L 52.203125 0 
L 43.21875 0 
L 43.21875 8.296875 
Q 40.140625 3.328125 35.546875 0.953125 
Q 30.953125 -1.421875 24.3125 -1.421875 
Q 15.921875 -1.421875 10.953125 3.296875 
Q 6 8.015625 6 15.921875 
Q 6 25.140625 12.171875 29.828125 
Q 18.359375 34.515625 30.609375 34.515625 
L 43.21875 34.515625 
L 43.21875 35.40625 
Q 43.21875 41.609375 39.140625 45 
Q 35.0625 48.390625 27.6875 48.390625 
Q 23 48.390625 18.546875 47.265625 
Q 14.109375 46.140625 10.015625 43.890625 
L 10.015625 52.203125 
Q 14.9375 54.109375 19.578125 55.046875 
Q 24.21875 56 28.609375 56 
Q 40.484375 56 46.34375 49.84375 
Q 52.203125 43.703125 52.203125 31.203125 
z
" id="DejaVuSans-97"/>
    </defs>
    <g transform="translate(183.133091 295.49384)scale(0.1 -0.1)">
     <use xlink:href="#DejaVuSans-97"/>
     <use x="61.279297" xlink:href="#DejaVuSans-32"/>
     <use x="93.066406" xlink:href="#DejaVuSans-61"/>
     <use x="176.855469" xlink:href="#DejaVuSans-32"/>
     <use x="208.642578" xlink:href="#DejaVuSans-49"/>
     <use x="272.265625" xlink:href="#DejaVuSans-46"/>
     <use x="304.052734" xlink:href="#DejaVuSans-48"/>
    </g>
   </g>
   <g id="text_15">
    <!-- t = 0.0 -->
    <g transform="translate(237.242182 284.296027)scale(0.1 -0.1)">
     <use xlink:href="#DejaVuSans-116"/>
     <use x="39.208984" xlink:href="#DejaVuSans-32"/>
     <use x="70.996094" xlink:href="#DejaVuSans-61"/>
     <use x="154.785156" xlink:href="#DejaVuSans-32"/>
     <use x="186.572266" xlink:href="#DejaVuSans-48"/>
     <use x="250.195312" xlink:href="#DejaVuSans-46"/>
     <use x="281.982422" xlink:href="#DejaVuSans-48"/>
    </g>
    <!-- a = 3.0 -->
    <g transform="translate(237.242182 295.49384)scale(0.1 -0.1)">
     <use xlink:href="#DejaVuSans-97"/>
     <use x="61.279297" xlink:href="#DejaVuSans-32"/>
     <use x="93.066406" xlink:href="#DejaVuSans-61"/>
     <use x="176.855469" xlink:href="#DejaVuSans-32"/>
     <use x="208.642578" xlink:href="#DejaVuSans-51"/>
     <use x="272.265625" xlink:href="#DejaVuSans-46"/>
     <use x="304.052734" xlink:href="#DejaVuSans-48"/>
    </g>
   </g>
   <g id="text_16">
    <!-- t = 0.75 -->
    <defs>
     <path d="M 8.203125 72.90625 
L 55.078125 72.90625 
L 55.078125 68.703125 
L 28.609375 0 
L 18.3125 0 
L 43.21875 64.59375 
L 8.203125 64.59375 
z
" id="DejaVuSans-55"/>
     <path d="M 10.796875 72.90625 
L 49.515625 72.90625 
L 49.515625 64.59375 
L 19.828125 64.59375 
L 19.828125 46.734375 
Q 21.96875 47.46875 24.109375 47.828125 
Q 26.265625 48.1875 28.421875 48.1875 
Q 40.625 48.1875 47.75 41.5 
Q 54.890625 34.8125 54.890625 23.390625 
Q 54.890625 11.625 47.5625 5.09375 
Q 40.234375 -1.421875 26.90625 -1.421875 
Q 22.3125 -1.421875 17.546875 -0.640625 
Q 12.796875 0.140625 7.71875 1.703125 
L 7.71875 11.625 
Q 12.109375 9.234375 16.796875 8.0625 
Q 21.484375 6.890625 26.703125 6.890625 
Q 35.15625 6.890625 40.078125 11.328125 
Q 45.015625 15.765625 45.015625 23.390625 
Q 45.015625 31 40.078125 35.4375 
Q 35.15625 39.890625 26.703125 39.890625 
Q 22.75 39.890625 18.8125 39.015625 
Q 14.890625 38.140625 10.796875 36.28125 
z
" id="DejaVuSans-53"/>
    </defs>
    <g transform="translate(277.824 284.296027)scale(0.1 -0.1)">
     <use xlink:href="#DejaVuSans-116"/>
     <use x="39.208984" xlink:href="#DejaVuSans-32"/>
     <use x="70.996094" xlink:href="#DejaVuSans-61"/>
     <use x="154.785156" xlink:href="#DejaVuSans-32"/>
     <use x="186.572266" xlink:href="#DejaVuSans-48"/>
     <use x="250.195312" xlink:href="#DejaVuSans-46"/>
     <use x="281.982422" xlink:href="#DejaVuSans-55"/>
     <use x="345.605469" xlink:href="#DejaVuSans-53"/>
    </g>
    <!-- a = 1.0 -->
    <g transform="translate(277.824 295.49384)scale(0.1 -0.1)">
     <use xlink:href="#DejaVuSans-97"/>
     <use x="61.279297" xlink:href="#DejaVuSans-32"/>
     <use x="93.066406" xlink:href="#DejaVuSans-61"/>
     <use x="176.855469" xlink:href="#DejaVuSans-32"/>
     <use x="208.642578" xlink:href="#DejaVuSans-49"/>
     <use x="272.265625" xlink:href="#DejaVuSans-46"/>
     <use x="304.052734" xlink:href="#DejaVuSans-48"/>
    </g>
   </g>
   <g id="legend_1">
    <g id="patch_7">
     <path d="M 299.618438 64.150125 
L 407.72 64.150125 
Q 409.72 64.150125 409.72 62.150125 
L 409.72 48.472 
Q 409.72 46.472 407.72 46.472 
L 299.618438 46.472 
Q 297.618438 46.472 297.618438 48.472 
L 297.618438 62.150125 
Q 297.618438 64.150125 299.618438 64.150125 
z
" style="fill:#ffffff;opacity:0.8;stroke:#cccccc;stroke-linejoin:miter;"/>
    </g>
    <g id="line2d_18">
     <path d="M 301.618438 54.570438 
L 321.618438 54.570438 
" style="fill:none;stroke:#ff0000;stroke-linecap:square;stroke-width:1.5;"/>
    </g>
    <g id="line2d_19"/>
    <g id="text_17">
     <!-- direct compute -->
     <defs>
      <path d="M 45.40625 46.390625 
L 45.40625 75.984375 
L 54.390625 75.984375 
L 54.390625 0 
L 45.40625 0 
L 45.40625 8.203125 
Q 42.578125 3.328125 38.25 0.953125 
Q 33.9375 -1.421875 27.875 -1.421875 
Q 17.96875 -1.421875 11.734375 6.484375 
Q 5.515625 14.40625 5.515625 27.296875 
Q 5.515625 40.1875 11.734375 48.09375 
Q 17.96875 56 27.875 56 
Q 33.9375 56 38.25 53.625 
Q 42.578125 51.265625 45.40625 46.390625 
z
M 14.796875 27.296875 
Q 14.796875 17.390625 18.875 11.75 
Q 22.953125 6.109375 30.078125 6.109375 
Q 37.203125 6.109375 41.296875 11.75 
Q 45.40625 17.390625 45.40625 27.296875 
Q 45.40625 37.203125 41.296875 42.84375 
Q 37.203125 48.484375 30.078125 48.484375 
Q 22.953125 48.484375 18.875 42.84375 
Q 14.796875 37.203125 14.796875 27.296875 
z
" id="DejaVuSans-100"/>
      <path d="M 9.421875 54.6875 
L 18.40625 54.6875 
L 18.40625 0 
L 9.421875 0 
z
M 9.421875 75.984375 
L 18.40625 75.984375 
L 18.40625 64.59375 
L 9.421875 64.59375 
z
" id="DejaVuSans-105"/>
      <path d="M 41.109375 46.296875 
Q 39.59375 47.171875 37.8125 47.578125 
Q 36.03125 48 33.890625 48 
Q 26.265625 48 22.1875 43.046875 
Q 18.109375 38.09375 18.109375 28.8125 
L 18.109375 0 
L 9.078125 0 
L 9.078125 54.6875 
L 18.109375 54.6875 
L 18.109375 46.1875 
Q 20.953125 51.171875 25.484375 53.578125 
Q 30.03125 56 36.53125 56 
Q 37.453125 56 38.578125 55.875 
Q 39.703125 55.765625 41.0625 55.515625 
z
" id="DejaVuSans-114"/>
      <path d="M 56.203125 29.59375 
L 56.203125 25.203125 
L 14.890625 25.203125 
Q 15.484375 15.921875 20.484375 11.0625 
Q 25.484375 6.203125 34.421875 6.203125 
Q 39.59375 6.203125 44.453125 7.46875 
Q 49.3125 8.734375 54.109375 11.28125 
L 54.109375 2.78125 
Q 49.265625 0.734375 44.1875 -0.34375 
Q 39.109375 -1.421875 33.890625 -1.421875 
Q 20.796875 -1.421875 13.15625 6.1875 
Q 5.515625 13.8125 5.515625 26.8125 
Q 5.515625 40.234375 12.765625 48.109375 
Q 20.015625 56 32.328125 56 
Q 43.359375 56 49.78125 48.890625 
Q 56.203125 41.796875 56.203125 29.59375 
z
M 47.21875 32.234375 
Q 47.125 39.59375 43.09375 43.984375 
Q 39.0625 48.390625 32.421875 48.390625 
Q 24.90625 48.390625 20.390625 44.140625 
Q 15.875 39.890625 15.1875 32.171875 
z
" id="DejaVuSans-101"/>
      <path d="M 48.78125 52.59375 
L 48.78125 44.1875 
Q 44.96875 46.296875 41.140625 47.34375 
Q 37.3125 48.390625 33.40625 48.390625 
Q 24.65625 48.390625 19.8125 42.84375 
Q 14.984375 37.3125 14.984375 27.296875 
Q 14.984375 17.28125 19.8125 11.734375 
Q 24.65625 6.203125 33.40625 6.203125 
Q 37.3125 6.203125 41.140625 7.25 
Q 44.96875 8.296875 48.78125 10.40625 
L 48.78125 2.09375 
Q 45.015625 0.34375 40.984375 -0.53125 
Q 36.96875 -1.421875 32.421875 -1.421875 
Q 20.0625 -1.421875 12.78125 6.34375 
Q 5.515625 14.109375 5.515625 27.296875 
Q 5.515625 40.671875 12.859375 48.328125 
Q 20.21875 56 33.015625 56 
Q 37.15625 56 41.109375 55.140625 
Q 45.0625 54.296875 48.78125 52.59375 
z
" id="DejaVuSans-99"/>
      <path d="M 30.609375 48.390625 
Q 23.390625 48.390625 19.1875 42.75 
Q 14.984375 37.109375 14.984375 27.296875 
Q 14.984375 17.484375 19.15625 11.84375 
Q 23.34375 6.203125 30.609375 6.203125 
Q 37.796875 6.203125 41.984375 11.859375 
Q 46.1875 17.53125 46.1875 27.296875 
Q 46.1875 37.015625 41.984375 42.703125 
Q 37.796875 48.390625 30.609375 48.390625 
z
M 30.609375 56 
Q 42.328125 56 49.015625 48.375 
Q 55.71875 40.765625 55.71875 27.296875 
Q 55.71875 13.875 49.015625 6.21875 
Q 42.328125 -1.421875 30.609375 -1.421875 
Q 18.84375 -1.421875 12.171875 6.21875 
Q 5.515625 13.875 5.515625 27.296875 
Q 5.515625 40.765625 12.171875 48.375 
Q 18.84375 56 30.609375 56 
z
" id="DejaVuSans-111"/>
      <path d="M 52 44.1875 
Q 55.375 50.25 60.0625 53.125 
Q 64.75 56 71.09375 56 
Q 79.640625 56 84.28125 50.015625 
Q 88.921875 44.046875 88.921875 33.015625 
L 88.921875 0 
L 79.890625 0 
L 79.890625 32.71875 
Q 79.890625 40.578125 77.09375 44.375 
Q 74.3125 48.1875 68.609375 48.1875 
Q 61.625 48.1875 57.5625 43.546875 
Q 53.515625 38.921875 53.515625 30.90625 
L 53.515625 0 
L 44.484375 0 
L 44.484375 32.71875 
Q 44.484375 40.625 41.703125 44.40625 
Q 38.921875 48.1875 33.109375 48.1875 
Q 26.21875 48.1875 22.15625 43.53125 
Q 18.109375 38.875 18.109375 30.90625 
L 18.109375 0 
L 9.078125 0 
L 9.078125 54.6875 
L 18.109375 54.6875 
L 18.109375 46.1875 
Q 21.1875 51.21875 25.484375 53.609375 
Q 29.78125 56 35.6875 56 
Q 41.65625 56 45.828125 52.96875 
Q 50 49.953125 52 44.1875 
z
" id="DejaVuSans-109"/>
      <path d="M 18.109375 8.203125 
L 18.109375 -20.796875 
L 9.078125 -20.796875 
L 9.078125 54.6875 
L 18.109375 54.6875 
L 18.109375 46.390625 
Q 20.953125 51.265625 25.265625 53.625 
Q 29.59375 56 35.59375 56 
Q 45.5625 56 51.78125 48.09375 
Q 58.015625 40.1875 58.015625 27.296875 
Q 58.015625 14.40625 51.78125 6.484375 
Q 45.5625 -1.421875 35.59375 -1.421875 
Q 29.59375 -1.421875 25.265625 0.953125 
Q 20.953125 3.328125 18.109375 8.203125 
z
M 48.6875 27.296875 
Q 48.6875 37.203125 44.609375 42.84375 
Q 40.53125 48.484375 33.40625 48.484375 
Q 26.265625 48.484375 22.1875 42.84375 
Q 18.109375 37.203125 18.109375 27.296875 
Q 18.109375 17.390625 22.1875 11.75 
Q 26.265625 6.109375 33.40625 6.109375 
Q 40.53125 6.109375 44.609375 11.75 
Q 48.6875 17.390625 48.6875 27.296875 
z
" id="DejaVuSans-112"/>
      <path d="M 8.5 21.578125 
L 8.5 54.6875 
L 17.484375 54.6875 
L 17.484375 21.921875 
Q 17.484375 14.15625 20.5 10.265625 
Q 23.53125 6.390625 29.59375 6.390625 
Q 36.859375 6.390625 41.078125 11.03125 
Q 45.3125 15.671875 45.3125 23.6875 
L 45.3125 54.6875 
L 54.296875 54.6875 
L 54.296875 0 
L 45.3125 0 
L 45.3125 8.40625 
Q 42.046875 3.421875 37.71875 1 
Q 33.40625 -1.421875 27.6875 -1.421875 
Q 18.265625 -1.421875 13.375 4.4375 
Q 8.5 10.296875 8.5 21.578125 
z
M 31.109375 56 
z
" id="DejaVuSans-117"/>
     </defs>
     <g transform="translate(329.618438 58.070438)scale(0.1 -0.1)">
      <use xlink:href="#DejaVuSans-100"/>
      <use x="63.476562" xlink:href="#DejaVuSans-105"/>
      <use x="91.259766" xlink:href="#DejaVuSans-114"/>
      <use x="132.341797" xlink:href="#DejaVuSans-101"/>
      <use x="193.865234" xlink:href="#DejaVuSans-99"/>
      <use x="248.845703" xlink:href="#DejaVuSans-116"/>
      <use x="288.054688" xlink:href="#DejaVuSans-32"/>
      <use x="319.841797" xlink:href="#DejaVuSans-99"/>
      <use x="374.822266" xlink:href="#DejaVuSans-111"/>
      <use x="436.003906" xlink:href="#DejaVuSans-109"/>
      <use x="533.416016" xlink:href="#DejaVuSans-112"/>
      <use x="596.892578" xlink:href="#DejaVuSans-117"/>
      <use x="660.271484" xlink:href="#DejaVuSans-116"/>
      <use x="699.480469" xlink:href="#DejaVuSans-101"/>
     </g>
    </g>
   </g>
  </g>
 </g>
 <defs>
  <clipPath id="p6a7165f7da">
   <rect height="266.112" width="357.12" x="57.6" y="41.472"/>
  </clipPath>
 </defs>
</svg>
