<?xml version="1.0" encoding="utf-8"?>
<svg xmlns="http://www.w3.org/2000/svg" xmlns:xlink="http://www.w3.org/1999/xlink" width="600" height="400" viewBox="0 0 2400 1600">
<defs>
  <clipPath id="clip0700">
    <rect x="0" y="0" width="2400" height="1600"/>
  </clipPath>
</defs>
<path clip-path="url(#clip0700)" d="
M0 1600 L2400 1600 L2400 0 L0 0  Z
  " fill="#ffffff" fill-rule="evenodd" fill-opacity="1"/>
<defs>
  <clipPath id="clip0701">
    <rect x="480" y="0" width="1681" height="1600"/>
  </clipPath>
</defs>
<path clip-path="url(#clip0700)" d="
M263.835 1487.47 L2352.76 1487.47 L2352.76 47.2441 L263.835 47.2441  Z
  " fill="#ffffff" fill-rule="evenodd" fill-opacity="1"/>
<defs>
  <clipPath id="clip0702">
    <rect x="263" y="47" width="2090" height="1441"/>
  </clipPath>
</defs>
<polyline clip-path="url(#clip0702)" style="stroke:#000000; stroke-width:2; stroke-opacity:0.1; fill:none" points="
  322.956,1487.47 322.956,47.2441 
  "/>
<polyline clip-path="url(#clip0702)" style="stroke:#000000; stroke-width:2; stroke-opacity:0.1; fill:none" points="
  651.402,1487.47 651.402,47.2441 
  "/>
<polyline clip-path="url(#clip0702)" style="stroke:#000000; stroke-width:2; stroke-opacity:0.1; fill:none" points="
  979.849,1487.47 979.849,47.2441 
  "/>
<polyline clip-path="url(#clip0702)" style="stroke:#000000; stroke-width:2; stroke-opacity:0.1; fill:none" points="
  1308.3,1487.47 1308.3,47.2441 
  "/>
<polyline clip-path="url(#clip0702)" style="stroke:#000000; stroke-width:2; stroke-opacity:0.1; fill:none" points="
  1636.74,1487.47 1636.74,47.2441 
  "/>
<polyline clip-path="url(#clip0702)" style="stroke:#000000; stroke-width:2; stroke-opacity:0.1; fill:none" points="
  1965.19,1487.47 1965.19,47.2441 
  "/>
<polyline clip-path="url(#clip0702)" style="stroke:#000000; stroke-width:2; stroke-opacity:0.1; fill:none" points="
  2293.64,1487.47 2293.64,47.2441 
  "/>
<polyline clip-path="url(#clip0702)" style="stroke:#000000; stroke-width:2; stroke-opacity:0.1; fill:none" points="
  263.835,1447.9 2352.76,1447.9 
  "/>
<polyline clip-path="url(#clip0702)" style="stroke:#000000; stroke-width:2; stroke-opacity:0.1; fill:none" points="
  263.835,1140.95 2352.76,1140.95 
  "/>
<polyline clip-path="url(#clip0702)" style="stroke:#000000; stroke-width:2; stroke-opacity:0.1; fill:none" points="
  263.835,833.996 2352.76,833.996 
  "/>
<polyline clip-path="url(#clip0702)" style="stroke:#000000; stroke-width:2; stroke-opacity:0.1; fill:none" points="
  263.835,527.042 2352.76,527.042 
  "/>
<polyline clip-path="url(#clip0702)" style="stroke:#000000; stroke-width:2; stroke-opacity:0.1; fill:none" points="
  263.835,220.089 2352.76,220.089 
  "/>
<polyline clip-path="url(#clip0700)" style="stroke:#000000; stroke-width:4; stroke-opacity:1; fill:none" points="
  263.835,1487.47 2352.76,1487.47 
  "/>
<polyline clip-path="url(#clip0700)" style="stroke:#000000; stroke-width:4; stroke-opacity:1; fill:none" points="
  263.835,1487.47 263.835,47.2441 
  "/>
<polyline clip-path="url(#clip0700)" style="stroke:#000000; stroke-width:4; stroke-opacity:1; fill:none" points="
  322.956,1487.47 322.956,1465.87 
  "/>
<polyline clip-path="url(#clip0700)" style="stroke:#000000; stroke-width:4; stroke-opacity:1; fill:none" points="
  651.402,1487.47 651.402,1465.87 
  "/>
<polyline clip-path="url(#clip0700)" style="stroke:#000000; stroke-width:4; stroke-opacity:1; fill:none" points="
  979.849,1487.47 979.849,1465.87 
  "/>
<polyline clip-path="url(#clip0700)" style="stroke:#000000; stroke-width:4; stroke-opacity:1; fill:none" points="
  1308.3,1487.47 1308.3,1465.87 
  "/>
<polyline clip-path="url(#clip0700)" style="stroke:#000000; stroke-width:4; stroke-opacity:1; fill:none" points="
  1636.74,1487.47 1636.74,1465.87 
  "/>
<polyline clip-path="url(#clip0700)" style="stroke:#000000; stroke-width:4; stroke-opacity:1; fill:none" points="
  1965.19,1487.47 1965.19,1465.87 
  "/>
<polyline clip-path="url(#clip0700)" style="stroke:#000000; stroke-width:4; stroke-opacity:1; fill:none" points="
  2293.64,1487.47 2293.64,1465.87 
  "/>
<polyline clip-path="url(#clip0700)" style="stroke:#000000; stroke-width:4; stroke-opacity:1; fill:none" points="
  263.835,1447.9 295.169,1447.9 
  "/>
<polyline clip-path="url(#clip0700)" style="stroke:#000000; stroke-width:4; stroke-opacity:1; fill:none" points="
  263.835,1140.95 295.169,1140.95 
  "/>
<polyline clip-path="url(#clip0700)" style="stroke:#000000; stroke-width:4; stroke-opacity:1; fill:none" points="
  263.835,833.996 295.169,833.996 
  "/>
<polyline clip-path="url(#clip0700)" style="stroke:#000000; stroke-width:4; stroke-opacity:1; fill:none" points="
  263.835,527.042 295.169,527.042 
  "/>
<polyline clip-path="url(#clip0700)" style="stroke:#000000; stroke-width:4; stroke-opacity:1; fill:none" points="
  263.835,220.089 295.169,220.089 
  "/>
<g clip-path="url(#clip0700)">
<text style="fill:#000000; fill-opacity:1; font-family:Arial,Helvetica Neue,Helvetica,sans-serif; font-size:48px; text-anchor:middle;" transform="rotate(0, 322.956, 1541.47)" x="322.956" y="1541.47">-3</text>
</g>
<g clip-path="url(#clip0700)">
<text style="fill:#000000; fill-opacity:1; font-family:Arial,Helvetica Neue,Helvetica,sans-serif; font-size:48px; text-anchor:middle;" transform="rotate(0, 651.402, 1541.47)" x="651.402" y="1541.47">-2</text>
</g>
<g clip-path="url(#clip0700)">
<text style="fill:#000000; fill-opacity:1; font-family:Arial,Helvetica Neue,Helvetica,sans-serif; font-size:48px; text-anchor:middle;" transform="rotate(0, 979.849, 1541.47)" x="979.849" y="1541.47">-1</text>
</g>
<g clip-path="url(#clip0700)">
<text style="fill:#000000; fill-opacity:1; font-family:Arial,Helvetica Neue,Helvetica,sans-serif; font-size:48px; text-anchor:middle;" transform="rotate(0, 1308.3, 1541.47)" x="1308.3" y="1541.47">0</text>
</g>
<g clip-path="url(#clip0700)">
<text style="fill:#000000; fill-opacity:1; font-family:Arial,Helvetica Neue,Helvetica,sans-serif; font-size:48px; text-anchor:middle;" transform="rotate(0, 1636.74, 1541.47)" x="1636.74" y="1541.47">1</text>
</g>
<g clip-path="url(#clip0700)">
<text style="fill:#000000; fill-opacity:1; font-family:Arial,Helvetica Neue,Helvetica,sans-serif; font-size:48px; text-anchor:middle;" transform="rotate(0, 1965.19, 1541.47)" x="1965.19" y="1541.47">2</text>
</g>
<g clip-path="url(#clip0700)">
<text style="fill:#000000; fill-opacity:1; font-family:Arial,Helvetica Neue,Helvetica,sans-serif; font-size:48px; text-anchor:middle;" transform="rotate(0, 2293.64, 1541.47)" x="2293.64" y="1541.47">3</text>
</g>
<g clip-path="url(#clip0700)">
<text style="fill:#000000; fill-opacity:1; font-family:Arial,Helvetica Neue,Helvetica,sans-serif; font-size:48px; text-anchor:end;" transform="rotate(0, 239.835, 1465.4)" x="239.835" y="1465.4">0</text>
</g>
<g clip-path="url(#clip0700)">
<text style="fill:#000000; fill-opacity:1; font-family:Arial,Helvetica Neue,Helvetica,sans-serif; font-size:48px; text-anchor:start;" transform="rotate(0, 87.9495, 1164.68)" x="87.9495" y="1164.68">2×10</text>
</g>
<g clip-path="url(#clip0700)">
<text style="fill:#000000; fill-opacity:1; font-family:Arial,Helvetica Neue,Helvetica,sans-serif; font-size:38px; text-anchor:start;" transform="rotate(0, 196.347, 1137.27)" x="196.347" y="1137.27">42</text>
</g>
<g clip-path="url(#clip0700)">
<text style="fill:#000000; fill-opacity:1; font-family:Arial,Helvetica Neue,Helvetica,sans-serif; font-size:48px; text-anchor:start;" transform="rotate(0, 87.9495, 857.723)" x="87.9495" y="857.723">4×10</text>
</g>
<g clip-path="url(#clip0700)">
<text style="fill:#000000; fill-opacity:1; font-family:Arial,Helvetica Neue,Helvetica,sans-serif; font-size:38px; text-anchor:start;" transform="rotate(0, 196.347, 830.313)" x="196.347" y="830.313">42</text>
</g>
<g clip-path="url(#clip0700)">
<text style="fill:#000000; fill-opacity:1; font-family:Arial,Helvetica Neue,Helvetica,sans-serif; font-size:48px; text-anchor:start;" transform="rotate(0, 87.9495, 550.77)" x="87.9495" y="550.77">6×10</text>
</g>
<g clip-path="url(#clip0700)">
<text style="fill:#000000; fill-opacity:1; font-family:Arial,Helvetica Neue,Helvetica,sans-serif; font-size:38px; text-anchor:start;" transform="rotate(0, 196.347, 523.36)" x="196.347" y="523.36">42</text>
</g>
<g clip-path="url(#clip0700)">
<text style="fill:#000000; fill-opacity:1; font-family:Arial,Helvetica Neue,Helvetica,sans-serif; font-size:48px; text-anchor:start;" transform="rotate(0, 87.9495, 243.817)" x="87.9495" y="243.817">8×10</text>
</g>
<g clip-path="url(#clip0700)">
<text style="fill:#000000; fill-opacity:1; font-family:Arial,Helvetica Neue,Helvetica,sans-serif; font-size:38px; text-anchor:start;" transform="rotate(0, 196.347, 216.406)" x="196.347" y="216.406">42</text>
</g>
<polyline clip-path="url(#clip0702)" style="stroke:#009af9; stroke-width:4; stroke-opacity:1; fill:none" points="
  322.956,1022.02 323.918,1050.65 324.881,1079.68 325.844,1109.08 326.807,1138.83 327.769,1168.89 328.732,1199.24 329.695,1229.85 330.657,1260.7 331.62,1291.75 
  332.583,1322.98 333.546,1354.36 334.508,1385.86 335.471,1417.44 336.434,1446.71 337.396,1415.04 338.359,1383.36 339.322,1351.7 340.285,1320.11 341.247,1288.6 
  342.21,1257.21 343.173,1225.96 344.136,1194.89 345.098,1164.03 346.061,1133.39 347.024,1103.02 347.986,1072.94 348.949,1043.18 349.912,1013.76 350.875,984.722 
  351.837,956.083 352.8,927.874 353.763,900.122 354.725,872.852 355.688,846.091 356.651,819.864 357.614,794.196 358.576,769.112 359.539,744.637 360.502,720.792 
  361.464,697.603 362.427,675.09 363.39,653.276 364.353,632.181 365.315,611.828 366.278,592.234 367.241,573.42 368.203,555.403 369.166,538.203 370.129,521.835 
  371.092,506.315 372.054,491.66 373.017,477.884 373.98,465.001 374.942,453.024 375.905,441.965 376.868,431.835 377.831,422.646 378.793,414.406 379.756,407.124 
  380.719,400.809 381.681,395.467 382.644,391.105 383.607,387.727 384.57,385.338 385.532,383.941 386.495,383.539 387.458,384.132 388.42,385.723 389.383,388.309 
  390.346,391.891 391.309,396.465 392.271,402.029 393.234,408.578 394.197,416.107 395.159,424.61 396.122,434.081 397.085,444.511 398.048,455.893 399.01,468.215 
  399.973,481.468 400.936,495.641 401.898,510.72 402.861,526.693 403.824,543.546 404.787,561.263 405.749,579.83 406.712,599.23 407.675,619.445 408.637,640.457 
  409.6,662.248 410.563,684.797 411.526,708.085 412.488,732.09 413.451,756.791 414.414,782.164 415.376,808.188 416.339,834.837 417.302,862.089 418.265,889.917 
  419.227,918.296 420.19,947.201 421.153,976.604 422.116,1006.48 423.078,1036.8 424.041,1067.53 425.004,1098.65 425.966,1130.13 426.929,1161.94 427.892,1194.05 
  428.855,1226.42 429.817,1259.04 430.78,1291.86 431.743,1324.87 432.705,1358.02 433.668,1391.28 434.631,1424.64 435.594,1437.76 436.556,1404.34 437.519,1370.92 
  438.482,1337.54 439.444,1304.24 440.407,1271.04 441.37,1237.97 442.333,1205.08 443.295,1172.38 444.258,1139.9 445.221,1107.69 446.183,1075.77 447.146,1044.17 
  448.109,1012.92 449.072,982.057 450.034,951.6 450.997,921.583 451.96,892.034 452.922,862.983 453.885,834.457 454.848,806.483 455.811,779.088 456.773,752.3 
  457.736,726.144 458.699,700.645 459.661,675.828 460.624,651.717 461.587,628.336 462.55,605.708 463.512,583.855 464.475,562.799 465.438,542.559 466.4,523.157 
  467.363,504.611 468.326,486.939 469.289,470.16 470.251,454.291 471.214,439.346 472.177,425.342 473.139,412.293 474.102,400.211 475.065,389.11 476.028,379 
  476.99,369.893 477.953,361.798 478.916,354.723 479.878,348.678 480.841,343.667 481.804,339.698 482.767,336.774 483.729,334.901 484.692,334.08 485.655,334.313 
  486.617,335.602 487.58,337.946 488.543,341.344 489.506,345.794 490.468,351.293 491.431,357.836 492.394,365.419 493.356,374.035 494.319,383.677 495.282,394.337 
  496.245,406.006 497.207,418.674 498.17,432.33 499.133,446.962 500.096,462.556 501.058,479.1 502.021,496.578 502.984,514.974 503.946,534.273 504.909,554.457 
  505.872,575.506 506.835,597.403 507.797,620.128 508.76,643.659 509.723,667.974 510.685,693.052 511.648,718.87 512.611,745.404 513.574,772.628 514.536,800.518 
  515.499,829.049 516.462,858.193 517.424,887.923 518.387,918.212 519.35,949.032 520.313,980.353 521.275,1012.15 522.238,1044.38 523.201,1077.03 524.163,1110.06 
  525.126,1143.44 526.089,1177.14 527.052,1211.12 528.014,1245.37 528.977,1279.83 529.94,1314.48 530.902,1349.29 531.865,1384.23 532.828,1419.26 533.791,1441.46 
  534.753,1406.36 535.716,1371.26 536.679,1336.2 537.641,1301.22 538.604,1266.35 539.567,1231.62 540.53,1197.06 541.492,1162.72 542.455,1128.62 543.418,1094.79 
  544.38,1061.27 545.343,1028.1 546.306,995.288 547.269,962.884 548.231,930.915 549.194,899.412 550.157,868.405 551.119,837.924 552.082,807.999 553.045,778.66 
  554.008,749.933 554.97,721.849 555.933,694.434 556.896,667.714 557.858,641.717 558.821,616.467 559.784,591.99 560.747,568.31 561.709,545.449 562.672,523.431 
  563.635,502.278 564.597,482.01 565.56,462.648 566.523,444.211 567.486,426.717 568.448,410.185 569.411,394.631 570.374,380.07 571.336,366.518 572.299,353.989 
  573.262,342.495 574.225,332.048 575.187,322.66 576.15,314.34 577.113,307.097 578.076,300.94 579.038,295.875 580.001,291.908 580.964,289.044 581.926,287.286 
  582.889,286.638 583.852,287.1 584.815,288.674 585.777,291.359 586.74,295.154 587.703,300.055 588.665,306.06 589.628,313.163 590.591,321.359 591.554,330.64 
  592.516,340.999 593.479,352.428 594.442,364.915 595.404,378.45 596.367,393.021 597.33,408.614 598.293,425.217 599.255,442.813 600.218,461.387 601.181,480.922 
  602.143,501.4 603.106,522.802 604.069,545.109 605.032,568.299 605.994,592.352 606.957,617.245 607.92,642.955 608.882,669.457 609.845,696.728 610.808,724.742 
  611.771,753.472 612.733,782.892 613.696,812.974 614.659,843.689 615.621,875.008 616.584,906.903 617.547,939.343 618.51,972.297 619.472,1005.73 620.435,1039.62 
  621.398,1073.93 622.36,1108.62 623.323,1143.67 624.286,1179.04 625.249,1214.69 626.211,1250.59 627.174,1286.72 628.137,1323.03 629.099,1359.48 630.062,1396.05 
  631.025,1432.7 631.988,1426.42 632.95,1389.72 633.913,1353.04 634.876,1316.43 635.838,1279.92 636.801,1243.54 637.764,1207.33 638.727,1171.33 639.689,1135.56 
  640.652,1100.06 641.615,1064.87 642.577,1030.02 643.54,995.549 644.503,961.485 645.466,927.862 646.428,894.714 647.391,862.073 648.354,829.971 649.316,798.439 
  650.279,767.509 651.242,737.21 652.205,707.572 653.167,678.624 654.13,650.395 655.093,622.913 656.056,596.204 657.018,570.296 657.981,545.214 658.944,520.982 
  659.906,497.626 660.869,475.167 661.832,453.629 662.795,433.033 663.757,413.4 664.72,394.749 665.683,377.1 666.645,360.47 667.608,344.875 668.571,330.333 
  669.534,316.858 670.496,304.464 671.459,293.163 672.422,282.968 673.384,273.889 674.347,265.936 675.31,259.117 676.273,253.441 677.235,248.913 678.198,245.539 
  679.161,243.323 680.123,242.268 681.086,242.376 682.049,243.648 683.012,246.084 683.974,249.682 684.937,254.44 685.9,260.353 686.862,267.418 687.825,275.629 
  688.788,284.977 689.751,295.456 690.713,307.056 691.676,319.767 692.639,333.577 693.601,348.474 694.564,364.444 695.527,381.472 696.49,399.544 697.452,418.643 
  698.415,438.75 699.378,459.847 700.34,481.914 701.303,504.932 702.266,528.878 703.229,553.73 704.191,579.464 705.154,606.057 706.117,633.483 707.079,661.716 
  708.042,690.731 709.005,720.498 709.968,750.99 710.93,782.179 711.893,814.033 712.856,846.524 713.818,879.62 714.781,913.289 715.744,947.499 716.707,982.218 
  717.669,1017.41 718.632,1053.05 719.595,1089.09 720.557,1125.51 721.52,1162.26 722.483,1199.32 723.446,1236.64 724.408,1274.19 725.371,1311.94 726.334,1349.84 
  727.296,1387.87 728.259,1425.98 729.222,1431.66 730.185,1393.49 731.147,1355.35 732.11,1317.27 733.073,1279.29 734.036,1241.45 734.998,1203.78 735.961,1166.32 
  736.924,1129.11 737.886,1092.19 738.849,1055.58 739.812,1019.33 740.775,983.468 741.737,948.033 742.7,913.06 743.663,878.581 744.625,844.632 745.588,811.244 
  746.551,778.452 747.514,746.287 748.476,714.781 749.439,683.965 750.402,653.87 751.364,624.525 752.327,595.96 753.29,568.203 754.253,541.281 755.215,515.221 
  756.178,490.049 757.141,465.79 758.103,442.469 759.066,420.108 760.029,398.731 760.992,378.358 761.954,359.011 762.917,340.708 763.88,323.469 764.842,307.311 
  765.805,292.25 766.768,278.302 767.731,265.481 768.693,253.801 769.656,243.273 770.619,233.909 771.581,225.719 772.544,218.711 773.507,212.893 774.47,208.272 
  775.432,204.853 776.395,202.64 777.358,201.637 778.32,201.844 779.283,203.263 780.246,205.893 781.209,209.732 782.171,214.778 783.134,221.027 784.097,228.473 
  785.059,237.109 786.022,246.929 786.985,257.923 787.948,270.082 788.91,283.395 789.873,297.849 790.836,313.431 791.798,330.127 792.761,347.921 793.724,366.796 
  794.687,386.736 795.649,407.721 796.612,429.731 797.575,452.747 798.537,476.745 799.5,501.704 800.463,527.6 801.426,554.407 802.388,582.102 803.351,610.656 
  804.314,640.043 805.276,670.236 806.239,701.204 807.202,732.918 808.165,765.349 809.127,798.464 810.09,832.231 811.053,866.62 812.016,901.595 812.978,937.124 
  813.941,973.172 814.904,1009.7 815.866,1046.69 816.829,1084.08 817.792,1121.85 818.755,1159.97 819.717,1198.38 820.68,1237.06 821.643,1275.98 822.605,1315.08 
  823.568,1354.33 824.531,1393.7 825.494,1433.15 826.456,1423.17 827.419,1383.69 828.382,1344.25 829.344,1304.88 830.307,1265.64 831.27,1226.54 832.233,1187.64 
  833.195,1148.97 834.158,1110.57 835.121,1072.47 836.083,1034.72 837.046,997.356 838.009,960.405 838.972,923.909 839.934,887.903 840.897,852.422 841.86,817.502 
  842.822,783.178 843.785,749.483 844.748,716.45 845.711,684.113 846.673,652.502 847.636,621.651 848.599,591.588 849.561,562.345 850.524,533.949 851.487,506.431 
  852.45,479.816 853.412,454.131 854.375,429.403 855.338,405.656 856.3,382.913 857.263,361.199 858.226,340.533 859.189,320.938 860.151,302.433 861.114,285.038 
  862.077,268.768 863.039,253.642 864.002,239.675 864.965,226.881 865.928,215.273 866.89,204.863 867.853,195.663 868.816,187.682 869.778,180.928 870.741,175.409 
  871.704,171.131 872.667,168.099 873.629,166.317 874.592,165.786 875.555,166.51 876.517,168.486 877.48,171.715 878.443,176.194 879.406,181.918 880.368,188.884 
  881.331,197.086 882.294,206.515 883.256,217.163 884.219,229.021 885.182,242.077 886.145,256.321 887.107,271.737 888.07,288.313 889.033,306.031 889.996,324.877 
  890.958,344.831 891.921,365.875 892.884,387.989 893.846,411.152 894.809,435.341 895.772,460.534 896.735,486.707 897.697,513.833 898.66,541.889 899.623,570.845 
  900.585,600.675 901.548,631.35 902.511,662.84 903.474,695.114 904.436,728.142 905.399,761.892 906.362,796.33 907.324,831.424 908.287,867.139 909.25,903.441 
  910.213,940.295 911.175,977.664 912.138,1015.51 913.101,1053.8 914.063,1092.5 915.026,1131.56 915.989,1170.95 916.952,1210.64 917.914,1250.57 918.877,1290.72 
  919.84,1331.04 920.802,1371.5 921.765,1412.05 922.728,1443.15 923.691,1402.53 924.653,1361.94 925.616,1321.41 926.579,1280.98 927.541,1240.7 928.504,1200.6 
  929.467,1160.73 930.43,1121.12 931.392,1081.81 932.355,1042.84 933.318,1004.24 934.28,966.07 935.243,928.351 936.206,891.122 937.169,854.423 938.131,818.288 
  939.094,782.754 940.057,747.856 941.019,713.628 941.982,680.105 942.945,647.319 943.908,615.304 944.87,584.091 945.833,553.711 946.796,524.194 947.758,495.57 
  948.721,467.868 949.684,441.114 950.647,415.337 951.609,390.561 952.572,366.812 953.535,344.112 954.497,322.486 955.46,301.955 956.423,282.54 957.386,264.26 
  958.348,247.133 959.311,231.178 960.274,216.41 961.236,202.844 962.199,190.495 963.162,179.375 964.125,169.495 965.087,160.867 966.05,153.498 967.013,147.397 
  967.976,142.571 968.938,139.024 969.901,136.762 970.864,135.786 971.826,136.098 972.789,137.699 973.752,140.587 974.715,144.761 975.677,150.216 976.64,156.949 
  977.603,164.952 978.565,174.22 979.528,184.742 980.491,196.51 981.454,209.512 982.416,223.736 983.379,239.169 984.342,255.797 985.304,273.602 986.267,292.569 
  987.23,312.678 988.193,333.912 989.155,356.249 990.118,379.668 991.081,404.147 992.043,429.661 993.006,456.186 993.969,483.697 994.932,512.167 995.894,541.568 
  996.857,571.871 997.82,603.048 998.782,635.068 999.745,667.899 1000.71,701.51 1001.67,735.869 1002.63,770.941 1003.6,806.692 1004.56,843.088 1005.52,880.092 
  1006.48,917.67 1007.45,955.783 1008.41,994.395 1009.37,1033.47 1010.34,1072.96 1011.3,1112.84 1012.26,1153.06 1013.22,1193.59 1014.19,1234.39 1015.15,1275.41 
  1016.11,1316.61 1017.07,1357.96 1018.04,1399.41 1019,1440.93 1019.96,1413.33 1020.92,1371.82 1021.89,1330.35 1022.85,1289 1023.81,1247.78 1024.78,1206.74 
  1025.74,1165.93 1026.7,1125.37 1027.66,1085.13 1028.63,1045.22 1029.59,1005.69 1030.55,966.592 1031.51,927.948 1032.48,889.803 1033.44,852.194 1034.4,815.157 
  1035.37,778.731 1036.33,742.95 1037.29,707.851 1038.25,673.468 1039.22,639.836 1040.18,606.988 1041.14,574.956 1042.1,543.772 1043.07,513.469 1044.03,484.074 
  1044.99,455.619 1045.96,428.132 1046.92,401.639 1047.88,376.167 1048.84,351.743 1049.81,328.39 1050.77,306.131 1051.73,284.99 1052.69,264.987 1053.66,246.142 
  1054.62,228.475 1055.58,212.003 1056.55,196.743 1057.51,182.71 1058.47,169.92 1059.43,158.384 1060.4,148.114 1061.36,139.122 1062.32,131.416 1063.28,125.005 
  1064.25,119.894 1065.21,116.091 1066.17,113.599 1067.14,112.42 1068.1,112.557 1069.06,114.01 1070.02,116.777 1070.99,120.857 1071.95,126.246 1072.91,132.939 
  1073.87,140.93 1074.84,150.211 1075.8,160.774 1076.76,172.609 1077.73,185.703 1078.69,200.046 1079.65,215.623 1080.61,232.419 1081.58,250.418 1082.54,269.603 
  1083.5,289.954 1084.46,311.453 1085.43,334.079 1086.39,357.809 1087.35,382.62 1088.32,408.489 1089.28,435.389 1090.24,463.296 1091.2,492.181 1092.17,522.016 
  1093.13,552.773 1094.09,584.421 1095.05,616.928 1096.02,650.265 1096.98,684.396 1097.94,719.29 1098.9,754.912 1099.87,791.227 1100.83,828.2 1101.79,865.793 
  1102.76,903.971 1103.72,942.695 1104.68,981.927 1105.64,1021.63 1106.61,1061.76 1107.57,1102.29 1108.53,1143.16 1109.49,1184.35 1110.46,1225.81 1111.42,1267.5 
  1112.38,1309.37 1113.35,1351.4 1114.31,1393.53 1115.27,1435.72 1116.23,1417.87 1117.2,1375.67 1118.16,1333.54 1119.12,1291.5 1120.08,1249.61 1121.05,1207.91 
  1122.01,1166.43 1122.97,1125.22 1123.94,1084.32 1124.9,1043.77 1125.86,1003.6 1126.82,963.868 1127.79,924.601 1128.75,885.842 1129.71,847.628 1130.67,809.997 
  1131.64,772.987 1132.6,736.635 1133.56,700.976 1134.53,666.047 1135.49,631.88 1136.45,598.512 1137.41,565.974 1138.38,534.3 1139.34,503.52 1140.3,473.665 
  1141.26,444.766 1142.23,416.85 1143.19,389.945 1144.15,364.08 1145.12,339.278 1146.08,315.565 1147.04,292.965 1148,271.501 1148.97,251.193 1149.93,232.062 
  1150.89,214.127 1151.85,197.406 1152.82,181.917 1153.78,167.674 1154.74,154.692 1155.71,142.984 1156.67,132.562 1157.63,123.437 1158.59,115.617 1159.56,109.111 
  1160.52,103.926 1161.48,100.066 1162.44,97.5367 1163.41,96.3399 1164.37,96.4774 1165.33,97.9493 1166.3,100.754 1167.26,104.89 1168.22,110.353 1169.18,117.137 
  1170.15,125.236 1171.11,134.644 1172.07,145.349 1173.03,157.343 1174,170.613 1174.96,185.147 1175.92,200.93 1176.88,217.948 1177.85,236.183 1178.81,255.618 
  1179.77,276.234 1180.74,298.01 1181.7,320.925 1182.66,344.958 1183.62,370.083 1184.59,396.277 1185.55,423.514 1186.51,451.767 1187.47,481.009 1188.44,511.21 
  1189.4,542.341 1190.36,574.371 1191.33,607.269 1192.29,641.003 1193.25,675.538 1194.21,710.842 1195.18,746.879 1196.14,783.614 1197.1,821.01 1198.06,859.031 
  1199.03,897.64 1199.99,936.797 1200.95,976.465 1201.92,1016.6 1202.88,1057.17 1203.84,1098.14 1204.8,1139.45 1205.77,1181.07 1206.73,1222.97 1207.69,1265.09 
  1208.65,1307.39 1209.62,1349.85 1210.58,1392.4 1211.54,1435.01 1212.51,1418.16 1213.47,1375.55 1214.43,1333.01 1215.39,1290.58 1216.36,1248.29 1217.32,1206.2 
  1218.28,1164.34 1219.24,1122.76 1220.21,1081.49 1221.17,1040.59 1222.13,1000.08 1223.1,960.003 1224.06,920.407 1225.02,881.329 1225.98,842.806 1226.95,804.877 
  1227.91,767.579 1228.87,730.949 1229.83,695.024 1230.8,659.84 1231.76,625.43 1232.72,591.83 1233.69,559.072 1234.65,527.189 1235.61,496.214 1236.57,466.175 
  1237.54,437.104 1238.5,409.029 1239.46,381.978 1240.42,355.978 1241.39,331.055 1242.35,307.233 1243.31,284.537 1244.28,262.988 1245.24,242.608 1246.2,223.418 
  1247.16,205.436 1248.13,188.681 1249.09,173.169 1250.05,158.915 1251.01,145.935 1251.98,134.239 1252.94,123.842 1253.9,114.752 1254.86,106.979 1255.83,100.531 
  1256.79,95.4138 1257.75,91.6331 1258.72,89.1926 1259.68,88.0947 1260.64,88.3407 1261.6,89.9305 1262.57,92.8624 1263.53,97.1338 1264.49,102.74 1265.45,109.677 
  1266.42,117.937 1267.38,127.511 1268.34,138.391 1269.31,150.566 1270.27,164.024 1271.23,178.751 1272.19,194.733 1273.16,211.955 1274.12,230.4 1275.08,250.048 
  1276.04,270.881 1277.01,292.879 1277.97,316.019 1278.93,340.279 1279.9,365.634 1280.86,392.06 1281.82,419.531 1282.78,448.019 1283.75,477.497 1284.71,507.934 
  1285.67,539.302 1286.63,571.568 1287.6,604.702 1288.56,638.67 1289.52,673.439 1290.49,708.974 1291.45,745.24 1292.41,782.202 1293.37,819.823 1294.34,858.065 
  1295.3,896.89 1296.26,936.262 1297.22,976.139 1298.19,1016.48 1299.15,1057.25 1300.11,1098.41 1301.08,1139.92 1302.04,1181.73 1303,1223.8 1303.96,1266.09 
  1304.93,1308.57 1305.89,1351.18 1306.85,1393.89 1307.81,1436.65 1308.78,1416.39 1309.74,1373.64 1310.7,1330.98 1311.67,1288.42 1312.63,1246.03 1313.59,1203.84 
  1314.55,1161.88 1315.52,1120.21 1316.48,1078.87 1317.44,1037.89 1318.4,997.312 1319.37,957.183 1320.33,917.54 1321.29,878.422 1322.26,839.867 1323.22,801.913 
  1324.18,764.599 1325.14,727.962 1326.11,692.036 1327.07,656.858 1328.03,622.464 1328.99,588.886 1329.96,556.157 1330.92,524.311 1331.88,493.379 1332.84,463.392 
  1333.81,434.378 1334.77,406.367 1335.73,379.386 1336.7,353.463 1337.66,328.622 1338.62,304.888 1339.58,282.285 1340.55,260.835 1341.51,240.559 1342.47,221.478 
  1343.43,203.609 1344.4,186.971 1345.36,171.579 1346.32,157.45 1347.29,144.597 1348.25,133.033 1349.21,122.769 1350.17,113.815 1351.14,106.18 1352.1,99.8715 
  1353.06,94.8956 1354.02,91.2572 1354.99,88.9597 1355.95,88.0053 1356.91,88.395 1357.88,90.1282 1358.84,93.2031 1359.8,97.6167 1360.76,103.364 1361.73,110.44 
  1362.69,118.837 1363.65,128.548 1364.61,139.561 1365.58,151.866 1366.54,165.451 1367.5,180.302 1368.47,196.405 1369.43,213.744 1370.39,232.3 1371.35,252.057 
  1372.32,272.993 1373.28,295.088 1374.24,318.321 1375.2,342.668 1376.17,368.105 1377.13,394.607 1378.09,422.147 1379.06,450.699 1380.02,480.233 1380.98,510.72 
  1381.94,542.131 1382.91,574.433 1383.87,607.595 1384.83,641.585 1385.79,676.367 1386.76,711.909 1387.72,748.174 1388.68,785.127 1389.65,822.73 1390.61,860.947 
  1391.57,899.741 1392.53,939.071 1393.5,978.9 1394.46,1019.19 1395.42,1059.89 1396.38,1100.98 1397.35,1142.4 1398.31,1184.12 1399.27,1226.1 1400.24,1268.29 
  1401.2,1310.65 1402.16,1353.15 1403.12,1395.73 1404.09,1438.36 1405.05,1414.82 1406.01,1372.22 1406.97,1329.71 1407.94,1287.32 1408.9,1245.09 1409.86,1203.07 
  1410.82,1161.29 1411.79,1119.81 1412.75,1078.65 1413.71,1037.87 1414.68,997.491 1415.64,957.567 1416.6,918.132 1417.56,879.226 1418.53,840.888 1419.49,803.154 
  1420.45,766.063 1421.41,729.651 1422.38,693.953 1423.34,659.005 1424.3,624.842 1425.27,591.496 1426.23,559.002 1427.19,527.39 1428.15,496.692 1429.12,466.938 
  1430.08,438.158 1431.04,410.38 1432,383.63 1432.97,357.936 1433.93,333.322 1434.89,309.813 1435.86,287.431 1436.82,266.199 1437.78,246.138 1438.74,227.266 
  1439.71,209.603 1440.67,193.166 1441.63,177.97 1442.59,164.031 1443.56,151.362 1444.52,139.975 1445.48,129.881 1446.45,121.091 1447.41,113.612 1448.37,107.452 
  1449.33,102.616 1450.3,99.1089 1451.26,96.9341 1452.22,96.0935 1453.18,96.5874 1454.15,98.4153 1455.11,101.575 1456.07,106.063 1457.04,111.875 1458,119.004 
  1458.96,127.443 1459.92,137.185 1460.89,148.218 1461.85,160.532 1462.81,174.114 1463.77,188.95 1464.74,205.026 1465.7,222.326 1466.66,240.831 1467.63,260.524 
  1468.59,281.385 1469.55,303.392 1470.51,326.525 1471.48,350.759 1472.44,376.07 1473.4,402.434 1474.36,429.824 1475.33,458.213 1476.29,487.572 1477.25,517.873 
  1478.22,549.084 1479.18,581.175 1480.14,614.115 1481.1,647.869 1482.07,682.406 1483.03,717.69 1483.99,753.686 1484.95,790.359 1485.92,827.673 1486.88,865.59 
  1487.84,904.072 1488.8,943.082 1489.77,982.581 1490.73,1022.53 1491.69,1062.89 1492.66,1103.62 1493.62,1144.68 1494.58,1186.02 1495.54,1227.62 1496.51,1269.42 
  1497.47,1311.39 1498.43,1353.49 1499.39,1395.66 1500.36,1437.88 1501.32,1415.71 1502.28,1373.53 1503.25,1331.44 1504.21,1289.48 1505.17,1247.68 1506.13,1206.09 
  1507.1,1164.75 1508.06,1123.69 1509.02,1082.97 1509.98,1042.62 1510.95,1002.68 1511.91,963.19 1512.87,924.187 1513.84,885.711 1514.8,847.799 1515.76,810.489 
  1516.72,773.817 1517.69,737.82 1518.65,702.532 1519.61,667.989 1520.57,634.224 1521.54,601.27 1522.5,569.16 1523.46,537.925 1524.43,507.596 1525.39,478.202 
  1526.35,449.772 1527.31,422.333 1528.28,395.914 1529.24,370.538 1530.2,346.231 1531.16,323.018 1532.13,300.919 1533.09,279.957 1534.05,260.152 1535.02,241.523 
  1535.98,224.088 1536.94,207.864 1537.9,192.867 1538.87,179.111 1539.83,166.609 1540.79,155.374 1541.75,145.415 1542.72,136.742 1543.68,129.363 1544.64,123.286 
  1545.61,118.516 1546.57,115.056 1547.53,112.91 1548.49,112.081 1549.46,112.567 1550.42,114.368 1551.38,117.482 1552.34,121.906 1553.31,127.634 1554.27,134.661 
  1555.23,142.978 1556.2,152.579 1557.16,163.451 1558.12,175.586 1559.08,188.969 1560.05,203.587 1561.01,219.426 1561.97,236.47 1562.93,254.701 1563.9,274.1 
  1564.86,294.649 1565.82,316.327 1566.78,339.111 1567.75,362.98 1568.71,387.908 1569.67,413.872 1570.64,440.845 1571.6,468.8 1572.56,497.709 1573.52,527.544 
  1574.49,558.275 1575.45,589.871 1576.41,622.3 1577.37,655.531 1578.34,689.53 1579.3,724.264 1580.26,759.698 1581.23,795.797 1582.19,832.525 1583.15,869.845 
  1584.11,907.721 1585.08,946.115 1586.04,984.99 1587,1024.31 1587.96,1064.02 1588.93,1104.11 1589.89,1144.51 1590.85,1185.2 1591.82,1226.14 1592.78,1267.27 
  1593.74,1308.57 1594.7,1350 1595.67,1391.5 1596.63,1433.04 1597.59,1421.22 1598.55,1379.72 1599.52,1338.3 1600.48,1297.01 1601.44,1255.87 1602.41,1214.95 
  1603.37,1174.26 1604.33,1133.87 1605.29,1093.79 1606.26,1054.08 1607.22,1014.77 1608.18,975.904 1609.14,937.514 1610.11,899.642 1611.07,862.322 1612.03,825.593 
  1613,789.49 1613.96,754.048 1614.92,719.302 1615.88,685.285 1616.85,652.031 1617.81,619.573 1618.77,587.941 1619.73,557.167 1620.7,527.28 1621.66,498.31 
  1622.62,470.285 1623.59,443.231 1624.55,417.175 1625.51,392.143 1626.47,368.158 1627.44,345.243 1628.4,323.421 1629.36,302.712 1630.32,283.137 1631.29,264.714 
  1632.25,247.461 1633.21,231.394 1634.18,216.528 1635.14,202.878 1636.1,190.457 1637.06,179.275 1638.03,169.344 1638.99,160.673 1639.95,153.269 1640.91,147.139 
  1641.88,142.29 1642.84,138.724 1643.8,136.446 1644.76,135.455 1645.73,135.754 1646.69,137.341 1647.65,140.213 1648.62,144.368 1649.58,149.801 1650.54,156.506 
  1651.5,164.475 1652.47,173.7 1653.43,184.172 1654.39,195.88 1655.35,208.811 1656.32,222.952 1657.28,238.289 1658.24,254.807 1659.21,272.487 1660.17,291.313 
  1661.13,311.266 1662.09,332.325 1663.06,354.468 1664.02,377.675 1664.98,401.921 1665.94,427.182 1666.91,453.433 1667.87,480.647 1668.83,508.798 1669.8,537.857 
  1670.76,567.795 1671.72,598.583 1672.68,630.189 1673.65,662.583 1674.61,695.732 1675.57,729.603 1676.53,764.163 1677.5,799.377 1678.46,835.21 1679.42,871.628 
  1680.39,908.593 1681.35,946.07 1682.31,984.021 1683.27,1022.41 1684.24,1061.2 1685.2,1100.34 1686.16,1139.81 1687.12,1179.57 1688.09,1219.56 1689.05,1259.77 
  1690.01,1300.13 1690.98,1340.62 1691.94,1381.2 1692.9,1421.83 1693.86,1433.35 1694.83,1392.75 1695.79,1352.23 1696.75,1311.82 1697.71,1271.57 1698.68,1231.5 
  1699.64,1191.67 1700.6,1152.11 1701.57,1112.86 1702.53,1073.95 1703.49,1035.43 1704.45,997.335 1705.42,959.698 1706.38,922.558 1707.34,885.951 1708.3,849.912 
  1709.27,814.477 1710.23,779.679 1711.19,745.553 1712.16,712.132 1713.12,679.447 1714.08,647.532 1715.04,616.415 1716.01,586.129 1716.97,556.7 1717.93,528.159 
  1718.89,500.533 1719.86,473.848 1720.82,448.129 1721.78,423.402 1722.74,399.689 1723.71,377.015 1724.67,355.399 1725.63,334.864 1726.6,315.428 1727.56,297.109 
  1728.52,279.926 1729.48,263.894 1730.45,249.028 1731.41,235.342 1732.37,222.849 1733.33,211.561 1734.3,201.487 1735.26,192.637 1736.22,185.019 1737.19,178.64 
  1738.15,173.505 1739.11,169.618 1740.07,166.983 1741.04,165.601 1742,165.473 1742.96,166.599 1743.92,168.976 1744.89,172.601 1745.85,177.471 1746.81,183.579 
  1747.78,190.92 1748.74,199.484 1749.7,209.263 1750.66,220.247 1751.63,232.424 1752.59,245.782 1753.55,260.306 1754.51,275.983 1755.48,292.795 1756.44,310.726 
  1757.4,329.758 1758.37,349.87 1759.33,371.044 1760.29,393.258 1761.25,416.488 1762.22,440.713 1763.18,465.907 1764.14,492.046 1765.1,519.103 1766.07,547.051 
  1767.03,575.863 1767.99,605.51 1768.96,635.961 1769.92,667.188 1770.88,699.159 1771.84,731.843 1772.81,765.206 1773.77,799.216 1774.73,833.84 1775.69,869.043 
  1776.66,904.79 1777.62,941.046 1778.58,977.776 1779.55,1014.94 1780.51,1052.51 1781.47,1090.44 1782.43,1128.7 1783.4,1167.25 1784.36,1206.05 1785.32,1245.06 
  1786.28,1284.24 1787.25,1323.57 1788.21,1362.99 1789.17,1402.47 1790.14,1441.97 1791.1,1414.35 1792.06,1374.92 1793.02,1335.59 1793.99,1296.39 1794.95,1257.36 
  1795.91,1218.54 1796.87,1179.96 1797.84,1141.67 1798.8,1103.7 1799.76,1066.09 1800.72,1028.87 1801.69,992.088 1802.65,955.768 1803.61,919.95 1804.58,884.667 
  1805.54,849.954 1806.5,815.844 1807.46,782.37 1808.43,749.565 1809.39,717.459 1810.35,686.084 1811.31,655.47 1812.28,625.646 1813.24,596.641 1814.2,568.482 
  1815.17,541.196 1816.13,514.809 1817.09,489.347 1818.05,464.833 1819.02,441.29 1819.98,418.742 1820.94,397.208 1821.9,376.711 1822.87,357.268 1823.83,338.898 
  1824.79,321.618 1825.76,305.444 1826.72,290.391 1827.68,276.474 1828.64,263.704 1829.61,252.093 1830.57,241.653 1831.53,232.392 1832.49,224.318 1833.46,217.439 
  1834.42,211.76 1835.38,207.286 1836.35,204.021 1837.31,201.966 1838.27,201.124 1839.23,201.493 1840.2,203.073 1841.16,205.862 1842.12,209.856 1843.08,215.049 
  1844.05,221.437 1845.01,229.012 1845.97,237.766 1846.94,247.689 1847.9,258.771 1848.86,271.001 1849.82,284.366 1850.79,298.851 1851.75,314.443 1852.71,331.125 
  1853.67,348.88 1854.64,367.689 1855.6,387.536 1856.56,408.398 1857.53,430.255 1858.49,453.085 1859.45,476.865 1860.41,501.572 1861.38,527.18 1862.34,553.665 
  1863.3,581 1864.26,609.157 1865.23,638.109 1866.19,667.827 1867.15,698.281 1868.12,729.442 1869.08,761.279 1870.04,793.76 1871,826.854 1871.97,860.527 
  1872.93,894.747 1873.89,929.48 1874.85,964.692 1875.82,1000.35 1876.78,1036.41 1877.74,1072.85 1878.7,1109.63 1879.67,1146.71 1880.63,1184.06 1881.59,1221.64 
  1882.56,1259.41 1883.52,1297.34 1884.48,1335.39 1885.44,1373.52 1886.41,1411.69 1887.37,1445.93 1888.33,1407.77 1889.29,1369.68 1890.26,1331.69 1891.22,1293.84 
  1892.18,1256.16 1893.15,1218.7 1894.11,1181.48 1895.07,1144.55 1896.03,1107.94 1897,1071.68 1897.96,1035.81 1898.92,1000.37 1899.88,965.382 1900.85,930.887 
  1901.81,896.916 1902.77,863.502 1903.74,830.677 1904.7,798.472 1905.66,766.918 1906.62,736.045 1907.59,705.882 1908.55,676.457 1909.51,647.8 1910.47,619.936 
  1911.44,592.893 1912.4,566.695 1913.36,541.368 1914.33,516.935 1915.29,493.419 1916.25,470.843 1917.21,449.226 1918.18,428.59 1919.14,408.954 1920.1,390.335 
  1921.06,372.751 1922.03,356.219 1922.99,340.752 1923.95,326.366 1924.92,313.074 1925.88,300.886 1926.84,289.816 1927.8,279.871 1928.77,271.061 1929.73,263.393 
  1930.69,256.874 1931.65,251.509 1932.62,247.303 1933.58,244.258 1934.54,242.377 1935.51,241.661 1936.47,242.108 1937.43,243.719 1938.39,246.49 1939.36,250.417 
  1940.32,255.496 1941.28,261.722 1942.24,269.087 1943.21,277.582 1944.17,287.2 1945.13,297.929 1946.1,309.759 1947.06,322.678 1948.02,336.671 1948.98,351.724 
  1949.95,367.822 1950.91,384.949 1951.87,403.088 1952.83,422.219 1953.8,442.324 1954.76,463.382 1955.72,485.373 1956.68,508.274 1957.65,532.063 1958.61,556.715 
  1959.57,582.207 1960.54,608.513 1961.5,635.607 1962.46,663.462 1963.42,692.051 1964.39,721.346 1965.35,751.317 1966.31,781.936 1967.27,813.173 1968.24,844.996 
  1969.2,877.374 1970.16,910.277 1971.13,943.671 1972.09,977.525 1973.05,1011.8 1974.01,1046.48 1974.98,1081.51 1975.94,1116.87 1976.9,1152.51 1977.86,1188.42 
  1978.83,1224.54 1979.79,1260.86 1980.75,1297.32 1981.72,1333.9 1982.68,1370.56 1983.64,1407.27 1984.6,1443.99 1985.57,1415.13 1986.53,1378.49 1987.49,1341.96 
  1988.45,1305.55 1989.42,1269.31 1990.38,1233.27 1991.34,1197.46 1992.31,1161.93 1993.27,1126.69 1994.23,1091.79 1995.19,1057.26 1996.16,1023.14 1997.12,989.446 
  1998.08,956.22 1999.04,923.493 2000.01,891.295 2000.97,859.657 2001.93,828.608 2002.9,798.178 2003.86,768.396 2004.82,739.289 2005.78,710.884 2006.75,683.21 
  2007.71,656.29 2008.67,630.152 2009.63,604.818 2010.6,580.312 2011.56,556.658 2012.52,533.878 2013.49,511.991 2014.45,491.019 2015.41,470.981 2016.37,451.895 
  2017.34,433.778 2018.3,416.647 2019.26,400.518 2020.22,385.406 2021.19,371.323 2022.15,358.282 2023.11,346.295 2024.08,335.372 2025.04,325.524 2026,316.757 
  2026.96,309.081 2027.93,302.5 2028.89,297.021 2029.85,292.647 2030.81,289.383 2031.78,287.229 2032.74,286.187 2033.7,286.257 2034.66,287.438 2035.63,289.728 
  2036.59,293.123 2037.55,297.619 2038.52,303.212 2039.48,309.893 2040.44,317.657 2041.4,326.495 2042.37,336.397 2043.33,347.353 2044.29,359.351 2045.25,372.379 
  2046.22,386.423 2047.18,401.47 2048.14,417.504 2049.11,434.507 2050.07,452.465 2051.03,471.358 2051.99,491.167 2052.96,511.872 2053.92,533.454 2054.88,555.89 
  2055.84,579.159 2056.81,603.237 2057.77,628.1 2058.73,653.725 2059.7,680.085 2060.66,707.156 2061.62,734.91 2062.58,763.32 2063.55,792.359 2064.51,821.998 
  2065.47,852.209 2066.43,882.962 2067.4,914.227 2068.36,945.974 2069.32,978.172 2070.29,1010.79 2071.25,1043.8 2072.21,1077.16 2073.17,1110.85 2074.14,1144.83 
  2075.1,1179.07 2076.06,1213.53 2077.02,1248.19 2077.99,1283.01 2078.95,1317.96 2079.91,1353 2080.88,1388.1 2081.84,1423.22 2082.8,1437.46 2083.76,1402.38 
  2084.73,1367.38 2085.69,1332.48 2086.65,1297.72 2087.61,1263.14 2088.58,1228.76 2089.54,1194.62 2090.5,1160.75 2091.47,1127.18 2092.43,1093.95 2093.39,1061.08 
  2094.35,1028.61 2095.32,996.567 2096.28,964.98 2097.24,933.88 2098.2,903.296 2099.17,873.257 2100.13,843.789 2101.09,814.922 2102.06,786.681 2103.02,759.093 
  2103.98,732.184 2104.94,705.978 2105.91,680.499 2106.87,655.772 2107.83,631.818 2108.79,608.661 2109.76,586.32 2110.72,564.817 2111.68,544.17 2112.64,524.4 
  2113.61,505.523 2114.57,487.557 2115.53,470.517 2116.5,454.42 2117.46,439.279 2118.42,425.108 2119.38,411.919 2120.35,399.724 2121.31,388.534 2122.27,378.357 
  2123.23,369.203 2124.2,361.079 2125.16,353.993 2126.12,347.948 2127.09,342.952 2128.05,339.006 2129.01,336.113 2129.97,334.276 2130.94,333.495 2131.9,333.77 
  2132.86,335.099 2133.82,337.48 2134.79,340.909 2135.75,345.383 2136.71,350.896 2137.68,357.442 2138.64,365.013 2139.6,373.602 2140.56,383.198 2141.53,393.793 
  2142.49,405.374 2143.45,417.931 2144.41,431.45 2145.38,445.917 2146.34,461.317 2147.3,477.636 2148.27,494.857 2149.23,512.962 2150.19,531.933 2151.15,551.752 
  2152.12,572.4 2153.08,593.855 2154.04,616.096 2155,639.103 2155.97,662.851 2156.93,687.319 2157.89,712.482 2158.86,738.315 2159.82,764.794 2160.78,791.893 
  2161.74,819.585 2162.71,847.845 2163.67,876.644 2164.63,905.955 2165.59,935.749 2166.56,965.999 2167.52,996.674 2168.48,1027.75 2169.45,1059.19 2170.41,1090.96 
  2171.37,1123.04 2172.33,1155.4 2173.3,1188.01 2174.26,1220.82 2175.22,1253.83 2176.18,1286.98 2177.15,1320.25 2178.11,1353.61 2179.07,1387.03 2180.04,1420.48 
  2181,1441.89 2181.96,1408.49 2182.92,1375.16 2183.89,1341.92 2184.85,1308.82 2185.81,1275.88 2186.77,1243.13 2187.74,1210.61 2188.7,1178.34 2189.66,1146.36 
  2190.62,1114.69 2191.59,1083.36 2192.55,1052.41 2193.51,1021.85 2194.48,991.729 2195.44,962.062 2196.4,932.88 2197.36,904.21 2198.33,876.078 2199.29,848.51 
  2200.25,821.531 2201.21,795.166 2202.18,769.439 2203.14,744.374 2204.1,719.993 2205.07,696.319 2206.03,673.373 2206.99,651.175 2207.95,629.747 2208.92,609.106 
  2209.88,589.272 2210.84,570.262 2211.8,552.094 2212.77,534.783 2213.73,518.344 2214.69,502.793 2215.66,488.143 2216.62,474.406 2217.58,461.595 2218.54,449.72 
  2219.51,438.791 2220.47,428.819 2221.43,419.81 2222.39,411.773 2223.36,404.713 2224.32,398.637 2225.28,393.549 2226.25,389.453 2227.21,386.352 2228.17,384.246 
  2229.13,383.138 2230.1,383.026 2231.06,383.911 2232.02,385.79 2232.98,388.66 2233.95,392.518 2234.91,397.358 2235.87,403.176 2236.84,409.964 2237.8,417.715 
  2238.76,426.422 2239.72,436.074 2240.69,446.661 2241.65,458.174 2242.61,470.599 2243.57,483.924 2244.54,498.136 2245.5,513.221 2246.46,529.163 2247.43,545.947 
  2248.39,563.555 2249.35,581.971 2250.31,601.177 2251.28,621.154 2252.24,641.881 2253.2,663.34 2254.16,685.508 2255.13,708.366 2256.09,731.889 2257.05,756.057 
  2258.02,780.845 2258.98,806.23 2259.94,832.188 2260.9,858.692 2261.87,885.72 2262.83,913.243 2263.79,941.237 2264.75,969.674 2265.72,998.528 2266.68,1027.77 
  2267.64,1057.38 2268.6,1087.31 2269.57,1117.56 2270.53,1148.08 2271.49,1178.85 2272.46,1209.84 2273.42,1241.01 2274.38,1272.35 2275.34,1303.82 2276.31,1335.39 
  2277.27,1367.04 2278.23,1398.73 2279.19,1430.43 2280.16,1433.69 2281.12,1402.05 2282.08,1370.49 2283.05,1339.02 2284.01,1307.7 2284.97,1276.53 2285.93,1245.56 
  2286.9,1214.8 2287.86,1184.29 2288.82,1154.06 2289.78,1124.13 2290.75,1094.53 2291.71,1065.29 2292.67,1036.44 2293.64,1008 
  "/>
<polyline clip-path="url(#clip0702)" style="stroke:#e26f46; stroke-width:4; stroke-opacity:1; fill:none" points="
  979.849,2927.71 979.849,-1392.99 
  "/>
<polyline clip-path="url(#clip0702)" style="stroke:#e26f46; stroke-width:4; stroke-opacity:1; fill:none" points="
  1308.3,2927.71 1308.3,-1392.99 
  "/>
<polyline clip-path="url(#clip0702)" style="stroke:#e26f46; stroke-width:4; stroke-opacity:1; fill:none" points="
  1554.63,2927.71 1554.63,-1392.99 
  "/>
<path clip-path="url(#clip0700)" d="
M1989.93 312.204 L2280.76 312.204 L2280.76 130.764 L1989.93 130.764  Z
  " fill="#ffffff" fill-rule="evenodd" fill-opacity="1"/>
<polyline clip-path="url(#clip0700)" style="stroke:#000000; stroke-width:4; stroke-opacity:1; fill:none" points="
  1989.93,312.204 2280.76,312.204 2280.76,130.764 1989.93,130.764 1989.93,312.204 
  "/>
<polyline clip-path="url(#clip0700)" style="stroke:#009af9; stroke-width:4; stroke-opacity:1; fill:none" points="
  2013.93,191.244 2157.93,191.244 
  "/>
<g clip-path="url(#clip0700)">
<text style="fill:#000000; fill-opacity:1; font-family:Arial,Helvetica Neue,Helvetica,sans-serif; font-size:48px; text-anchor:start;" transform="rotate(0, 2181.93, 208.744)" x="2181.93" y="208.744">y1</text>
</g>
<polyline clip-path="url(#clip0700)" style="stroke:#e26f46; stroke-width:4; stroke-opacity:1; fill:none" points="
  2013.93,251.724 2157.93,251.724 
  "/>
<g clip-path="url(#clip0700)">
<text style="fill:#000000; fill-opacity:1; font-family:Arial,Helvetica Neue,Helvetica,sans-serif; font-size:48px; text-anchor:start;" transform="rotate(0, 2181.93, 269.224)" x="2181.93" y="269.224">y2</text>
</g>
</svg>
