<?xml version="1.0" encoding="utf-8" standalone="no"?>
<!DOCTYPE svg PUBLIC "-//W3C//DTD SVG 1.1//EN"
  "http://www.w3.org/Graphics/SVG/1.1/DTD/svg11.dtd">
<!-- Created with matplotlib (https://matplotlib.org/) -->
<svg height="345.6pt" version="1.1" viewBox="0 0 460.8 345.6" width="460.8pt" xmlns="http://www.w3.org/2000/svg" xmlns:xlink="http://www.w3.org/1999/xlink">
 <defs>
  <style type="text/css">
*{stroke-linecap:butt;stroke-linejoin:round;}
  </style>
 </defs>
 <g id="figure_1">
  <g id="patch_1">
   <path d="M 0 345.6 
L 460.8 345.6 
L 460.8 0 
L 0 0 
z
" style="fill:#ffffff;"/>
  </g>
  <g id="axes_1">
   <g id="patch_2">
    <path d="M 57.6 307.584 
L 414.72 307.584 
L 414.72 41.472 
L 57.6 41.472 
z
" style="fill:#ffffff;"/>
   </g>
   <g id="matplotlib.axis_1">
    <g id="xtick_1">
     <g id="line2d_1">
      <defs>
       <path d="M 0 0 
L 0 3.5 
" id="m772227a25c" style="stroke:#000000;stroke-width:0.8;"/>
      </defs>
      <g>
       <use style="stroke:#000000;stroke-width:0.8;" x="73.832727" xlink:href="#m772227a25c" y="307.584"/>
      </g>
     </g>
     <g id="text_1">
      <!-- −3 -->
      <defs>
       <path d="M 10.59375 35.5 
L 73.1875 35.5 
L 73.1875 27.203125 
L 10.59375 27.203125 
z
" id="DejaVuSans-8722"/>
       <path d="M 40.578125 39.3125 
Q 47.65625 37.796875 51.625 33 
Q 55.609375 28.21875 55.609375 21.1875 
Q 55.609375 10.40625 48.1875 4.484375 
Q 40.765625 -1.421875 27.09375 -1.421875 
Q 22.515625 -1.421875 17.65625 -0.515625 
Q 12.796875 0.390625 7.625 2.203125 
L 7.625 11.71875 
Q 11.71875 9.328125 16.59375 8.109375 
Q 21.484375 6.890625 26.8125 6.890625 
Q 36.078125 6.890625 40.9375 10.546875 
Q 45.796875 14.203125 45.796875 21.1875 
Q 45.796875 27.640625 41.28125 31.265625 
Q 36.765625 34.90625 28.71875 34.90625 
L 20.21875 34.90625 
L 20.21875 43.015625 
L 29.109375 43.015625 
Q 36.375 43.015625 40.234375 45.921875 
Q 44.09375 48.828125 44.09375 54.296875 
Q 44.09375 59.90625 40.109375 62.90625 
Q 36.140625 65.921875 28.71875 65.921875 
Q 24.65625 65.921875 20.015625 65.03125 
Q 15.375 64.15625 9.8125 62.3125 
L 9.8125 71.09375 
Q 15.4375 72.65625 20.34375 73.4375 
Q 25.25 74.21875 29.59375 74.21875 
Q 40.828125 74.21875 47.359375 69.109375 
Q 53.90625 64.015625 53.90625 55.328125 
Q 53.90625 49.265625 50.4375 45.09375 
Q 46.96875 40.921875 40.578125 39.3125 
z
" id="DejaVuSans-51"/>
      </defs>
      <g transform="translate(66.461634 322.182437)scale(0.1 -0.1)">
       <use xlink:href="#DejaVuSans-8722"/>
       <use x="83.789062" xlink:href="#DejaVuSans-51"/>
      </g>
     </g>
    </g>
    <g id="xtick_2">
     <g id="line2d_2">
      <g>
       <use style="stroke:#000000;stroke-width:0.8;" x="127.941818" xlink:href="#m772227a25c" y="307.584"/>
      </g>
     </g>
     <g id="text_2">
      <!-- −2 -->
      <defs>
       <path d="M 19.1875 8.296875 
L 53.609375 8.296875 
L 53.609375 0 
L 7.328125 0 
L 7.328125 8.296875 
Q 12.9375 14.109375 22.625 23.890625 
Q 32.328125 33.6875 34.8125 36.53125 
Q 39.546875 41.84375 41.421875 45.53125 
Q 43.3125 49.21875 43.3125 52.78125 
Q 43.3125 58.59375 39.234375 62.25 
Q 35.15625 65.921875 28.609375 65.921875 
Q 23.96875 65.921875 18.8125 64.3125 
Q 13.671875 62.703125 7.8125 59.421875 
L 7.8125 69.390625 
Q 13.765625 71.78125 18.9375 73 
Q 24.125 74.21875 28.421875 74.21875 
Q 39.75 74.21875 46.484375 68.546875 
Q 53.21875 62.890625 53.21875 53.421875 
Q 53.21875 48.921875 51.53125 44.890625 
Q 49.859375 40.875 45.40625 35.40625 
Q 44.1875 33.984375 37.640625 27.21875 
Q 31.109375 20.453125 19.1875 8.296875 
z
" id="DejaVuSans-50"/>
      </defs>
      <g transform="translate(120.570724 322.182437)scale(0.1 -0.1)">
       <use xlink:href="#DejaVuSans-8722"/>
       <use x="83.789062" xlink:href="#DejaVuSans-50"/>
      </g>
     </g>
    </g>
    <g id="xtick_3">
     <g id="line2d_3">
      <g>
       <use style="stroke:#000000;stroke-width:0.8;" x="182.050909" xlink:href="#m772227a25c" y="307.584"/>
      </g>
     </g>
     <g id="text_3">
      <!-- −1 -->
      <defs>
       <path d="M 12.40625 8.296875 
L 28.515625 8.296875 
L 28.515625 63.921875 
L 10.984375 60.40625 
L 10.984375 69.390625 
L 28.421875 72.90625 
L 38.28125 72.90625 
L 38.28125 8.296875 
L 54.390625 8.296875 
L 54.390625 0 
L 12.40625 0 
z
" id="DejaVuSans-49"/>
      </defs>
      <g transform="translate(174.679815 322.182437)scale(0.1 -0.1)">
       <use xlink:href="#DejaVuSans-8722"/>
       <use x="83.789062" xlink:href="#DejaVuSans-49"/>
      </g>
     </g>
    </g>
    <g id="xtick_4">
     <g id="line2d_4">
      <g>
       <use style="stroke:#000000;stroke-width:0.8;" x="236.16" xlink:href="#m772227a25c" y="307.584"/>
      </g>
     </g>
     <g id="text_4">
      <!-- 0 -->
      <defs>
       <path d="M 31.78125 66.40625 
Q 24.171875 66.40625 20.328125 58.90625 
Q 16.5 51.421875 16.5 36.375 
Q 16.5 21.390625 20.328125 13.890625 
Q 24.171875 6.390625 31.78125 6.390625 
Q 39.453125 6.390625 43.28125 13.890625 
Q 47.125 21.390625 47.125 36.375 
Q 47.125 51.421875 43.28125 58.90625 
Q 39.453125 66.40625 31.78125 66.40625 
z
M 31.78125 74.21875 
Q 44.046875 74.21875 50.515625 64.515625 
Q 56.984375 54.828125 56.984375 36.375 
Q 56.984375 17.96875 50.515625 8.265625 
Q 44.046875 -1.421875 31.78125 -1.421875 
Q 19.53125 -1.421875 13.0625 8.265625 
Q 6.59375 17.96875 6.59375 36.375 
Q 6.59375 54.828125 13.0625 64.515625 
Q 19.53125 74.21875 31.78125 74.21875 
z
" id="DejaVuSans-48"/>
      </defs>
      <g transform="translate(232.97875 322.182437)scale(0.1 -0.1)">
       <use xlink:href="#DejaVuSans-48"/>
      </g>
     </g>
    </g>
    <g id="xtick_5">
     <g id="line2d_5">
      <g>
       <use style="stroke:#000000;stroke-width:0.8;" x="290.269091" xlink:href="#m772227a25c" y="307.584"/>
      </g>
     </g>
     <g id="text_5">
      <!-- 1 -->
      <g transform="translate(287.087841 322.182437)scale(0.1 -0.1)">
       <use xlink:href="#DejaVuSans-49"/>
      </g>
     </g>
    </g>
    <g id="xtick_6">
     <g id="line2d_6">
      <g>
       <use style="stroke:#000000;stroke-width:0.8;" x="344.378182" xlink:href="#m772227a25c" y="307.584"/>
      </g>
     </g>
     <g id="text_6">
      <!-- 2 -->
      <g transform="translate(341.196932 322.182437)scale(0.1 -0.1)">
       <use xlink:href="#DejaVuSans-50"/>
      </g>
     </g>
    </g>
    <g id="xtick_7">
     <g id="line2d_7">
      <g>
       <use style="stroke:#000000;stroke-width:0.8;" x="398.487273" xlink:href="#m772227a25c" y="307.584"/>
      </g>
     </g>
     <g id="text_7">
      <!-- 3 -->
      <g transform="translate(395.306023 322.182437)scale(0.1 -0.1)">
       <use xlink:href="#DejaVuSans-51"/>
      </g>
     </g>
    </g>
   </g>
   <g id="matplotlib.axis_2">
    <g id="ytick_1">
     <g id="line2d_8">
      <defs>
       <path d="M 0 0 
L -3.5 0 
" id="mb16e9a2f3c" style="stroke:#000000;stroke-width:0.8;"/>
      </defs>
      <g>
       <use style="stroke:#000000;stroke-width:0.8;" x="57.6" xlink:href="#mb16e9a2f3c" y="295.524047"/>
      </g>
     </g>
     <g id="text_8">
      <!-- 0.0 -->
      <defs>
       <path d="M 10.6875 12.40625 
L 21 12.40625 
L 21 0 
L 10.6875 0 
z
" id="DejaVuSans-46"/>
      </defs>
      <g transform="translate(34.696875 299.323265)scale(0.1 -0.1)">
       <use xlink:href="#DejaVuSans-48"/>
       <use x="63.623047" xlink:href="#DejaVuSans-46"/>
       <use x="95.410156" xlink:href="#DejaVuSans-48"/>
      </g>
     </g>
    </g>
    <g id="ytick_2">
     <g id="line2d_9">
      <g>
       <use style="stroke:#000000;stroke-width:0.8;" x="57.6" xlink:href="#mb16e9a2f3c" y="261.711993"/>
      </g>
     </g>
     <g id="text_9">
      <!-- 2.5 -->
      <defs>
       <path d="M 10.796875 72.90625 
L 49.515625 72.90625 
L 49.515625 64.59375 
L 19.828125 64.59375 
L 19.828125 46.734375 
Q 21.96875 47.46875 24.109375 47.828125 
Q 26.265625 48.1875 28.421875 48.1875 
Q 40.625 48.1875 47.75 41.5 
Q 54.890625 34.8125 54.890625 23.390625 
Q 54.890625 11.625 47.5625 5.09375 
Q 40.234375 -1.421875 26.90625 -1.421875 
Q 22.3125 -1.421875 17.546875 -0.640625 
Q 12.796875 0.140625 7.71875 1.703125 
L 7.71875 11.625 
Q 12.109375 9.234375 16.796875 8.0625 
Q 21.484375 6.890625 26.703125 6.890625 
Q 35.15625 6.890625 40.078125 11.328125 
Q 45.015625 15.765625 45.015625 23.390625 
Q 45.015625 31 40.078125 35.4375 
Q 35.15625 39.890625 26.703125 39.890625 
Q 22.75 39.890625 18.8125 39.015625 
Q 14.890625 38.140625 10.796875 36.28125 
z
" id="DejaVuSans-53"/>
      </defs>
      <g transform="translate(34.696875 265.511212)scale(0.1 -0.1)">
       <use xlink:href="#DejaVuSans-50"/>
       <use x="63.623047" xlink:href="#DejaVuSans-46"/>
       <use x="95.410156" xlink:href="#DejaVuSans-53"/>
      </g>
     </g>
    </g>
    <g id="ytick_3">
     <g id="line2d_10">
      <g>
       <use style="stroke:#000000;stroke-width:0.8;" x="57.6" xlink:href="#mb16e9a2f3c" y="227.89994"/>
      </g>
     </g>
     <g id="text_10">
      <!-- 5.0 -->
      <g transform="translate(34.696875 231.699159)scale(0.1 -0.1)">
       <use xlink:href="#DejaVuSans-53"/>
       <use x="63.623047" xlink:href="#DejaVuSans-46"/>
       <use x="95.410156" xlink:href="#DejaVuSans-48"/>
      </g>
     </g>
    </g>
    <g id="ytick_4">
     <g id="line2d_11">
      <g>
       <use style="stroke:#000000;stroke-width:0.8;" x="57.6" xlink:href="#mb16e9a2f3c" y="194.087886"/>
      </g>
     </g>
     <g id="text_11">
      <!-- 7.5 -->
      <defs>
       <path d="M 8.203125 72.90625 
L 55.078125 72.90625 
L 55.078125 68.703125 
L 28.609375 0 
L 18.3125 0 
L 43.21875 64.59375 
L 8.203125 64.59375 
z
" id="DejaVuSans-55"/>
      </defs>
      <g transform="translate(34.696875 197.887105)scale(0.1 -0.1)">
       <use xlink:href="#DejaVuSans-55"/>
       <use x="63.623047" xlink:href="#DejaVuSans-46"/>
       <use x="95.410156" xlink:href="#DejaVuSans-53"/>
      </g>
     </g>
    </g>
    <g id="ytick_5">
     <g id="line2d_12">
      <g>
       <use style="stroke:#000000;stroke-width:0.8;" x="57.6" xlink:href="#mb16e9a2f3c" y="160.275833"/>
      </g>
     </g>
     <g id="text_12">
      <!-- 10.0 -->
      <g transform="translate(28.334375 164.075052)scale(0.1 -0.1)">
       <use xlink:href="#DejaVuSans-49"/>
       <use x="63.623047" xlink:href="#DejaVuSans-48"/>
       <use x="127.246094" xlink:href="#DejaVuSans-46"/>
       <use x="159.033203" xlink:href="#DejaVuSans-48"/>
      </g>
     </g>
    </g>
    <g id="ytick_6">
     <g id="line2d_13">
      <g>
       <use style="stroke:#000000;stroke-width:0.8;" x="57.6" xlink:href="#mb16e9a2f3c" y="126.46378"/>
      </g>
     </g>
     <g id="text_13">
      <!-- 12.5 -->
      <g transform="translate(28.334375 130.262998)scale(0.1 -0.1)">
       <use xlink:href="#DejaVuSans-49"/>
       <use x="63.623047" xlink:href="#DejaVuSans-50"/>
       <use x="127.246094" xlink:href="#DejaVuSans-46"/>
       <use x="159.033203" xlink:href="#DejaVuSans-53"/>
      </g>
     </g>
    </g>
    <g id="ytick_7">
     <g id="line2d_14">
      <g>
       <use style="stroke:#000000;stroke-width:0.8;" x="57.6" xlink:href="#mb16e9a2f3c" y="92.651726"/>
      </g>
     </g>
     <g id="text_14">
      <!-- 15.0 -->
      <g transform="translate(28.334375 96.450945)scale(0.1 -0.1)">
       <use xlink:href="#DejaVuSans-49"/>
       <use x="63.623047" xlink:href="#DejaVuSans-53"/>
       <use x="127.246094" xlink:href="#DejaVuSans-46"/>
       <use x="159.033203" xlink:href="#DejaVuSans-48"/>
      </g>
     </g>
    </g>
    <g id="ytick_8">
     <g id="line2d_15">
      <g>
       <use style="stroke:#000000;stroke-width:0.8;" x="57.6" xlink:href="#mb16e9a2f3c" y="58.839673"/>
      </g>
     </g>
     <g id="text_15">
      <!-- 17.5 -->
      <g transform="translate(28.334375 62.638892)scale(0.1 -0.1)">
       <use xlink:href="#DejaVuSans-49"/>
       <use x="63.623047" xlink:href="#DejaVuSans-55"/>
       <use x="127.246094" xlink:href="#DejaVuSans-46"/>
       <use x="159.033203" xlink:href="#DejaVuSans-53"/>
      </g>
     </g>
    </g>
   </g>
   <g id="line2d_16">
    <path clip-path="url(#p1678e1fd3b)" d="M 73.832727 278.564092 
L 75.418729 252.69315 
L 76.52893 237.781882 
L 77.480531 227.995148 
L 78.114932 223.273064 
L 78.749333 220.122646 
L 79.225133 218.836864 
L 79.542333 218.50364 
L 79.859534 218.592876 
L 80.176734 219.104822 
L 80.493934 220.037441 
L 80.969735 222.215056 
L 81.604136 226.531665 
L 82.397136 234.068871 
L 83.348737 245.921066 
L 84.458939 262.895726 
L 86.362141 294.327048 
L 88.741143 252.390792 
L 89.851344 236.273445 
L 90.802945 225.414194 
L 91.595946 218.87109 
L 92.230347 215.447836 
L 92.706147 213.991208 
L 93.023348 213.560965 
L 93.340548 213.567016 
L 93.657748 214.009778 
L 93.974949 214.887274 
L 94.450749 217.00845 
L 95.08515 221.297742 
L 95.719551 227.171541 
L 96.512551 236.547135 
L 97.622753 252.882299 
L 99.050154 277.743993 
L 100.001755 295.488 
L 102.539358 251.040797 
L 103.649559 235.854157 
L 104.44256 227.532633 
L 105.076961 222.630667 
L 105.711361 219.416951 
L 106.187162 218.163671 
L 106.504362 217.890914 
L 106.821562 218.071757 
L 107.138763 218.706295 
L 107.614563 220.502822 
L 108.090364 223.295503 
L 108.724764 228.513169 
L 109.517765 237.279657 
L 110.469366 250.701598 
L 111.738168 272.439341 
L 113.006969 294.211743 
L 115.544572 245.957797 
L 116.654773 228.515111 
L 117.606374 216.712886 
L 118.399375 209.560377 
L 119.033775 205.781618 
L 119.509576 204.140686 
L 119.826776 203.627949 
L 120.143977 203.584162 
L 120.461177 204.009784 
L 120.778377 204.902641 
L 121.254178 207.106778 
L 121.888578 211.614377 
L 122.522979 217.821009 
L 123.31598 227.754144 
L 124.426181 245.075276 
L 125.853583 271.393248 
L 127.122384 294.701301 
L 128.866986 262.33512 
L 129.977187 245.252757 
L 130.928788 233.953907 
L 131.563189 228.474493 
L 132.197589 224.807035 
L 132.67339 223.307689 
L 132.99059 222.920169 
L 133.14919 222.911993 
L 133.466391 223.268364 
L 133.783591 224.121745 
L 134.259392 226.327717 
L 134.735192 229.626115 
L 135.369593 235.663056 
L 136.162594 245.671392 
L 137.114195 260.862223 
L 138.382996 285.312437 
L 138.858796 295.343028 
L 139.810397 274.918243 
L 142.1894 224.697062 
L 143.299601 205.423768 
L 144.251202 192.483233 
L 145.044203 184.736157 
L 145.678604 180.731534 
L 146.154404 179.071258 
L 146.471605 178.617405 
L 146.630205 178.587661 
L 146.947405 178.922794 
L 147.264605 179.782212 
L 147.740406 182.042816 
L 148.216206 185.442023 
L 148.850607 191.666719 
L 149.643608 201.955531 
L 150.595209 217.468727 
L 151.86401 242.132573 
L 154.401613 295.195431 
L 155.670414 271.509487 
L 156.622015 257.262613 
L 157.415016 248.453919 
L 158.049417 243.737175 
L 158.525217 241.680154 
L 158.842418 241.047711 
L 159.001018 240.958506 
L 159.159618 241.022558 
L 159.476818 241.61496 
L 159.794019 242.831898 
L 160.269819 245.835354 
L 160.74562 250.249415 
L 161.38002 258.293346 
L 162.173021 271.677013 
L 163.283222 294.986696 
L 164.552024 260.514003 
L 166.455226 200.881558 
L 168.834228 126.900031 
L 170.10303 94.262008 
L 171.054631 75.14328 
L 171.847632 63.498798 
L 172.482032 57.302256 
L 172.957833 54.582467 
L 173.275033 53.714563 
L 173.433633 53.568 
L 173.592233 53.614188 
L 173.909434 54.286913 
L 174.226634 55.734608 
L 174.702435 59.354162 
L 175.178235 64.690479 
L 175.812636 74.403463 
L 176.605637 90.504691 
L 177.557238 115.083838 
L 178.667439 149.815338 
L 180.253441 207.202665 
L 182.473843 291.980545 
L 182.632443 293.22343 
L 184.218445 239.188051 
L 185.328646 208.060027 
L 186.280247 187.107708 
L 187.073248 174.211318 
L 187.707648 167.062598 
L 188.183449 163.591485 
L 188.659249 161.745192 
L 188.97645 161.409869 
L 189.13505 161.507742 
L 189.45225 162.227131 
L 189.769451 163.632287 
L 190.245251 166.985842 
L 190.879652 173.663522 
L 191.672653 185.241772 
L 192.624254 203.174302 
L 193.893055 232.159302 
L 196.430658 294.43854 
L 197.858059 261.514892 
L 198.96826 240.619187 
L 199.761261 229.043402 
L 200.554262 220.655265 
L 201.188663 216.387749 
L 201.664463 214.648935 
L 201.981664 214.187807 
L 202.140264 214.165468 
L 202.457464 214.533138 
L 202.774664 215.442708 
L 203.250465 217.795287 
L 203.884866 222.687189 
L 204.519266 229.42434 
L 205.312267 240.10715 
L 206.422468 258.354151 
L 208.32567 294.107341 
L 208.484271 293.935523 
L 210.070272 265.927088 
L 211.021873 252.274408 
L 211.814874 243.570224 
L 212.449275 238.688656 
L 212.925075 236.366223 
L 213.242276 235.49037 
L 213.559476 235.169266 
L 213.718076 235.220246 
L 214.035276 235.750486 
L 214.352477 236.8563 
L 214.828277 239.598781 
L 215.304078 243.635357 
L 215.938478 250.988539 
L 216.731479 263.197089 
L 217.68308 281.84926 
L 218.317481 294.682051 
L 219.744883 257.551397 
L 223.551287 154.772851 
L 224.661488 131.987148 
L 225.454489 119.540666 
L 226.088889 112.256188 
L 226.72329 107.558786 
L 227.19909 105.82129 
L 227.516291 105.537495 
L 227.674891 105.661234 
L 227.992091 106.4433 
L 228.309292 107.940046 
L 228.785092 111.522559 
L 229.419493 118.76439 
L 230.053894 128.73908 
L 230.846894 144.829698 
L 231.798495 168.926105 
L 233.067297 207.70409 
L 234.811899 268.947918 
L 235.446299 292.163548 
L 235.604899 293.082458 
L 237.825302 215.880447 
L 239.094103 178.833495 
L 240.204304 152.980925 
L 240.997305 138.932723 
L 241.790306 128.876889 
L 242.424707 123.804434 
L 242.900507 121.746916 
L 243.217708 121.201223 
L 243.376308 121.173532 
L 243.534908 121.307655 
L 243.852108 122.055347 
L 244.169309 123.430465 
L 244.645109 126.632269 
L 245.27951 132.918661 
L 246.072511 143.73611 
L 247.024112 160.438627 
L 248.292913 187.476967 
L 250.671915 244.765925 
L 252.416517 284.397388 
L 252.892318 293.978519 
L 253.050918 294.028623 
L 254.161119 275.17445 
L 255.11272 262.807605 
L 255.905721 255.421876 
L 256.540122 251.478423 
L 257.015922 249.662037 
L 257.333123 248.984561 
L 257.650323 248.723808 
L 257.967523 248.868619 
L 258.284724 249.405671 
L 258.760524 250.912541 
L 259.236325 253.207026 
L 259.870725 257.371821 
L 260.663726 264.093337 
L 261.773927 275.611055 
L 263.518529 294.989373 
L 265.263131 275.629049 
L 266.373332 265.658396 
L 267.166333 260.159114 
L 267.959334 256.210701 
L 268.593735 254.231135 
L 269.069535 253.442497 
L 269.386735 253.244335 
L 269.703936 253.302608 
L 270.021136 253.610269 
L 270.496937 254.51929 
L 270.972737 255.931062 
L 271.607138 258.514169 
L 272.400139 262.680952 
L 273.66894 270.788007 
L 275.889342 285.34212 
L 276.840943 290.110069 
L 277.475344 292.374873 
L 277.951144 293.492054 
L 278.426945 294.054222 
L 278.744145 294.099448 
L 279.061346 293.868693 
L 279.378546 293.353423 
L 279.854346 292.033068 
L 280.330147 290.043949 
L 280.964548 286.346124 
L 281.757549 280.076027 
L 282.70915 270.289085 
L 283.819351 256.187078 
L 285.405352 232.553423 
L 288.418756 186.611237 
L 289.528957 173.062736 
L 290.321958 165.490504 
L 291.114958 160.042049 
L 291.590759 157.901997 
L 292.066559 156.66293 
L 292.38376 156.353854 
L 292.70096 156.466733 
L 293.018161 157.006269 
L 293.335361 157.974914 
L 293.811161 160.232208 
L 294.445562 164.726168 
L 295.079963 170.865175 
L 295.872964 180.712743 
L 296.824565 195.378471 
L 298.093366 218.796807 
L 300.155168 262.017721 
L 301.74117 294.938582 
L 302.05837 289.961534 
L 303.327171 267.820191 
L 304.278772 254.515167 
L 305.071773 246.060598 
L 305.706174 241.200887 
L 306.181975 238.724999 
L 306.657775 237.276165 
L 306.974975 236.885995 
L 307.133576 236.86375 
L 307.450776 237.163613 
L 307.767976 237.91906 
L 308.243777 239.89183 
L 308.719577 242.843136 
L 309.353978 248.223847 
L 310.146979 257.079483 
L 311.09858 270.383135 
L 312.367381 291.49193 
L 312.525981 294.317756 
L 312.684581 293.876117 
L 316.173785 232.246142 
L 317.283986 217.103666 
L 318.076987 208.76403 
L 318.711388 203.814556 
L 319.345789 200.521378 
L 319.821589 199.186144 
L 320.138789 198.847632 
L 320.29739 198.844997 
L 320.61459 199.173317 
L 320.93179 199.945098 
L 321.407591 201.925442 
L 321.883391 204.871863 
L 322.517792 210.241569 
L 323.310793 219.103684 
L 324.262394 232.491469 
L 325.531195 253.929539 
L 327.751597 295.044047 
L 329.496199 263.962927 
L 330.6064 247.647809 
L 331.558002 236.795435 
L 332.351002 230.355698 
L 332.985403 227.060242 
L 333.461204 225.715825 
L 333.778404 225.364415 
L 334.095604 225.450115 
L 334.412805 225.971273 
L 334.730005 226.923849 
L 335.205805 229.146989 
L 335.840206 233.542097 
L 336.633207 241.181456 
L 337.584808 253.118117 
L 338.695009 270.072477 
L 340.122411 294.832612 
L 340.281011 293.366351 
L 342.660013 252.221599 
L 343.770215 236.2576 
L 344.721816 225.41392 
L 345.514816 218.797105 
L 346.149217 215.255381 
L 346.625018 213.674125 
L 346.942218 213.143498 
L 347.259418 213.035239 
L 347.576619 213.349765 
L 347.893819 214.085165 
L 348.369619 215.967555 
L 348.84542 218.763058 
L 349.479821 223.848654 
L 350.272821 232.224515 
L 351.224422 244.847022 
L 352.493224 264.996402 
L 354.237826 295.190426 
L 356.299628 260.292898 
L 357.409829 244.827946 
L 358.36143 234.460246 
L 359.154431 228.238904 
L 359.788832 224.994024 
L 360.264632 223.615701 
L 360.581832 223.208203 
L 360.899033 223.211733 
L 361.216233 223.625412 
L 361.533433 224.44613 
L 362.009234 226.428159 
L 362.643635 230.427645 
L 363.278035 235.890075 
L 364.071036 244.582104 
L 365.181237 259.664758 
L 366.608639 282.504112 
L 367.40164 295.030003 
L 369.622042 258.613108 
L 370.890843 241.512851 
L 371.842444 231.636594 
L 372.635445 225.731185 
L 373.269846 222.673065 
L 373.745646 221.395112 
L 374.062847 221.035483 
L 374.380047 221.071701 
L 374.697247 221.503042 
L 375.014448 222.326633 
L 375.490248 224.285992 
L 376.124649 228.207296 
L 376.91765 235.081912 
L 377.869251 245.900051 
L 378.979452 261.372946 
L 380.724054 289.448893 
L 381.041254 294.751554 
L 381.199854 293.647227 
L 383.261657 261.030245 
L 384.371858 246.479796 
L 385.323459 236.651668 
L 386.11646 230.684847 
L 386.75086 227.508601 
L 387.226661 226.101768 
L 387.543861 225.637345 
L 387.861061 225.554023 
L 388.178262 225.851483 
L 388.495462 226.527359 
L 388.971263 228.240528 
L 389.605663 231.791443 
L 390.240064 236.712978 
L 391.033065 244.62034 
L 391.984666 256.313264 
L 393.412067 277.125469 
L 394.522269 294.73555 
L 394.680869 293.771175 
L 396.742671 262.300726 
L 398.011472 246.323027 
L 398.487273 241.365623 
L 398.487273 241.365623 
" style="fill:none;stroke:#0000ff;stroke-linecap:square;stroke-width:1.5;"/>
   </g>
   <g id="line2d_17">
    <path clip-path="url(#p1678e1fd3b)" d="M 182.050909 307.584 
L 182.050909 41.472 
" style="fill:none;stroke:#000000;stroke-dasharray:5.55,2.4;stroke-dashoffset:0;stroke-width:1.5;"/>
   </g>
   <g id="line2d_18">
    <path clip-path="url(#p1678e1fd3b)" d="M 236.16 307.584 
L 236.16 41.472 
" style="fill:none;stroke:#000000;stroke-dasharray:5.55,2.4;stroke-dashoffset:0;stroke-width:1.5;"/>
   </g>
   <g id="line2d_19">
    <path clip-path="url(#p1678e1fd3b)" d="M 276.741818 307.584 
L 276.741818 41.472 
" style="fill:none;stroke:#000000;stroke-dasharray:5.55,2.4;stroke-dashoffset:0;stroke-width:1.5;"/>
   </g>
   <g id="patch_3">
    <path d="M 57.6 307.584 
L 57.6 41.472 
" style="fill:none;stroke:#000000;stroke-linecap:square;stroke-linejoin:miter;stroke-width:0.8;"/>
   </g>
   <g id="patch_4">
    <path d="M 414.72 307.584 
L 414.72 41.472 
" style="fill:none;stroke:#000000;stroke-linecap:square;stroke-linejoin:miter;stroke-width:0.8;"/>
   </g>
   <g id="patch_5">
    <path d="M 57.6 307.584 
L 414.72 307.584 
" style="fill:none;stroke:#000000;stroke-linecap:square;stroke-linejoin:miter;stroke-width:0.8;"/>
   </g>
   <g id="patch_6">
    <path d="M 57.6 41.472 
L 414.72 41.472 
" style="fill:none;stroke:#000000;stroke-linecap:square;stroke-linejoin:miter;stroke-width:0.8;"/>
   </g>
   <g id="text_16">
    <!-- t = -1.0 -->
    <defs>
     <path d="M 18.3125 70.21875 
L 18.3125 54.6875 
L 36.8125 54.6875 
L 36.8125 47.703125 
L 18.3125 47.703125 
L 18.3125 18.015625 
Q 18.3125 11.328125 20.140625 9.421875 
Q 21.96875 7.515625 27.59375 7.515625 
L 36.8125 7.515625 
L 36.8125 0 
L 27.59375 0 
Q 17.1875 0 13.234375 3.875 
Q 9.28125 7.765625 9.28125 18.015625 
L 9.28125 47.703125 
L 2.6875 47.703125 
L 2.6875 54.6875 
L 9.28125 54.6875 
L 9.28125 70.21875 
z
" id="DejaVuSans-116"/>
     <path id="DejaVuSans-32"/>
     <path d="M 10.59375 45.40625 
L 73.1875 45.40625 
L 73.1875 37.203125 
L 10.59375 37.203125 
z
M 10.59375 25.484375 
L 73.1875 25.484375 
L 73.1875 17.1875 
L 10.59375 17.1875 
z
" id="DejaVuSans-61"/>
     <path d="M 4.890625 31.390625 
L 31.203125 31.390625 
L 31.203125 23.390625 
L 4.890625 23.390625 
z
" id="DejaVuSans-45"/>
    </defs>
    <g transform="translate(183.133091 284.326234)scale(0.1 -0.1)">
     <use xlink:href="#DejaVuSans-116"/>
     <use x="39.208984" xlink:href="#DejaVuSans-32"/>
     <use x="70.996094" xlink:href="#DejaVuSans-61"/>
     <use x="154.785156" xlink:href="#DejaVuSans-32"/>
     <use x="186.572266" xlink:href="#DejaVuSans-45"/>
     <use x="222.65625" xlink:href="#DejaVuSans-49"/>
     <use x="286.279297" xlink:href="#DejaVuSans-46"/>
     <use x="318.066406" xlink:href="#DejaVuSans-48"/>
    </g>
    <!-- a = 1.0 -->
    <defs>
     <path d="M 34.28125 27.484375 
Q 23.390625 27.484375 19.1875 25 
Q 14.984375 22.515625 14.984375 16.5 
Q 14.984375 11.71875 18.140625 8.90625 
Q 21.296875 6.109375 26.703125 6.109375 
Q 34.1875 6.109375 38.703125 11.40625 
Q 43.21875 16.703125 43.21875 25.484375 
L 43.21875 27.484375 
z
M 52.203125 31.203125 
L 52.203125 0 
L 43.21875 0 
L 43.21875 8.296875 
Q 40.140625 3.328125 35.546875 0.953125 
Q 30.953125 -1.421875 24.3125 -1.421875 
Q 15.921875 -1.421875 10.953125 3.296875 
Q 6 8.015625 6 15.921875 
Q 6 25.140625 12.171875 29.828125 
Q 18.359375 34.515625 30.609375 34.515625 
L 43.21875 34.515625 
L 43.21875 35.40625 
Q 43.21875 41.609375 39.140625 45 
Q 35.0625 48.390625 27.6875 48.390625 
Q 23 48.390625 18.546875 47.265625 
Q 14.109375 46.140625 10.015625 43.890625 
L 10.015625 52.203125 
Q 14.9375 54.109375 19.578125 55.046875 
Q 24.21875 56 28.609375 56 
Q 40.484375 56 46.34375 49.84375 
Q 52.203125 43.703125 52.203125 31.203125 
z
" id="DejaVuSans-97"/>
    </defs>
    <g transform="translate(183.133091 295.524047)scale(0.1 -0.1)">
     <use xlink:href="#DejaVuSans-97"/>
     <use x="61.279297" xlink:href="#DejaVuSans-32"/>
     <use x="93.066406" xlink:href="#DejaVuSans-61"/>
     <use x="176.855469" xlink:href="#DejaVuSans-32"/>
     <use x="208.642578" xlink:href="#DejaVuSans-49"/>
     <use x="272.265625" xlink:href="#DejaVuSans-46"/>
     <use x="304.052734" xlink:href="#DejaVuSans-48"/>
    </g>
   </g>
   <g id="text_17">
    <!-- t = 0.0 -->
    <g transform="translate(237.242182 284.326234)scale(0.1 -0.1)">
     <use xlink:href="#DejaVuSans-116"/>
     <use x="39.208984" xlink:href="#DejaVuSans-32"/>
     <use x="70.996094" xlink:href="#DejaVuSans-61"/>
     <use x="154.785156" xlink:href="#DejaVuSans-32"/>
     <use x="186.572266" xlink:href="#DejaVuSans-48"/>
     <use x="250.195312" xlink:href="#DejaVuSans-46"/>
     <use x="281.982422" xlink:href="#DejaVuSans-48"/>
    </g>
    <!-- a = 3.0 -->
    <g transform="translate(237.242182 295.524047)scale(0.1 -0.1)">
     <use xlink:href="#DejaVuSans-97"/>
     <use x="61.279297" xlink:href="#DejaVuSans-32"/>
     <use x="93.066406" xlink:href="#DejaVuSans-61"/>
     <use x="176.855469" xlink:href="#DejaVuSans-32"/>
     <use x="208.642578" xlink:href="#DejaVuSans-51"/>
     <use x="272.265625" xlink:href="#DejaVuSans-46"/>
     <use x="304.052734" xlink:href="#DejaVuSans-48"/>
    </g>
   </g>
   <g id="text_18">
    <!-- t = 0.75 -->
    <g transform="translate(277.824 284.326234)scale(0.1 -0.1)">
     <use xlink:href="#DejaVuSans-116"/>
     <use x="39.208984" xlink:href="#DejaVuSans-32"/>
     <use x="70.996094" xlink:href="#DejaVuSans-61"/>
     <use x="154.785156" xlink:href="#DejaVuSans-32"/>
     <use x="186.572266" xlink:href="#DejaVuSans-48"/>
     <use x="250.195312" xlink:href="#DejaVuSans-46"/>
     <use x="281.982422" xlink:href="#DejaVuSans-55"/>
     <use x="345.605469" xlink:href="#DejaVuSans-53"/>
    </g>
    <!-- a = 1.0 -->
    <g transform="translate(277.824 295.524047)scale(0.1 -0.1)">
     <use xlink:href="#DejaVuSans-97"/>
     <use x="61.279297" xlink:href="#DejaVuSans-32"/>
     <use x="93.066406" xlink:href="#DejaVuSans-61"/>
     <use x="176.855469" xlink:href="#DejaVuSans-32"/>
     <use x="208.642578" xlink:href="#DejaVuSans-49"/>
     <use x="272.265625" xlink:href="#DejaVuSans-46"/>
     <use x="304.052734" xlink:href="#DejaVuSans-48"/>
    </g>
   </g>
   <g id="legend_1">
    <g id="patch_7">
     <path d="M 361.9825 64.150125 
L 407.72 64.150125 
Q 409.72 64.150125 409.72 62.150125 
L 409.72 48.472 
Q 409.72 46.472 407.72 46.472 
L 361.9825 46.472 
Q 359.9825 46.472 359.9825 48.472 
L 359.9825 62.150125 
Q 359.9825 64.150125 361.9825 64.150125 
z
" style="fill:#ffffff;opacity:0.8;stroke:#cccccc;stroke-linejoin:miter;"/>
    </g>
    <g id="line2d_20">
     <path d="M 363.9825 54.570438 
L 383.9825 54.570438 
" style="fill:none;stroke:#0000ff;stroke-linecap:square;stroke-width:1.5;"/>
    </g>
    <g id="line2d_21"/>
    <g id="text_19">
     <!-- ifft -->
     <defs>
      <path d="M 9.421875 54.6875 
L 18.40625 54.6875 
L 18.40625 0 
L 9.421875 0 
z
M 9.421875 75.984375 
L 18.40625 75.984375 
L 18.40625 64.59375 
L 9.421875 64.59375 
z
" id="DejaVuSans-105"/>
      <path d="M 37.109375 75.984375 
L 37.109375 68.5 
L 28.515625 68.5 
Q 23.6875 68.5 21.796875 66.546875 
Q 19.921875 64.59375 19.921875 59.515625 
L 19.921875 54.6875 
L 34.71875 54.6875 
L 34.71875 47.703125 
L 19.921875 47.703125 
L 19.921875 0 
L 10.890625 0 
L 10.890625 47.703125 
L 2.296875 47.703125 
L 2.296875 54.6875 
L 10.890625 54.6875 
L 10.890625 58.5 
Q 10.890625 67.625 15.140625 71.796875 
Q 19.390625 75.984375 28.609375 75.984375 
z
" id="DejaVuSans-102"/>
     </defs>
     <g transform="translate(391.9825 58.070438)scale(0.1 -0.1)">
      <use xlink:href="#DejaVuSans-105"/>
      <use x="27.783203" xlink:href="#DejaVuSans-102"/>
      <use x="62.988281" xlink:href="#DejaVuSans-102"/>
      <use x="98.177734" xlink:href="#DejaVuSans-116"/>
     </g>
    </g>
   </g>
  </g>
 </g>
 <defs>
  <clipPath id="p1678e1fd3b">
   <rect height="266.112" width="357.12" x="57.6" y="41.472"/>
  </clipPath>
 </defs>
</svg>
